<svg xmlns="http://www.w3.org/2000/svg" width="45" height="45" viewBox="0 0 45 45"><g transform="translate(-0.153 0)"><g transform="translate(0 0)" opacity="0.3"><g transform="translate(0.153 0)" fill="#5287f5" stroke="#03f" stroke-width="1.5"><rect width="45" height="45" rx="4" stroke="none"/><rect x="0.75" y="0.75" width="43.5" height="43.5" rx="3.25" fill="none"/></g></g><g transform="translate(-64.065 -133.167)"><path d="M77.166,517.866l-.23-.128a1.056,1.056,0,0,1-.6-.926c-.012-.551-.017-1.1,0-1.654a1.082,1.082,0,0,1,1.013-1.046c.119-.01.239-.013.358-.013q9.943,0,19.886,0a2.409,2.409,0,0,1,.547.04,1.061,1.061,0,0,1,.818,1.016c.015.514.01,1.029.008,1.544a1.12,1.12,0,0,1-.756,1.105.407.407,0,0,0-.08.06Z" transform="translate(0 -348.43)" fill="#5287f5"/><path d="M124.765,157.211a1.313,1.313,0,0,1,.159-.259q1.769-1.781,3.545-3.555a1.175,1.175,0,0,1,1.89-.008c.293.292.589.582.877.878a1.132,1.132,0,0,1,0,1.712q-3.808,3.818-7.628,7.625a1.107,1.107,0,0,1-1.685,0q-3.82-3.806-7.632-7.621a1.139,1.139,0,0,1,0-1.713c.294-.3.6-.6.9-.9a1.168,1.168,0,0,1,1.833,0q1.8,1.792,3.588,3.589c.071.071.129.156.194.234l.078-.026v-.306q0-7.227,0-14.454a1.126,1.126,0,0,1,1.217-1.219h.662c.257,0,.515,0,.772,0a1.107,1.107,0,0,1,1.1,1.021c.012.137.015.275.015.413q0,7.089,0,14.178v.326Z" transform="translate(-35.109)" fill="#5287f5"/></g></g></svg>