<svg xmlns="http://www.w3.org/2000/svg" width="45" height="45" viewBox="0 0 45 45"><g transform="translate(-1021 -204)"><g transform="translate(1020.847 204)"><g transform="translate(0 0)"><g transform="translate(0.153 0)" fill="#cadafb" stroke="#b1c0ff" stroke-width="1.5"><rect width="45" height="45" rx="4" stroke="none"/><rect x="0.75" y="0.75" width="43.5" height="43.5" rx="3.25" fill="none"/></g></g></g><g transform="translate(-6830.742 1867.021)"><g transform="translate(7860.711 -1653.084)"><g transform="translate(0 0)"><path d="M107.349,156.133a.243.243,0,0,0,.161-.032c.032,0,.065,0,.065-.032a.118.118,0,0,0,.1-.033c.032,0,.064-.032.1-.032s.032-.032.064-.032a.991.991,0,0,0,.257-.257c0-.032.032-.032.032-.065s.033-.064.033-.1.032-.064.032-.1.032-.032.032-.064a1.342,1.342,0,0,1,.033-.161v-3.986A11.422,11.422,0,0,0,96.741,139.9H92.691a.892.892,0,0,0-.9.867v3.987A11.422,11.422,0,0,0,103.3,156.1h4.049Zm-13.79-11.347v-3.118h3.15a9.659,9.659,0,0,1,9.709,9.611v1.9l-7.554-7.458a.887.887,0,1,0-1.254,1.254l7.554,7.458h-1.9A9.728,9.728,0,0,1,93.559,144.786Z" transform="translate(-91.791 -139.9)" fill="#5287f5" stroke="#5287f5" stroke-miterlimit="10" stroke-width="0.5"/><path d="M117.316,144.7H114.41a8.046,8.046,0,0,0-8.259,7.795v2.739a.164.164,0,0,0,.022.11c0,.022,0,.044.023.044a.078.078,0,0,0,.023.066c0,.022.023.044.023.067s.022.022.022.044a.683.683,0,0,0,.185.177c.022,0,.022.022.046.022s.047.022.069.022.047.022.07.022a.084.084,0,0,1,.046.021,1.022,1.022,0,0,1,.116.022H109.7a8.047,8.047,0,0,0,8.259-7.8v-2.737A.618.618,0,0,0,117.316,144.7Zm-.622,3.356a6.806,6.806,0,0,1-6.967,6.6h-1.362l5.422-5.123a.582.582,0,0,0,0-.861.645.645,0,0,0-.9,0l-5.422,5.123v-1.3a6.806,6.806,0,0,1,6.967-6.6h2.262v2.164Z" transform="translate(-90.932 -139.613)" fill="#5287f5" stroke="#5287f5" stroke-miterlimit="10" stroke-width="0.5"/></g><path d="M108.317,148.145v12.222H100.5a.879.879,0,0,0-.887.855.858.858,0,0,0,.887.855h18.1a.878.878,0,0,0,.887-.855.932.932,0,0,0-.919-.855h-8.507V148.145" transform="translate(-93.533 -137.607)" fill="#5287f5"/></g></g></g></svg>