<svg xmlns="http://www.w3.org/2000/svg" width="42.565" height="34.856" viewBox="0 0 42.565 34.856"><g transform="translate(-959 -363.5)"><g transform="translate(967.991 364.5)" fill="#5287f5"><path d="M 18.54774475097656 4.136942386627197 L 2.3184654712677 4.136942386627197 C 1.315755486488342 4.136942386627197 0.4999954700469971 3.321182489395142 0.4999954700469971 2.318472385406494 C 0.4999954700469971 1.315762400627136 1.315755486488342 0.500002384185791 2.3184654712677 0.500002384185791 L 18.54774475097656 0.500002384185791 C 19.55045509338379 0.500002384185791 20.36621475219727 1.315762400627136 20.36621475219727 2.318472385406494 C 20.36621475219727 3.321182489395142 19.55045509338379 4.136942386627197 18.54774475097656 4.136942386627197 Z" stroke="none"/><path d="M 2.318466186523438 1.000002384185791 C 1.591455459594727 1.000002384185791 0.9999961853027344 1.591462373733521 0.9999961853027344 2.318472385406494 C 0.9999961853027344 3.045482397079468 1.591455459594727 3.636942386627197 2.318466186523438 3.636942386627197 L 18.54774475097656 3.636942386627197 C 19.27475547790527 3.636942386627197 19.86621475219727 3.045482397079468 19.86621475219727 2.318472385406494 C 19.86621475219727 1.591462373733521 19.27475547790527 1.000002384185791 18.54774475097656 1.000002384185791 L 2.318466186523438 1.000002384185791 M 2.318466186523438 2.384185791015625e-06 L 18.54774475097656 2.384185791015625e-06 C 19.82819557189941 2.384185791015625e-06 20.86621475219727 1.038012504577637 20.86621475219727 2.318472385406494 C 20.86621475219727 3.598932266235352 19.82819557189941 4.636942386627197 18.54774475097656 4.636942386627197 L 2.318466186523438 4.636942386627197 C 1.038015365600586 4.636942386627197 -3.814697265625e-06 3.598932266235352 -3.814697265625e-06 2.318472385406494 C -3.814697265625e-06 1.038012504577637 1.038015365600586 2.384185791015625e-06 2.318466186523438 2.384185791015625e-06 Z" stroke="none" fill="#5287f5"/></g><g transform="translate(967.991 372.5)" fill="#fff"><path d="M 18.54774475097656 4.136942386627197 L 2.3184654712677 4.136942386627197 C 1.315755486488342 4.136942386627197 0.4999954700469971 3.321182489395142 0.4999954700469971 2.318472385406494 C 0.4999954700469971 1.315762400627136 1.315755486488342 0.500002384185791 2.3184654712677 0.500002384185791 L 18.54774475097656 0.500002384185791 C 19.55045509338379 0.500002384185791 20.36621475219727 1.315762400627136 20.36621475219727 2.318472385406494 C 20.36621475219727 3.321182489395142 19.55045509338379 4.136942386627197 18.54774475097656 4.136942386627197 Z" stroke="none"/><path d="M 2.318466186523438 1.000002384185791 C 1.591455459594727 1.000002384185791 0.9999961853027344 1.591462373733521 0.9999961853027344 2.318472385406494 C 0.9999961853027344 3.045482397079468 1.591455459594727 3.636942386627197 2.318466186523438 3.636942386627197 L 18.54774475097656 3.636942386627197 C 19.27475547790527 3.636942386627197 19.86621475219727 3.045482397079468 19.86621475219727 2.318472385406494 C 19.86621475219727 1.591462373733521 19.27475547790527 1.000002384185791 18.54774475097656 1.000002384185791 L 2.318466186523438 1.000002384185791 M 2.318466186523438 2.384185791015625e-06 L 18.54774475097656 2.384185791015625e-06 C 19.82819557189941 2.384185791015625e-06 20.86621475219727 1.038012504577637 20.86621475219727 2.318472385406494 C 20.86621475219727 3.598932266235352 19.82819557189941 4.636942386627197 18.54774475097656 4.636942386627197 L 2.318466186523438 4.636942386627197 C 1.038015365600586 4.636942386627197 -3.814697265625e-06 3.598932266235352 -3.814697265625e-06 2.318472385406494 C -3.814697265625e-06 1.038012504577637 1.038015365600586 2.384185791015625e-06 2.318466186523438 2.384185791015625e-06 Z" stroke="none" fill="#5287f5"/></g><g transform="translate(967.991 380.5)" fill="#5287f5"><path d="M 18.54774475097656 4.136942386627197 L 2.3184654712677 4.136942386627197 C 1.315755486488342 4.136942386627197 0.4999954700469971 3.321182489395142 0.4999954700469971 2.318472385406494 C 0.4999954700469971 1.315762400627136 1.315755486488342 0.500002384185791 2.3184654712677 0.500002384185791 L 18.54774475097656 0.500002384185791 C 19.55045509338379 0.500002384185791 20.36621475219727 1.315762400627136 20.36621475219727 2.318472385406494 C 20.36621475219727 3.321182489395142 19.55045509338379 4.136942386627197 18.54774475097656 4.136942386627197 Z" stroke="none"/><path d="M 2.318466186523438 1.000002384185791 C 1.591455459594727 1.000002384185791 0.9999961853027344 1.591462373733521 0.9999961853027344 2.318472385406494 C 0.9999961853027344 3.045482397079468 1.591455459594727 3.636942386627197 2.318466186523438 3.636942386627197 L 18.54774475097656 3.636942386627197 C 19.27475547790527 3.636942386627197 19.86621475219727 3.045482397079468 19.86621475219727 2.318472385406494 C 19.86621475219727 1.591462373733521 19.27475547790527 1.000002384185791 18.54774475097656 1.000002384185791 L 2.318466186523438 1.000002384185791 M 2.318466186523438 2.384185791015625e-06 L 18.54774475097656 2.384185791015625e-06 C 19.82819557189941 2.384185791015625e-06 20.86621475219727 1.038012504577637 20.86621475219727 2.318472385406494 C 20.86621475219727 3.598932266235352 19.82819557189941 4.636942386627197 18.54774475097656 4.636942386627197 L 2.318466186523438 4.636942386627197 C 1.038015365600586 4.636942386627197 -3.814697265625e-06 3.598932266235352 -3.814697265625e-06 2.318472385406494 C -3.814697265625e-06 1.038012504577637 1.038015365600586 2.384185791015625e-06 2.318466186523438 2.384185791015625e-06 Z" stroke="none" fill="#5287f5"/></g><g transform="translate(972.035 377.977) rotate(-31)"><path d="M5.515,12.752c-.054-.072-.073-.093-.086-.116-.383-.664-.762-1.33-1.15-1.991a2.287,2.287,0,0,0-3.1-.848,2.266,2.266,0,0,0-.9,3.078q2.041,3.569,4.121,7.115a9.568,9.568,0,0,0,2.2,2.639,6.406,6.406,0,0,0,3.86,1.486c1.1.042,2.2.014,3.3,0a6.867,6.867,0,0,0,1.058-.087A6.515,6.515,0,0,0,20.3,17.655c.028-2.439.018-4.878,0-7.317a2.28,2.28,0,0,0-3.373-2.015c-.043.022-.089.038-.142.06A2.309,2.309,0,0,0,13.1,7.392a2.356,2.356,0,0,0-3.006-.71c0-.139,0-.254,0-.369-.005-1.4.022-2.809-.025-4.211A2.24,2.24,0,0,0,7.718,0a2.291,2.291,0,0,0-2.2,2.27q0,4.874,0,9.749Z" transform="translate(-0.342 -1.372)" fill="#efefef" stroke="#185be6" stroke-width="1"/></g><g transform="translate(959 363.5)" fill="#185be6" stroke="#5287f5" stroke-width="1"><circle cx="3.5" cy="3.5" r="3.5" stroke="none"/><circle cx="3.5" cy="3.5" r="3" fill="none"/></g><g transform="translate(959 371.5)" fill="none" stroke="#5287f5" stroke-width="1"><circle cx="3.5" cy="3.5" r="3.5" stroke="none"/><circle cx="3.5" cy="3.5" r="3" fill="none"/></g><g transform="translate(959 379.5)" fill="#185be6" stroke="#5287f5" stroke-width="1"><circle cx="3.5" cy="3.5" r="3.5" stroke="none"/><circle cx="3.5" cy="3.5" r="3" fill="none"/></g></g></svg>