<svg xmlns="http://www.w3.org/2000/svg" width="20.697" height="28.688" viewBox="0 0 20.697 28.688"><g transform="translate(280.367 -274)"><path d="M-270.356,356.1c-2.176,0-4.352.006-6.529,0a2.519,2.519,0,0,1-2.6-1.769,2.217,2.217,0,0,1-.111-.629c-.008-2.033-.066-1.213.009-3.243,0-5.528,6.893-6.505,8.237-6.594.457-.03.915-.053,1.372-.062" transform="translate(0 -55.023)" fill="none" stroke="#5287f5" stroke-linecap="round" stroke-miterlimit="10" stroke-width="1.5"/><path d="M-229.34,346.329a11.737,11.737,0,0,0-6.423-2.469c-.457-.03-.915-.053-1.372-.062" transform="translate(-33.492 -55.023)" fill="none" stroke="#5287f5" stroke-linecap="round" stroke-miterlimit="10" stroke-width="1.5"/><g transform="translate(-12.838)" fill="none" stroke-linecap="round" stroke-miterlimit="10"><path d="M-257.122,274a6.2,6.2,0,0,1,6.205,6.215,6.22,6.22,0,0,1-6.232,6.2,6.22,6.22,0,0,1-6.186-6.208A6.2,6.2,0,0,1-257.122,274Z" stroke="none"/><path d="M -257.1256103515625 275.5 C -258.3881225585938 275.5 -259.5723266601563 275.988525390625 -260.4600524902344 276.8755798339844 C -261.3473510742188 277.7621765136719 -261.8356628417969 278.9443664550781 -261.8350524902344 280.2044067382813 C -261.8338928222656 282.7869262695313 -259.7279663085938 284.899169921875 -257.1405944824219 284.9129028320313 L -257.1152954101563 284.9129943847656 C -254.52783203125 284.9129943847656 -252.4200134277344 282.8045043945313 -252.4166259765625 280.2127990722656 C -252.4149169921875 278.950439453125 -252.9022216796875 277.7662353515625 -253.7887268066406 276.8783264160156 C -254.6753845214844 275.9902954101563 -255.8594055175781 275.5007934570313 -257.1217041015625 275.5 L -257.1256103515625 275.5 M -257.1256103515625 274 C -257.1241455078125 274 -257.1231689453125 274 -257.1217041015625 274 C -253.6812133789063 274.0021362304688 -250.9119873046875 276.7755737304688 -250.9166259765625 280.2148132324219 C -250.9210510253906 283.6275329589844 -253.710693359375 286.4129943847656 -257.1152954101563 286.4129943847656 C -257.1265563964844 286.4129943847656 -257.1373291015625 286.4129638671875 -257.1485900878906 286.4129028320313 C -260.5658264160156 286.3947143554688 -263.3335266113281 283.617431640625 -263.3350524902344 280.205078125 C -263.3367309570313 276.7702941894531 -260.5638732910156 274 -257.1256103515625 274 Z" stroke="none" fill="#5287f5"/></g><line x2="7.135" transform="translate(-267.554 298.37)" fill="none" stroke="#5287f5" stroke-linecap="round" stroke-miterlimit="10" stroke-width="1.5"/><line y2="7.135" transform="translate(-263.987 294.803)" fill="none" stroke="#5287f5" stroke-linecap="round" stroke-miterlimit="10" stroke-width="1.5"/></g></svg>