<svg xmlns="http://www.w3.org/2000/svg" width="45" height="45" viewBox="0 0 45 45"><g fill="#9abede" stroke="#3071a9" stroke-width="1.5"><rect width="45" height="45" rx="4" stroke="none"/><rect x="0.75" y="0.75" width="43.5" height="43.5" rx="3.25" fill="none"/></g><g transform="translate(10.598 10.766)"><path d="M11.814,0A11.814,11.814,0,1,0,23.629,11.814,11.827,11.827,0,0,0,11.814,0Zm0,21.8A9.984,9.984,0,1,1,21.8,11.814,10,10,0,0,1,11.814,21.8Z" fill="#fff" stroke="#fff" stroke-width="1"/><g transform="translate(6.324 6.241)"><path d="M147.089,139.814h-3.661v-3.661a.915.915,0,0,0-1.83,0v3.661h-3.661a.915.915,0,0,0,0,1.83H141.6V145.3a.915.915,0,1,0,1.83,0v-3.661h3.661a.915.915,0,1,0,0-1.83Z" transform="translate(-137.022 -135.238)" fill="#fff" stroke="#fff" stroke-width="1"/></g></g></svg>