<svg xmlns="http://www.w3.org/2000/svg" width="24.958" height="20.109" viewBox="0 0 24.958 20.109"><g transform="translate(-953.974 -363.764)"><g transform="translate(954.002 364)"><g transform="translate(-0.002 -0.236)" fill="none" stroke="#5287f5" stroke-width="1"><rect width="10" height="10" rx="2" stroke="none"/><rect x="0.5" y="0.5" width="9" height="9" rx="1.5" fill="none"/></g><path d="M12.045,5.225H22.787" transform="translate(0.893)" fill="none" stroke="#5287f5" stroke-linecap="round" stroke-width="2.5"/><path d="M12.045,5.225H22.787" transform="translate(0.893 11)" fill="none" stroke="#5287f5" stroke-linecap="round" stroke-width="2.5"/></g><path d="M6.2,12.156a.533.533,0,0,1-.754,0L2.442,9.146a.8.8,0,0,1,0-1.131l.377-.377a.8.8,0,0,1,1.131,0L5.828,9.518l5.077-5.077a.8.8,0,0,1,1.131,0l.377.377a.8.8,0,0,1,0,1.131Z" transform="translate(951.767 371.56)" fill="#5287f5"/></g></svg>