<svg xmlns="http://www.w3.org/2000/svg" width="23.886" height="24.041" viewBox="0 0 23.886 24.041"><g transform="translate(-692.439 -338.387)"><path d="M150.548,297.8c0,.4-.328.623-.6.521a2.523,2.523,0,0,1-.317-.16q-1.1-.59-2.189-1.183a1.251,1.251,0,0,1-.252-.161.428.428,0,0,1-.086-.57.4.4,0,0,1,.523-.168,2.162,2.162,0,0,1,.294.145c.762.411,1.528.815,2.282,1.241A1.678,1.678,0,0,1,150.548,297.8Z" transform="translate(545.671 48.295)" stroke="#000" stroke-width="0.5"/><path d="M420.176,298.653c-.1-.08-.268-.157-.315-.282a.827.827,0,0,1,.051-.453c.015-.057.1-.1.163-.138q1.273-.692,2.549-1.379a.412.412,0,0,1,.53.035.577.577,0,0,1,.141.409.523.523,0,0,1-.246.33c-.843.47-1.7.924-2.548,1.379A2.025,2.025,0,0,1,420.176,298.653Z" transform="translate(292.777 48.038)" stroke="#000" stroke-width="0.5"/><path d="M209.475,235.183c-.1.118-.181.291-.307.335a.746.746,0,0,1-.451-.069c-.072-.026-.117-.134-.166-.211q-.717-1.118-1.429-2.239a1.143,1.143,0,0,1-.125-.242.4.4,0,0,1,.168-.5.405.405,0,0,1,.546.075,1.109,1.109,0,0,1,.131.174c.487.761.975,1.522,1.458,2.286A3.193,3.193,0,0,1,209.475,235.183Z" transform="translate(492.167 106.466)" stroke="#000" stroke-width="0.5"/><path d="M376.7,237.319c-.415,0-.6-.326-.447-.633a5.811,5.811,0,0,1,.339-.53c.428-.648.855-1.3,1.289-1.94a.426.426,0,0,1,.564-.2.407.407,0,0,1,.242.472.5.5,0,0,1-.082.2c-.523.793-1.043,1.588-1.58,2.372A1.209,1.209,0,0,1,376.7,237.319Z" transform="translate(331.178 104.806)" stroke="#000" stroke-width="0.5"/><path d="M-402.865,308.373h-1.268a1.44,1.44,0,0,1-1.494-1.253,3.083,3.083,0,0,1-.042-.5c-.005-.546-.019-1.094,0-1.64a3.237,3.237,0,0,0-1.28-2.721,6.564,6.564,0,0,1-1.878-2.406,6.534,6.534,0,0,1,3.424-8.668,6.465,6.465,0,0,1,8.955,4.911,6.16,6.16,0,0,1-2.273,6.075,3.468,3.468,0,0,0-1.356,2.871c.011.619,0,1.239,0,1.858a1.43,1.43,0,0,1-1.48,1.471C-401.99,308.375-402.427,308.373-402.865,308.373Zm1.852-3.739c.032-.2.052-.383.091-.56a4.943,4.943,0,0,1,1.716-2.716,5.276,5.276,0,0,0,1.815-5.288,5.515,5.515,0,0,0-6.432-4.405,5.686,5.686,0,0,0-4.491,6.789,5.366,5.366,0,0,0,1.945,3.074,4.082,4.082,0,0,1,1.506,2.244c.071.279.1.568.152.862Zm.005.952h-3.7c0,.483-.017.955.007,1.424a.4.4,0,0,0,.413.426q1.419.013,2.839,0a.4.4,0,0,0,.439-.421C-401,306.545-401.007,306.073-401.007,305.587Z" transform="translate(1107.02 53.805)" stroke="#000" stroke-width="0.5"/></g></svg>