<svg xmlns="http://www.w3.org/2000/svg" width="30.202" height="25.857" viewBox="0 0 30.202 25.857"><g transform="translate(685.694 -123.193)"><path d="M-655.492,132.472c-.039.274-.087.547-.114.822-.238,2.38-.463,4.762-.711,7.141a2.182,2.182,0,0,1-2.342,2.1q-6.657,0-13.314,0a2.523,2.523,0,0,1-2.556-1.965q-2.048-7.4-4.106-14.792c-.189-.681-.355-.8-1.049-.8q-2.5,0-5,0a.915.915,0,0,1-.973-.633.888.888,0,0,1,.905-1.14q2.618-.008,5.236,0a2.534,2.534,0,0,1,2.535,1.922q.662,2.342,1.323,4.685c.034.12.078.238.1.3h15.125c.957,0,1.915-.007,2.872,0a1.936,1.936,0,0,1,2.019,1.523.284.284,0,0,0,.049.071Zm-19.086,1.129q.868,3.216,1.738,6.431c.154.57.359.726.957.726h13.137c.538,0,.634-.1.686-.634q.341-3.482.691-6.964c.033-.337.059-.675.093-1.013.019-.19-.055-.285-.251-.275-.06,0-.12,0-.179,0h-17.331C-674.879,132.47-674.73,133.036-674.578,133.6Z" transform="translate(0 0)" fill="#5287f5"/><path d="M-599.632,252.439a2.762,2.762,0,0,1,2.786,2.759,2.769,2.769,0,0,1-2.742,2.747,2.751,2.751,0,0,1-2.763-2.748A2.744,2.744,0,0,1-599.632,252.439Zm1.01,2.755a.975.975,0,0,0-.984-.982.987.987,0,0,0-.982.959.981.981,0,0,0,.974.995A.971.971,0,0,0-598.622,255.193Z" transform="translate(-70.219 -108.894)" fill="#5287f5"/><path d="M-544.156,252.439a2.759,2.759,0,0,1,2.782,2.761,2.765,2.765,0,0,1-2.743,2.744,2.754,2.754,0,0,1-2.762-2.75A2.747,2.747,0,0,1-544.156,252.439Zm1.01,2.746a.979.979,0,0,0-.966-.973.985.985,0,0,0-1,.968.98.98,0,0,0,.983.986A.976.976,0,0,0-543.146,255.184Z" transform="translate(-116.956 -108.894)" fill="#5287f5"/></g></svg>