<svg xmlns="http://www.w3.org/2000/svg" width="27" height="27" viewBox="0 0 27 27"><g transform="translate(-1171 -606)"><g transform="translate(-34 -458)"><g transform="translate(1204.993 1064.161)"><g transform="translate(0.007 -0.161)" fill="#d9e6ff" stroke="#94b7ff" stroke-width="1"><rect width="27" height="27" rx="2" stroke="none"/><rect x="0.5" y="0.5" width="26" height="26" rx="1.5" fill="none"/></g></g></g><g transform="translate(-0.893 -0.486)"><g transform="translate(1177.791 611.297)"><path d="M-1997.443,83.021h10.335a.835.835,0,0,1,.911.721V99.549a.835.835,0,0,1-.911.721h-14.151a.836.836,0,0,1-.911-.721l.089-12.577Z" transform="translate(2002.17 -83.021)" fill="none" stroke="#5287f5" stroke-linecap="round" stroke-miterlimit="10" stroke-width="1"/><path d="M-1961.117,83.021v2.956a.82.82,0,0,1-.856.778h-3.165" transform="translate(1965.452 -82.505)" fill="#5287f5" stroke="#5287f5" stroke-linecap="round" stroke-miterlimit="10" stroke-width="1"/></g><g transform="translate(1181.631 618.51)"><path d="M21033.418-1790.485h8.053" transform="translate(-21033.418 1790.485)" fill="none" stroke="#5287f5" stroke-linecap="round" stroke-width="1"/><path d="M21033.418-1790.485h8.053" transform="translate(-21033.418 1793.965)" fill="none" stroke="#5287f5" stroke-linecap="round" stroke-width="1"/><path d="M21033.418-1790.485h5.055" transform="translate(-21033.418 1797.445)" fill="none" stroke="#5287f5" stroke-linecap="round" stroke-width="1"/></g></g></g></svg>