<svg xmlns="http://www.w3.org/2000/svg" width="45" height="45" viewBox="0 0 45 45"><g transform="translate(-1181 -204)"><g transform="translate(1180.847 204)"><g transform="translate(0 0)" opacity="0.3"><g transform="translate(0.153 0)" fill="#5287f5" stroke="#03f" stroke-width="1.5"><rect width="45" height="45" rx="4" stroke="none"/><rect x="0.75" y="0.75" width="43.5" height="43.5" rx="3.25" fill="none"/></g></g></g><g transform="translate(1361.847 451)"><path d="M9070,2596.3v28.362l3.778-2.389,3.389,2.389,3.5-2.389,3.777,2.389,6.778-4.444.444-23.918-3.667,2.2-3.556-2.5-3.777,2.5-3.5-2.5-3.389,2.5Z" transform="translate(-9242.847 -2835)" fill="none" stroke="#5287f5" stroke-linecap="round" stroke-linejoin="round" stroke-width="1"/><path d="M9132,2726.4h14.778" transform="translate(-9301.402 -2958.153)" fill="none" stroke="#5287f5" stroke-linecap="round" stroke-width="1"/><path d="M9132,2726.4h14.778" transform="translate(-9301.402 -2954.653)" fill="none" stroke="#5287f5" stroke-linecap="round" stroke-width="1"/><path d="M9132,2726.4h14.778" transform="translate(-9301.402 -2950.986)" fill="none" stroke="#5287f5" stroke-linecap="round" stroke-width="1"/><path d="M9132,2726.4h11.556" transform="translate(-9301.402 -2947.486)" fill="none" stroke="#5287f5" stroke-linecap="round" stroke-width="1"/><path d="M9132,2726.4h10.39" transform="translate(-9301.402 -2943.986)" fill="none" stroke="#5287f5" stroke-linecap="round" stroke-width="1"/><g transform="translate(-160.014 -224.667)" fill="#cadafb" stroke="#5287f5" stroke-width="1"><circle cx="7" cy="7" r="7" stroke="none"/><circle cx="7" cy="7" r="6.5" fill="none"/></g><g transform="translate(-157.085 -224.537)"><path d="M7.426,14.584a.7.7,0,0,1-.984,0L2.513,10.655a1.043,1.043,0,0,1,0-1.476l.492-.492a1.043,1.043,0,0,1,1.476,0L6.934,11.14l6.627-6.627a1.043,1.043,0,0,1,1.476,0L15.529,5a1.043,1.043,0,0,1,0,1.476Z" transform="translate(-2.208 -4.207)" fill="#578af5"/></g></g></g></svg>