<svg id="delete-ic" xmlns="http://www.w3.org/2000/svg" width="13.256" height="15.157" viewBox="0 0 13.256 15.157">
  <path id="Path_50" data-name="Path 50" d="M971.214,286.812h-5.3a2.861,2.861,0,0,1-2.857-2.857v-7.58h1.37v7.58a1.489,1.489,0,0,0,1.488,1.488h5.3a1.489,1.489,0,0,0,1.488-1.488v-7.58h1.37v7.58A2.861,2.861,0,0,1,971.214,286.812Z" transform="translate(-961.936 -271.655)" fill="#f30000"/>
  <path id="Path_51" data-name="Path 51" d="M997.16,210.883h-1.37V209.5a.663.663,0,0,0-.662-.662h-3.287a.663.663,0,0,0-.662.662v1.379h-1.37V209.5a2.034,2.034,0,0,1,2.032-2.032h3.287a2.034,2.034,0,0,1,2.032,2.032Z" transform="translate(-986.856 -207.472)" fill="#f30000"/>
  <rect id="Rectangle_29" data-name="Rectangle 29" width="13.256" height="1.37" transform="translate(0 2.726)" fill="#f30000"/>
</svg>
