<svg id="Delete-small" xmlns="http://www.w3.org/2000/svg" width="27" height="27" viewBox="0 0 27 27">
  <g id="Group_38" data-name="Group 38" transform="translate(-0.007 0.161)" opacity="0.3">
    <rect id="Rectangle_11" data-name="Rectangle 11" width="27" height="27" rx="2" transform="translate(0.007 -0.161)" fill="#ff8d8d"/>
  </g>
  <g id="Group_43" data-name="Group 43" transform="translate(-940.702 -202.472)">
    <path id="Path_50" data-name="Path 50" d="M972.048,287.878h-5.842a3.153,3.153,0,0,1-3.149-3.149v-8.355h1.51v8.355a1.641,1.641,0,0,0,1.64,1.64h5.842a1.642,1.642,0,0,0,1.64-1.64v-8.355h1.51v8.355A3.153,3.153,0,0,1,972.048,287.878Z" transform="translate(-15.119 -63.7)" fill="#f30000"/>
    <path id="Path_51" data-name="Path 51" d="M997.911,211.232H996.4v-1.52a.731.731,0,0,0-.73-.73h-3.622a.731.731,0,0,0-.73.73v1.52h-1.51v-1.52a2.242,2.242,0,0,1,2.24-2.24h3.622a2.242,2.242,0,0,1,2.24,2.24Z" transform="translate(-39.853)" fill="#f30000"/>
    <rect id="Rectangle_29" data-name="Rectangle 29" width="14.61" height="1.51" transform="translate(946.702 210.477)" fill="#f30000"/>
  </g>
</svg>
