<svg xmlns="http://www.w3.org/2000/svg" width="27" height="27" viewBox="0 0 27 27"><g transform="translate(-0.007 0.161)" opacity="0.3"><rect width="27" height="27" rx="4" transform="translate(0.007 -0.161)" fill="#ff8d8d"/></g><path d="M972.048,287.878h-5.842a3.153,3.153,0,0,1-3.149-3.149v-8.355h1.51v8.355a1.641,1.641,0,0,0,1.64,1.64h5.842a1.642,1.642,0,0,0,1.64-1.64v-8.355h1.51v8.355A3.153,3.153,0,0,1,972.048,287.878Z" transform="translate(-955.821 -266.172)" fill="#f30000"/><path d="M997.911,211.232H996.4v-1.52a.731.731,0,0,0-.73-.73h-3.622a.731.731,0,0,0-.73.73v1.52h-1.51v-1.52a2.242,2.242,0,0,1,2.24-2.24h3.622a2.242,2.242,0,0,1,2.24,2.24Z" transform="translate(-980.555 -202.472)" fill="#f30000"/><rect width="14.61" height="1.51" transform="translate(6 8.005)" fill="#f30000"/></svg>