<svg xmlns="http://www.w3.org/2000/svg" width="26.049" height="26.05" viewBox="0 0 26.049 26.05"><path d="M-523.5,134.1c.079-.406.139-.817.24-1.217a6.83,6.83,0,0,1,1.772-3.159c.987-1.007,1.99-2,2.988-2.994a.736.736,0,0,1,1.14.006c.781.775,2.451,2.469,2.517,2.547.084-.079.144-.131.2-.187q4.625-4.625,9.253-9.247a.456.456,0,0,0,.15-.464,6.253,6.253,0,0,1,.376-3.78,4.866,4.866,0,0,1,.967-1.4.727.727,0,0,1,1.1-.017q2.054,2.044,4.1,4.1a.729.729,0,0,1-.034,1.12,5.336,5.336,0,0,1-4,1.45,9.516,9.516,0,0,1-1.213-.132.363.363,0,0,0-.364.109q-2.943,2.953-5.893,5.9l-3.644,3.642s1.793,1.672,2.564,2.446a.754.754,0,0,1,.005,1.21q-1.417,1.419-2.836,2.835a7.109,7.109,0,0,1-4.363,2.087.739.739,0,0,0-.136.042h-1.174a1.049,1.049,0,0,0-.162-.042,6.567,6.567,0,0,1-2.4-.7,1,1,0,0,1-.416-.417,6.566,6.566,0,0,1-.442-1.133c-.13-.468-.2-.952-.3-1.429Zm7.609-3.766-2.044-2.042c-.875.862-1.8,1.68-2.617,2.6a5.541,5.541,0,0,0-1.091,5.878.551.551,0,0,0,.376.37,5.616,5.616,0,0,0,6.1-1.293c.788-.743,1.537-1.529,2.3-2.3a1.014,1.014,0,0,0,.073-.085l-2.074-2.1Zm12.6-14.528a.551.551,0,0,0-.052.063,4.574,4.574,0,0,0-.447,3.282.231.231,0,0,0,.158.133,4.876,4.876,0,0,0,2.412-.089c.317-.1.616-.253.933-.385Z" transform="translate(524 -113.444)" fill="#629c44" stroke="#629c44" stroke-width="1"/></svg>