<svg xmlns="http://www.w3.org/2000/svg" width="21.966" height="21.965" viewBox="0 0 21.966 21.965">
  <g id="edit-ic" transform="translate(0 -0.501)">
    <path id="Path_44" data-name="Path 44" d="M17.39,93.138a.915.915,0,0,0-.915.915v7.322a.916.916,0,0,1-.915.915H2.746a.916.916,0,0,1-.915-.915V88.562a.916.916,0,0,1,.915-.915h7.322a.915.915,0,0,0,0-1.831H2.746A2.749,2.749,0,0,0,0,88.562v12.814a2.749,2.749,0,0,0,2.746,2.746H15.559a2.749,2.749,0,0,0,2.746-2.746V94.053a.915.915,0,0,0-.915-.915Zm0,0" transform="translate(0 -81.655)" fill="#4e4e4e"/>
    <path id="Path_45" data-name="Path 45" d="M182.59,75.5a.463.463,0,0,0-.125.233l-.647,3.236a.457.457,0,0,0,.449.547.436.436,0,0,0,.09-.009l3.235-.647a.456.456,0,0,0,.234-.126l7.241-7.241-3.235-3.235Zm0,0" transform="translate(-174.008 -64.854)" fill="#4e4e4e"/>
    <path id="Path_46" data-name="Path 46" d="M395.948,1.17a2.29,2.29,0,0,0-3.235,0l-1.267,1.267,3.235,3.235,1.267-1.267a2.288,2.288,0,0,0,0-3.235Zm0,0" transform="translate(-374.651)" fill="#4e4e4e"/>
  </g>
</svg>
