<svg xmlns="http://www.w3.org/2000/svg" width="15.915" height="15.915" viewBox="0 0 15.915 15.915"><g transform="translate(298.687 -245.54)"><path d="M-298.687,264.437a5.168,5.168,0,0,1,.265-.838,2.308,2.308,0,0,1,2.119-1.363c1.813-.025,3.626-.01,5.44-.009a.413.413,0,0,1,.443.45c0,.337,0,.674,0,1.01s-.16.5-.508.5h-5.16c-.465,0-.637.172-.637.637q0,4.772,0,9.543c0,.461.178.637.641.637h9.543c.462,0,.634-.174.634-.641q0-2.432,0-4.865c0-.39.145-.538.531-.539.321,0,.643,0,.964,0a.414.414,0,0,1,.464.446c0,1.736.01,3.471-.006,5.207a2.439,2.439,0,0,1-2.054,2.317c-.05.007-.1.023-.149.036H-296.48a.505.505,0,0,0-.086-.03,2.4,2.4,0,0,1-1.9-1.441,5.333,5.333,0,0,1-.22-.737Z" transform="translate(0 -15.51)" fill="#5287f5"/><path d="M-198,247.5h-.148c-.44,0-.881,0-1.321,0a.414.414,0,0,1-.447-.446q-.006-.528,0-1.057a.421.421,0,0,1,.458-.454q2.2,0,4.4,0a.419.419,0,0,1,.453.459q0,2.191,0,4.383a.424.424,0,0,1-.461.467q-.521,0-1.041,0a.417.417,0,0,1-.456-.454c0-.486,0-.973,0-1.5-.068.064-.111.1-.152.144l-5.539,5.538c-.29.29-.486.29-.776,0l-.627-.626a.446.446,0,0,1,0-.744q2.78-2.78,5.562-5.559a.566.566,0,0,1,.152-.078Z" transform="translate(-88.162 0)" fill="#5287f5"/></g></svg>