<svg xmlns="http://www.w3.org/2000/svg" width="25.5" height="18.75" viewBox="0 0 25.5 18.75"><g transform="translate(0.375 0.375)"><path d="M22.5,0H2.25A2.25,2.25,0,0,0,0,2.25v13.5A2.25,2.25,0,0,0,2.25,18H22.5a2.25,2.25,0,0,0,2.25-2.25V2.25A2.25,2.25,0,0,0,22.5,0ZM2.25,1.125H22.5a1.125,1.125,0,0,1,.377.068L13.14,10.929a1.074,1.074,0,0,1-1.524,0L1.873,1.192A1.125,1.125,0,0,1,2.25,1.125ZM1.125,15.75V2.25a1.125,1.125,0,0,1,0-.2L8.089,9,1.125,15.947A1.125,1.125,0,0,1,1.125,15.75ZM22.5,16.875H2.25a1.125,1.125,0,0,1-.377-.068L8.887,9.793l1.929,1.929a2.2,2.2,0,0,0,3.116,0l1.929-1.929,7.014,7.014A1.125,1.125,0,0,1,22.5,16.875Zm1.125-1.125a1.125,1.125,0,0,1,0,.2L16.661,9l6.964-6.947a1.125,1.125,0,0,1,0,.2Z" fill="#5287f5" stroke="#5287f5" stroke-width="0.75"/></g></svg>