<svg xmlns="http://www.w3.org/2000/svg" width="27" height="27" viewBox="0 0 27 27"><g transform="translate(-1157 -511)"><g transform="translate(1156.993 511.161)" opacity="0.3"><rect width="27" height="27" rx="2" transform="translate(0.007 -0.161)" fill="#5287f5"/></g><g transform="translate(4.469 -284.114)"><g transform="translate(-19 189)"><g transform="translate(1175.531 613.114)"><path d="M17.216,0H1.722A1.722,1.722,0,0,0,0,1.722v10.33a1.722,1.722,0,0,0,1.722,1.722H17.216a1.722,1.722,0,0,0,1.722-1.722V1.722A1.722,1.722,0,0,0,17.216,0ZM1.722.861H17.216A.861.861,0,0,1,17.5.912l-7.45,7.45a.822.822,0,0,1-1.166,0L1.433.912A.861.861,0,0,1,1.722.861ZM.861,12.051V1.722a.861.861,0,0,1,0-.151L6.189,6.886.861,12.2A.861.861,0,0,1,.861,12.051Zm16.355.861H1.722a.861.861,0,0,1-.288-.052L6.8,7.493,8.277,8.97a1.683,1.683,0,0,0,2.384,0l1.476-1.476L17.5,12.86A.861.861,0,0,1,17.216,12.912Zm.861-.861a.861.861,0,0,1,0,.151L12.749,6.886l5.328-5.315a.861.861,0,0,1,0,.151Z" fill="#5286f5" stroke="#5286f5" stroke-width="0.5"/></g></g></g></g></svg>