<svg xmlns="http://www.w3.org/2000/svg" width="25.016" height="26.397" viewBox="0 0 25.016 26.397">
  <g id="Union_25" data-name="Union 25" transform="translate(-178.454 -192.379)" fill="none" stroke-miterlimit="10">
    <path d="M188.969,216.936a6.111,6.111,0,0,0-5.193.347.131.131,0,0,1-.2-.151c.863-2.1,4.334-1.985,5.055-1.938a.13.13,0,0,0,.141-.116l.806-8.451a.147.147,0,0,0,0-.029,5.444,5.444,0,0,0-1.81-2.722c-.114-.1.027-.276.162-.2a13.869,13.869,0,0,1,2.069,1.6.135.135,0,0,0,.225-.075l.448-3.518a.134.134,0,0,1,.264,0l.452,3.55a.135.135,0,0,0,.214.084l1.666-1.234c.12-.089.281.054.191.171a7.413,7.413,0,0,0-1.222,2.336.16.16,0,0,0,0,.037l.607,9.263a.128.128,0,0,0,.084.111,6.917,6.917,0,0,0,4.695-.088.129.129,0,0,1,.165.178c-.735,1.216-2.234,1.682-4,1.682A16.708,16.708,0,0,1,188.969,216.936Zm10.806-5.249a7.832,7.832,0,0,1-4.314-1.865,6.931,6.931,0,0,1-1.852-4.118.13.13,0,0,1,.148-.135,7.847,7.847,0,0,1,4.314,1.865,6.942,6.942,0,0,1,1.852,4.118.128.128,0,0,1-.132.136Zm-18.338-.135a6.936,6.936,0,0,1,1.852-4.118,7.847,7.847,0,0,1,4.314-1.865.13.13,0,0,1,.148.135,6.932,6.932,0,0,1-1.852,4.118,7.832,7.832,0,0,1-4.314,1.865h-.017A.128.128,0,0,1,181.437,211.552Zm13.832-7.9a.121.121,0,0,1-.052-.188,5.872,5.872,0,0,1,2.974-2.008,6.317,6.317,0,0,1,3.783.45,5.948,5.948,0,0,1-3.069,2.132,4.754,4.754,0,0,1-1.133.131A6.807,6.807,0,0,1,195.269,203.656Zm-12.814.386a5.883,5.883,0,0,1-2.975-2.008.122.122,0,0,1,.052-.189,6.229,6.229,0,0,1,3.637-.385,5.872,5.872,0,0,1,2.974,2.008.121.121,0,0,1-.052.188,6.813,6.813,0,0,1-2.5.518A4.754,4.754,0,0,1,182.455,204.042Zm9.989-1.863a6.934,6.934,0,0,1,1.839-4.123,7.835,7.835,0,0,1,4.308-1.875.128.128,0,0,1,.148.134,6.932,6.932,0,0,1-1.839,4.122,7.831,7.831,0,0,1-4.308,1.876h-.017A.128.128,0,0,1,192.444,202.179Zm-3.676.134a7.835,7.835,0,0,1-4.309-1.876,6.939,6.939,0,0,1-1.839-4.122.129.129,0,0,1,.149-.134,7.838,7.838,0,0,1,4.308,1.875,6.941,6.941,0,0,1,1.839,4.123.129.129,0,0,1-.132.135Zm1.811-2.792a4.365,4.365,0,0,1,.045-6.1.138.138,0,0,1,.207,0,4.365,4.365,0,0,1-.045,6.1.138.138,0,0,1-.207,0Z" stroke="none"/>
    <path d="M 193.7841339111328 217.7760772705078 C 195.5539398193359 217.7760772705078 197.0527038574219 217.3103179931641 197.7877197265625 216.0945739746094 C 197.8401489257813 216.0072937011719 197.7673797607422 215.9071044921875 197.6722106933594 215.9071044921875 C 197.6562042236328 215.9071044921875 197.6395568847656 215.9099426269531 197.6227722167969 215.9161529541016 C 197.1469116210938 216.0929718017578 196.1978607177734 216.3804779052734 195.0612030029297 216.3804779052734 C 194.3954010009766 216.3804779052734 193.6651306152344 216.2817840576172 192.9281311035156 216.00439453125 C 192.8797454833984 215.9857635498047 192.8471374511719 215.942626953125 192.8441772460938 215.8936157226563 L 192.2367248535156 206.6310882568359 C 192.2367248535156 206.6183471679688 192.2377166748047 206.6065673828125 192.2406768798828 206.5938262939453 C 192.2821655273438 206.4438323974609 192.5913238525391 205.4017028808594 193.4624938964844 204.2576141357422 C 193.5327301025391 204.1664428710938 193.4503784179688 204.0591278076172 193.353515625 204.0591278076172 C 193.3264312744141 204.0591278076172 193.2982025146484 204.0675201416016 193.2718658447266 204.0870208740234 L 191.6055755615234 205.3213043212891 C 191.5805969238281 205.3395233154297 191.5520782470703 205.3478240966797 191.5241241455078 205.3478240966797 C 191.4602813720703 205.3478240966797 191.3994750976563 205.3045043945313 191.3912353515625 205.2370147705078 L 190.9388580322266 201.6871032714844 C 190.9294891357422 201.6135711669922 190.8682403564453 201.5768127441406 190.8070068359375 201.5768127441406 C 190.7457733154297 201.5768127441406 190.6845245361328 201.6135711669922 190.6751403808594 201.6871032714844 L 190.2267150878906 205.2046508789063 C 190.2182312011719 205.2726440429688 190.1571807861328 205.3149719238281 190.0939331054688 205.3149719238281 C 190.0614318847656 205.3149719238281 190.0283355712891 205.3037872314453 190.0015106201172 205.2791595458984 C 189.6163024902344 204.9262237548828 188.7204437255859 204.1360626220703 187.9322357177734 203.67724609375 C 187.9084167480469 203.6634368896484 187.8844604492188 203.6574096679688 187.8617401123047 203.6574096679688 C 187.7554168701172 203.6574096679688 187.6766510009766 203.7896423339844 187.7702484130859 203.8752746582031 C 188.4369659423828 204.4811401367188 189.4078979492188 205.5272064208984 189.5797729492188 206.5977478027344 C 189.5807495117188 206.6075592041016 189.5817413330078 206.6173553466797 189.5807495117188 206.6271667480469 L 188.7747650146484 215.0779266357422 C 188.7700347900391 215.1435546875 188.7120208740234 215.1939392089844 188.6430511474609 215.1939392089844 C 188.639892578125 215.1939392089844 188.63671875 215.1938323974609 188.6335144042969 215.1936187744141 C 188.5064086914063 215.1853179931641 188.2939300537109 215.1749267578125 188.0252990722656 215.1749267578125 C 186.7699279785156 215.1749267578125 184.2894592285156 215.4020080566406 183.5783538818359 217.1318054199219 C 183.5421295166016 217.2212982177734 183.6171569824219 217.3042297363281 183.7030181884766 217.3042297363281 C 183.7272033691406 217.3042297363281 183.7522583007813 217.2976531982422 183.7759094238281 217.2827911376953 C 184.2319030761719 216.9964447021484 185.1752777099609 216.5454254150391 186.5853881835938 216.5454254150391 C 187.2706146240234 216.5454254150391 188.0662078857422 216.6519927978516 188.9693450927734 216.9357299804688 C 190.5670776367188 217.4371185302734 192.2741241455078 217.7760467529297 193.7838439941406 217.7760772705078 C 193.7839508056641 217.7760772705078 193.7840270996094 217.7760772705078 193.7841339111328 217.7760772705078 M 199.7916564941406 211.6878051757813 C 199.8681335449219 211.6878051757813 199.9296417236328 211.6256561279297 199.9231719970703 211.5515441894531 C 199.8678588867188 210.9780426025391 199.5676116943359 208.8869018554688 198.0711975097656 207.4340057373047 C 196.5738220214844 205.9820709228516 194.3642730712891 205.6389617919922 193.7568359375 205.5693511962891 C 193.7517395019531 205.5688171386719 193.7466888427734 205.5685577392578 193.7416839599609 205.5685577392578 C 193.6644287109375 205.5685577392578 193.6012573242188 205.6309814453125 193.6086730957031 205.7046356201172 C 193.6639862060547 206.2791290283203 193.9632568359375 208.3702697753906 195.4606628417969 209.8221893310547 C 196.9580383300781 211.2750854492188 199.1675872802734 211.6182098388672 199.7750244140625 211.6868438720703 C 199.7806396484375 211.6874847412109 199.7861785888672 211.6878051757813 199.7916564941406 211.6878051757813 M 181.5685119628906 211.6878051757813 C 181.5739898681641 211.6878051757813 181.5795288085938 211.6874847412109 181.5851440429688 211.6868438720703 C 182.1925811767578 211.6182098388672 184.4021301269531 211.2750854492188 185.8995056152344 209.8221893310547 C 187.3968811035156 208.3702697753906 187.6961669921875 206.2791290283203 187.7514801025391 205.7046356201172 C 187.7579803466797 205.6309814453125 187.6956329345703 205.5685577392578 187.6184692382813 205.5685577392578 C 187.6134796142578 205.5685577392578 187.6084289550781 205.5688171386719 187.6033325195313 205.5693511962891 C 186.9958801269531 205.6389617919922 184.7863464355469 205.9820709228516 183.2889709472656 207.4340057373047 C 181.7915649414063 208.8869018554688 181.4922943115234 210.9780426025391 181.4369812011719 211.5515441894531 C 181.4295959472656 211.6256561279297 181.4919128417969 211.6878051757813 181.5685119628906 211.6878051757813 M 197.7720947265625 204.1733245849609 C 198.1391754150391 204.1733093261719 198.5221099853516 204.1358489990234 198.9048309326172 204.0419311523438 C 200.7973175048828 203.5772552490234 201.9736938476563 201.9096374511719 201.9736938476563 201.9096374511719 C 201.9736938476563 201.9096374511719 200.7716522216797 201.3279876708984 199.3248443603516 201.3279876708984 C 198.9574432373047 201.3279876708984 198.573974609375 201.3655548095703 198.1907196044922 201.4596557617188 C 196.6123352050781 201.8468933105469 195.5317840576172 203.0713806152344 195.2166900634766 203.4674530029297 C 195.1653289794922 203.5311584472656 195.1910095214844 203.6233215332031 195.2690277099609 203.6556701660156 C 195.6319274902344 203.8079223632813 196.6254272460938 204.1733551025391 197.7720947265625 204.1733245849609 M 183.5880737304688 204.1733245849609 C 184.7344207763672 204.1733245849609 185.7275085449219 203.8079071044922 186.0911254882813 203.6556701660156 C 186.1691436767578 203.6233215332031 186.1948394775391 203.5311584472656 186.1434783935547 203.4674530029297 C 185.8283843994141 203.0713806152344 184.7478332519531 201.8468933105469 183.1694488525391 201.4596557617188 C 182.7862701416016 201.3657073974609 182.4033508300781 201.3282623291016 182.0360412597656 201.3282623291016 C 180.889404296875 201.3282623291016 179.8962249755859 201.6934509277344 179.5326538085938 201.8449401855469 C 179.4556121826172 201.8772888183594 179.4299163818359 201.9694366455078 179.4803009033203 202.0341339111328 C 179.7953948974609 202.4292297363281 180.8759613037109 203.6537017822266 182.4553070068359 204.0419311523438 C 182.8380584716797 204.1358489990234 183.220947265625 204.1733093261719 183.5879364013672 204.1733245849609 C 183.5879974365234 204.1733245849609 183.5879974365234 204.1733245849609 183.5880737304688 204.1733245849609 M 192.5756683349609 202.3145294189453 C 192.5811462402344 202.3145294189453 192.5867004394531 202.314208984375 192.5923156738281 202.3135375976563 C 193.1997528076172 202.2429656982422 195.4083099365234 201.8939514160156 196.9007568359375 200.4371185302734 C 198.3932037353516 198.9803009033203 198.6865539550781 196.8891754150391 198.7398834228516 196.3146820068359 C 198.7472534179688 196.2406158447266 198.6850433349609 196.1793823242188 198.6085510253906 196.1793823242188 C 198.6030120849609 196.1793823242188 198.5973968505859 196.1797027587891 198.5917358398438 196.1803588867188 C 197.9842834472656 196.2509460449219 195.7757415771484 196.5999755859375 194.2832946777344 198.0558166503906 C 192.7908325195313 199.5126495361328 192.4974975585938 201.604736328125 192.4441528320313 202.1792449951172 C 192.4367828369141 202.2524261474609 192.4990844726563 202.3145294189453 192.5756683349609 202.3145294189453 M 188.7843170166016 202.3145294189453 C 188.860107421875 202.3145294189453 188.9224700927734 202.2524261474609 188.9160003662109 202.1792449951172 C 188.8616790771484 201.604736328125 188.5693206787109 199.5126495361328 187.0768737792969 198.0558166503906 C 185.5844268798828 196.5999755859375 183.3748931884766 196.2509460449219 182.7684326171875 196.1803588867188 C 182.7627716064453 196.1797027587891 182.7571563720703 196.1793823242188 182.7516174316406 196.1793823242188 C 182.6750946044922 196.1793823242188 182.6128540039063 196.2406158447266 182.6192932128906 196.3146820068359 C 182.6736145019531 196.8891754150391 182.9659729003906 198.9803009033203 184.4584197998047 200.4371185302734 C 185.9518585205078 201.8939514160156 188.160400390625 202.2429656982422 188.7678527832031 202.3135375976563 C 188.7733917236328 202.314208984375 188.7788848876953 202.3145294189453 188.7843170166016 202.3145294189453 M 190.6825866699219 199.5690155029297 C 190.720947265625 199.5690155029297 190.7593078613281 199.5535736083984 190.7857666015625 199.5224304199219 C 191.1038055419922 199.14990234375 192.0382080078125 197.9332733154297 192.049072265625 196.4823150634766 C 192.0599212646484 195.0323638916016 191.1433258056641 193.802978515625 190.8311920166016 193.426513671875 C 190.8048248291016 193.3948974609375 190.7659149169922 193.3789672851563 190.7269592285156 193.3789672851563 C 190.6886138916016 193.3789672851563 190.6502380371094 193.3944091796875 190.623779296875 193.425537109375 C 190.3057403564453 193.7980804443359 189.371337890625 195.0147094726563 189.3604736328125 196.4646759033203 C 189.3496246337891 197.9156188964844 190.2662200927734 199.1440124511719 190.5783538818359 199.5214538574219 C 190.6047210693359 199.5530853271484 190.6436462402344 199.5690155029297 190.6825866699219 199.5690155029297 M 193.7841339111328 218.7760772705078 L 193.7838439941406 218.7760772705078 C 191.8911285400391 218.7760314941406 189.9581756591797 218.2941131591797 188.669921875 217.8898468017578 C 187.9423522949219 217.6612701416016 187.2411193847656 217.5454254150391 186.5853881835938 217.5454254150391 C 185.4131317138672 217.5454254150391 184.6551818847656 217.9114685058594 184.3077087402344 218.1296539306641 C 184.1259002685547 218.2438507080078 183.9167785644531 218.3042297363281 183.7030181884766 218.3042297363281 C 183.3243408203125 218.3042755126953 182.971923828125 218.1169891357422 182.7604064941406 217.8032531738281 C 182.5520172119141 217.4941558837891 182.5112609863281 217.1029052734375 182.6513824462891 216.7566680908203 L 182.6524200439453 216.7541351318359 L 182.6534576416016 216.7515869140625 C 183.5436553955078 214.5861663818359 186.2231140136719 214.1999969482422 187.8562316894531 214.1761627197266 L 188.5438842773438 206.9661712646484 C 188.2913513183594 207.9963226318359 187.7499389648438 209.4208374023438 186.5956268310547 210.5401153564453 C 184.8780670166016 212.2066650390625 182.4122467041016 212.5997467041016 181.6974182128906 212.6805267333984 C 181.6554260253906 212.6853179931641 181.6116943359375 212.6878051757813 181.5685119628906 212.6878051757813 C 181.2478942871094 212.6878051757813 180.9410095214844 212.5519256591797 180.7265472412109 212.3150177001953 C 180.5143585205078 212.0806274414063 180.4106292724609 211.7661895751953 180.4419097900391 211.4523315429688 C 180.5077972412109 210.7691497802734 180.8585510253906 208.3988189697266 182.5926055908203 206.71630859375 C 184.0760040283203 205.2779235839844 186.1240692138672 204.7873687744141 187.1119384765625 204.6282958984375 C 187.1072082519531 204.6239776611328 187.1024780273438 204.6196746826172 187.0977172851563 204.6153411865234 C 187.0000762939453 204.5260162353516 186.9208679199219 204.4235534667969 186.8612060546875 204.3128051757813 C 186.7534332275391 204.4264068603516 186.6219329833984 204.5181274414063 186.4741363525391 204.5794067382813 C 186.0498657226563 204.7570648193359 184.9126434326172 205.1733245849609 183.5880737304688 205.1733245849609 L 183.5879364013672 205.1733245849609 C 183.1113586425781 205.1732940673828 182.6501312255859 205.1194000244141 182.2169952392578 205.0131225585938 C 180.3758392333984 204.5605316162109 179.14306640625 203.2151031494141 178.698486328125 202.6576538085938 L 178.6948852539063 202.6531372070313 L 178.6913452148438 202.6486053466797 C 178.4749298095703 202.3707122802734 178.4018096923828 202.0162658691406 178.4907531738281 201.6761627197266 C 178.5787353515625 201.3397216796875 178.823486328125 201.0581359863281 179.1454925537109 200.9229278564453 C 179.576416015625 200.7433776855469 180.7153472900391 200.3282623291016 182.0360412597656 200.3282623291016 C 182.4105834960938 200.3282623291016 182.7757263183594 200.3615264892578 183.1253204345703 200.4273529052734 C 181.9451904296875 198.8497009277344 181.6797943115234 197.0016937255859 181.6237335205078 196.4088134765625 L 181.6233825683594 196.4050598144531 L 181.623046875 196.4013061523438 C 181.595947265625 196.0895538330078 181.7019348144531 195.7781829833984 181.9138488769531 195.5470428466797 C 182.1280670166016 195.3133850097656 182.4334106445313 195.1793823242188 182.7516174316406 195.1793823242188 C 182.7956695556641 195.1793823242188 182.8402252197266 195.1819610595703 182.8840484619141 195.1870727539063 C 183.5989990234375 195.2702789306641 186.0646820068359 195.6714782714844 187.775146484375 197.3399810791016 C 189.0431213378906 198.5776977539063 189.566162109375 200.1877593994141 189.7801513671875 201.2272338867188 C 189.9621429443359 200.8403167724609 190.3578033447266 200.5768127441406 190.8070068359375 200.5768127441406 C 191.1345825195313 200.5768127441406 191.4336853027344 200.7169342041016 191.6422119140625 200.9428100585938 C 191.8889617919922 199.9105072021484 192.4251708984375 198.4721374511719 193.5847778320313 197.3402252197266 C 195.2961120605469 195.6708679199219 197.7614593505859 195.2701110839844 198.4763031005859 195.1870422363281 C 198.519775390625 195.1819610595703 198.5644073486328 195.1793823242188 198.6085510253906 195.1793823242188 C 198.9293518066406 195.1793823242188 199.2362976074219 195.3152008056641 199.4506683349609 195.552001953125 C 199.6610717773438 195.784423828125 199.7647247314453 196.0957183837891 199.735595703125 196.4071044921875 L 199.735595703125 196.4071044921875 C 199.6806182861328 196.9994964599609 199.4180755615234 198.8467102050781 198.2342681884766 200.4273834228516 C 198.5841674804688 200.3613739013672 198.9498138427734 200.3279876708984 199.3248443603516 200.3279876708984 C 200.9818420410156 200.3279876708984 202.3517608642578 200.9816589355469 202.4092559814453 201.0094909667969 L 203.4702758789063 201.5229034423828 L 202.7908477783203 202.4860687255859 C 202.7340087890625 202.5666351318359 201.3732757568359 204.4655303955078 199.1432800292969 205.0130767822266 C 198.7100524902344 205.1194000244141 198.248779296875 205.1732940673828 197.7721405029297 205.1733245849609 L 197.7721252441406 205.1733245849609 C 196.4449768066406 205.1733551025391 195.3089752197266 204.7568664550781 194.8821563720703 204.5778045654297 C 194.7293548583984 204.5144500732422 194.5935516357422 204.4174346923828 194.4836120605469 204.2967071533203 C 194.4712524414063 204.4184722900391 194.4385833740234 204.5383605957031 194.3861236572266 204.6515350341797 C 195.4170532226563 204.8328399658203 197.3500213623047 205.341796875 198.767333984375 206.7160949707031 C 200.5017395019531 208.4000549316406 200.8523864746094 210.7694549560547 200.9185485839844 211.4555511474609 L 200.9189910888672 211.4600524902344 L 200.9193878173828 211.4645843505859 C 200.9466552734375 211.7768707275391 200.840576171875 212.0887908935547 200.6283721923828 212.3203430175781 C 200.4143371582031 212.5538635253906 200.1093597412109 212.6878051757813 199.7916564941406 212.6878051757813 C 199.7485504150391 212.6878051757813 199.7048797607422 212.6853332519531 199.661865234375 212.6804351806641 C 198.9479064941406 212.5997467041016 196.4821166992188 212.2066650390625 194.7642974853516 210.5398712158203 C 194.130615234375 209.9254455566406 193.6816558837891 209.2189788818359 193.3638153076172 208.5363006591797 L 193.8028564453125 215.2308349609375 C 194.2031097412109 215.3302764892578 194.6243743896484 215.3804779052734 195.0612030029297 215.3804779052734 C 196.0462493896484 215.3804779052734 196.8706970214844 215.1287994384766 197.2744903564453 214.9787750244141 C 197.4033813476563 214.9310607910156 197.5367889404297 214.9071044921875 197.6722106933594 214.9071044921875 C 198.08056640625 214.9071044921875 198.4590454101563 215.1276702880859 198.6599578857422 215.4827117919922 C 198.8579864501953 215.8326873779297 198.8522338867188 216.2644653320313 198.6449432373047 216.6095123291016 C 198.0466003417969 217.5992126464844 196.7190399169922 218.7760772705078 193.7841339111328 218.7760772705078 Z M 192.1434631347656 203.2292022705078 L 192.1957702636719 203.6396484375 L 192.6369018554688 203.3128967285156 C 192.6166687011719 203.31396484375 192.5961151123047 203.3145294189453 192.5756683349609 203.3145294189453 C 192.4259338378906 203.3145294189453 192.2791900634766 203.2848968505859 192.1434631347656 203.2292022705078 Z M 189.1221771240234 203.2629852294922 C 189.2283020019531 203.3392181396484 189.3333740234375 203.4173889160156 189.4364166259766 203.4962615966797 L 189.4909973144531 203.0680541992188 C 189.3809661865234 203.1553649902344 189.2557067871094 203.2213592529297 189.1221771240234 203.2629852294922 Z M 193.7344055175781 203.1256713867188 C 193.9104766845703 203.1887969970703 194.0697021484375 203.2945556640625 194.1959991455078 203.4329376220703 C 194.2124633789063 203.2675018310547 194.2655029296875 203.1062927246094 194.3521728515625 202.9626922607422 C 194.1337127685547 203.0276489257813 193.9260711669922 203.0813751220703 193.7344055175781 203.1256713867188 Z M 190.6825866699219 200.5690155029297 C 190.3439636230469 200.5690155029297 190.0260162353516 200.4205932617188 189.8102722167969 200.1618041992188 C 189.3682403564453 199.6272735595703 188.3474578857422 198.2027130126953 188.3605041503906 196.4571990966797 C 188.3736114501953 194.7082977294922 189.415771484375 193.3003845214844 189.8632354736328 192.7762603759766 C 190.0774383544922 192.5243225097656 190.3927154541016 192.3789672851563 190.7269592285156 192.3789672851563 C 191.0655059814453 192.3789672851563 191.3834228515625 192.52734375 191.5991668701172 192.7860412597656 C 192.0407562255859 193.3186187744141 193.0621337890625 194.7410125732422 193.0490417480469 196.4897918701172 C 193.0359497070313 198.2395935058594 191.9937744140625 199.6475830078125 191.5462951660156 200.1717224121094 C 191.3325500488281 200.4234619140625 191.0171051025391 200.5690155029297 190.6825866699219 200.5690155029297 Z" stroke="none" fill="#4e4e4e"/>
  </g>
</svg>
