<svg xmlns="http://www.w3.org/2000/svg" width="45" height="45" viewBox="0 0 45 45"><g transform="translate(-891 -100)"><g transform="translate(891 100)" fill="#fff"><path d="M 39 44.25 L 6 44.25 C 3.105139970779419 44.25 0.75 41.89485931396484 0.75 39 L 0.75 6 C 0.75 3.105139970779419 3.105139970779419 0.75 6 0.75 L 39 0.75 C 41.89485931396484 0.75 44.25 3.105139970779419 44.25 6 L 44.25 39 C 44.25 41.89485931396484 41.89485931396484 44.25 39 44.25 Z" stroke="none"/><path d="M 6 1.5 C 3.518688201904297 1.5 1.5 3.518688201904297 1.5 6 L 1.5 39 C 1.5 41.48130798339844 3.518688201904297 43.5 6 43.5 L 39 43.5 C 41.48130798339844 43.5 43.5 41.48130798339844 43.5 39 L 43.5 6 C 43.5 3.518688201904297 41.48130798339844 1.5 39 1.5 L 6 1.5 M 6 0 L 39 0 C 42.31370162963867 0 45 2.686290740966797 45 6 L 45 39 C 45 42.3137092590332 42.31370162963867 45 39 45 L 6 45 C 2.686290740966797 45 0 42.3137092590332 0 39 L 0 6 C 0 2.686290740966797 2.686290740966797 0 6 0 Z" stroke="none" fill="#5287f5"/></g><g transform="translate(0.127 -0.6)"><g transform="translate(904.872 114.6)"><path d="M275.516,344.286a1.307,1.307,0,0,0,.736-.436,1.133,1.133,0,0,0,0-1.4,2.705,2.705,0,0,0-.2-.223q-2.969-2.97-5.939-5.938a1.648,1.648,0,0,0-.149-.119l-.026-.069a.784.784,0,0,0,.163-.1q2.994-2.989,5.986-5.981a1.162,1.162,0,0,0,.348-1.242,1.137,1.137,0,0,0-1.752-.557,1.982,1.982,0,0,0-.191.168q-3.443,3.441-6.883,6.883a1.135,1.135,0,0,0-.231,1.446,1.656,1.656,0,0,0,.262.318q3.349,3.354,6.7,6.706a1.709,1.709,0,0,0,.856.542Z" transform="translate(-267.214 -328)" fill="#5287f5"/></g><g transform="translate(913.21 114.6)"><path d="M275.516,344.286a1.307,1.307,0,0,0,.736-.436,1.133,1.133,0,0,0,0-1.4,2.705,2.705,0,0,0-.2-.223q-2.969-2.97-5.939-5.938a1.648,1.648,0,0,0-.149-.119l-.026-.069a.784.784,0,0,0,.163-.1q2.994-2.989,5.986-5.981a1.162,1.162,0,0,0,.348-1.242,1.137,1.137,0,0,0-1.752-.557,1.982,1.982,0,0,0-.191.168q-3.443,3.441-6.883,6.883a1.135,1.135,0,0,0-.231,1.446,1.656,1.656,0,0,0,.262.318q3.349,3.354,6.7,6.706a1.709,1.709,0,0,0,.856.542Z" transform="translate(-267.214 -328)" fill="#5287f5"/></g></g></g></svg>