<svg xmlns="http://www.w3.org/2000/svg" width="17.533" height="16.624" viewBox="0 0 17.533 16.624"><g transform="translate(9.476) rotate(90)"><path d="M8.312,9.476a1.161,1.161,0,0,1-.823-.341L.341,1.987A1.164,1.164,0,0,1,1.987.341L8.312,6.666,14.637.341a1.164,1.164,0,0,1,1.646,1.646L9.135,9.136A1.161,1.161,0,0,1,8.312,9.476Z" transform="translate(0 0)" fill="#4e4e4e"/></g><g transform="translate(17.533) rotate(90)"><path d="M8.312,9.476a1.161,1.161,0,0,1-.823-.341L.341,1.987A1.164,1.164,0,0,1,1.987.341L8.312,6.666,14.637.341a1.164,1.164,0,0,1,1.646,1.646L9.135,9.136A1.161,1.161,0,0,1,8.312,9.476Z" transform="translate(0 0)" fill="#4e4e4e"/></g></svg>