<svg xmlns="http://www.w3.org/2000/svg" width="18" height="23.6" viewBox="0 0 18 23.6"><path d="M85,0a9,9,0,0,0-7.657,13.733l7.144,9.513a.75.75,0,0,0,.637.355h.006a.75.75,0,0,0,.637-.365l6.962-9.624A9,9,0,0,0,85,0Zm6.443,12.841-6.33,8.568-6.5-8.467a7.505,7.505,0,1,1,12.825-.1Z" transform="translate(-76)" fill="#4e4e4e"/><g transform="translate(4.5 4.5)"><path d="M170.5,90a4.5,4.5,0,1,0,4.5,4.5A4.505,4.505,0,0,0,170.5,90Zm0,7.51a3.01,3.01,0,1,1,3.005-3.01A3.012,3.012,0,0,1,170.5,97.51Z" transform="translate(-166 -90)" fill="#4e4e4e"/></g></svg>