<svg id="mail" xmlns="http://www.w3.org/2000/svg" width="33.75" height="25" viewBox="0 0 33.75 25">
  <g id="Layer_2" data-name="Layer 2" transform="translate(0 5)">
    <g id="Web">
      <g id="Mail_2x.png" data-name="Mail@2x.png">
        <path id="Path_349" data-name="Path 349" d="M25,0H2.5A2.5,2.5,0,0,0,0,2.5v15A2.5,2.5,0,0,0,2.5,20H25a2.5,2.5,0,0,0,2.5-2.5V2.5A2.5,2.5,0,0,0,25,0ZM2.5,1.25H25a1.25,1.25,0,0,1,.419.075L14.6,12.144a1.194,1.194,0,0,1-1.694,0L2.081,1.325A1.25,1.25,0,0,1,2.5,1.25ZM1.25,17.5V2.5a1.25,1.25,0,0,1,0-.219L8.987,10,1.25,17.719A1.25,1.25,0,0,1,1.25,17.5ZM25,18.75H2.5a1.25,1.25,0,0,1-.419-.075l7.794-7.794,2.144,2.144a2.444,2.444,0,0,0,3.462,0l2.144-2.144,7.794,7.794A1.25,1.25,0,0,1,25,18.75Zm1.25-1.25a1.25,1.25,0,0,1,0,.219L18.512,10,26.25,2.281a1.25,1.25,0,0,1,0,.219Z" fill="#fff"/>
      </g>
    </g>
  </g>
  <circle id="Ellipse_9" data-name="Ellipse 9" cx="7.5" cy="7.5" r="7.5" transform="translate(18.75)" fill="#f30000"/>
</svg>
