<svg xmlns="http://www.w3.org/2000/svg" width="45.166" height="59.218" viewBox="0 0 45.166 59.218"><g transform="translate(-86.417 -95.195)"><g transform="translate(86.417 95.195)"><g transform="translate(0 0)"><path d="M98.583,0A22.587,22.587,0,0,0,79.371,34.458L97.3,58.328a1.882,1.882,0,0,0,1.6.89h.015a1.881,1.881,0,0,0,1.6-.915l17.47-24.15A22.588,22.588,0,0,0,98.583,0Zm16.168,32.221-15.883,21.5L82.57,32.475a18.832,18.832,0,1,1,32.181-.254Z" transform="translate(-76)" fill="#629c44"/></g></g><g transform="translate(97.709 106.487)"><g transform="translate(0 0)"><path d="M177.292,90a11.292,11.292,0,1,0,11.292,11.292A11.3,11.3,0,0,0,177.292,90Zm0,18.844a7.553,7.553,0,1,1,7.54-7.553A7.558,7.558,0,0,1,177.292,108.844Z" transform="translate(-166 -90)" fill="#629c44"/></g></g></g></svg>