<svg xmlns="http://www.w3.org/2000/svg" width="31.787" height="19.904" viewBox="0 0 31.787 19.904"><line x2="29.024" transform="translate(1.382 1.382)" stroke="#4e4e4e" stroke-width="1"/><path d="M-71.253,239.148h-29.024a1.382,1.382,0,0,1-1.382-1.382,1.382,1.382,0,0,1,1.382-1.382h29.024a1.382,1.382,0,0,1,1.382,1.382A1.382,1.382,0,0,1-71.253,239.148Z" transform="translate(101.659 -236.384)" fill="#fff"/><g transform="translate(0 8.57)"><line x2="29.024" transform="translate(1.382 1.382)" stroke="#4e4e4e" stroke-width="1"/><path d="M-71.253,363.2h-29.024a1.382,1.382,0,0,1-1.382-1.382,1.382,1.382,0,0,1,1.382-1.382h29.024a1.382,1.382,0,0,1,1.382,1.382A1.382,1.382,0,0,1-71.253,363.2Z" transform="translate(101.659 -360.432)" fill="#fff"/></g><g transform="translate(0 17.141)"><line x2="29.024" transform="translate(1.382 1.382)" stroke="#4e4e4e" stroke-width="1"/><path d="M-71.253,487.244h-29.024a1.382,1.382,0,0,1-1.382-1.382,1.382,1.382,0,0,1,1.382-1.382h29.024a1.382,1.382,0,0,1,1.382,1.382A1.382,1.382,0,0,1-71.253,487.244Z" transform="translate(101.659 -484.48)" fill="#fff"/></g></svg>