<svg xmlns="http://www.w3.org/2000/svg" width="45" height="45" viewBox="0 0 45 45"><g transform="translate(-1021 -204)"><g transform="translate(1020.847 204)"><g transform="translate(0 0)"><g transform="translate(0.153 0)" fill="#cadafb" stroke="#b1c0ff" stroke-width="1.5"><rect width="45" height="45" rx="4" stroke="none"/><rect x="0.75" y="0.75" width="43.5" height="43.5" rx="3.25" fill="none"/></g></g></g><g transform="translate(-0.114 -1.063)"><path d="M-2416.707-420.661V-427.3a2.239,2.239,0,0,0-2.232-2.232h-12.826A2.239,2.239,0,0,0-2434-427.3v18.438" transform="translate(3467.272 644.529)" fill="none" stroke="#5287f5" stroke-linecap="round" stroke-miterlimit="10" stroke-width="2"/><line x2="10.231" transform="translate(1036.734 220.705)" fill="none" stroke="#5287f5" stroke-linecap="round" stroke-miterlimit="10" stroke-width="1"/><line x2="7.077" transform="translate(1038.368 223.688)" fill="none" stroke="#5287f5" stroke-linecap="round" stroke-miterlimit="10" stroke-width="1"/><path d="M10.436,20.571a1.1,1.1,0,0,1-1.551,0l-6.195-6.2a1.645,1.645,0,0,1,0-2.327l.776-.776a1.645,1.645,0,0,1,2.327,0L9.66,15.14,20.111,4.689a1.645,1.645,0,0,1,2.327,0l.776.776a1.645,1.645,0,0,1,0,2.327Z" transform="translate(1036.167 219.481)" fill="#5287f5"/></g></g></svg>