<svg xmlns="http://www.w3.org/2000/svg" width="23.544" height="28.485" viewBox="0 0 23.544 28.485"><g transform="translate(-1117.421 -362.868)"><g transform="translate(1117.421 368.654)" fill="none"><path d="M6.325,0H17.218a4.8,4.8,0,0,1,4.92,4.673l1.406,13.352a4.8,4.8,0,0,1-4.92,4.673H4.92A4.8,4.8,0,0,1,0,18.025L1.406,4.673A4.8,4.8,0,0,1,6.325,0Z" stroke="none"/><path d="M 6.325160980224609 1.999998092651367 C 4.715299606323242 1.999998092651367 3.405590057373047 3.19921875 3.405590057373047 4.673259735107422 L 3.405590057373047 4.778238296508789 L 3.394599914550781 4.882638931274414 L 2.001617431640625 18.11504936218262 C 2.053365707397461 19.54781150817871 3.342430114746094 20.69869995117188 4.919570922851563 20.69869995117188 L 18.62406921386719 20.69869995117188 C 20.20121002197266 20.69869995117188 21.49027252197266 19.54781150817871 21.54202270507813 18.11504936218262 L 20.14904022216797 4.882638931274414 L 20.1380500793457 4.778238296508789 L 20.1380500793457 4.673259735107422 C 20.1380500793457 3.19921875 18.82834053039551 1.999998092651367 17.21847915649414 1.999998092651367 L 6.325160980224609 1.999998092651367 M 6.325160980224609 -1.9073486328125e-06 L 17.21847915649414 -1.9073486328125e-06 C 19.93548011779785 -1.9073486328125e-06 22.1380500793457 2.092288970947266 22.1380500793457 4.673259735107422 L 23.54364013671875 18.02543830871582 C 23.54364013671875 20.60640907287598 21.34107971191406 22.69869995117188 18.62406921386719 22.69869995117188 L 4.919570922851563 22.69869995117188 C 2.202560424804688 22.69869995117188 0 20.60640907287598 0 18.02543830871582 L 1.405590057373047 4.673259735107422 C 1.405590057373047 2.092288970947266 3.608150482177734 -1.9073486328125e-06 6.325160980224609 -1.9073486328125e-06 Z" stroke="none" fill="#5a8df5"/></g><g transform="translate(1121.499 362.868)" fill="none"><path d="M0,7.535H0A7.566,7.566,0,0,1,12.89,2.19a7.52,7.52,0,0,1,2.242,5.3c-.143-.01-.292-.016-.444-.016H.891A6.141,6.141,0,0,0,0,7.534Z" stroke="none"/><path d="M 12.72544574737549 5.469547748565674 C 12.44561672210693 4.780660152435303 12.0262451171875 4.149088859558105 11.48247241973877 3.610607862472534 C 10.43367290496826 2.571987867355347 9.043003082275391 1.999997973442078 7.566652774810791 1.999997973442078 C 6.08391284942627 1.999997973442078 4.688782691955566 2.576227903366089 3.638262748718262 3.622517824172974 C 3.099927663803101 4.158694744110107 2.684615612030029 4.785965442657471 2.406860589981079 5.469547748565674 L 12.72544574737549 5.469547748565674 M 2.764282271527918e-06 7.534537792205811 L 1.276428247365402e-05 7.533177852630615 C 0.008772764354944229 5.519097805023193 0.7996327877044678 3.627007961273193 2.226892709732056 2.205467939376831 C 3.654852867126465 0.7832479476928711 5.551212787628174 -2.057571464320063e-06 7.566652774810791 -2.057571464320063e-06 C 9.573522567749023 -2.057571464320063e-06 11.46399307250977 0.7775779366493225 12.88977241516113 2.189517974853516 C 14.31460285186768 3.600477933883667 15.11087322235107 5.481368064880371 15.1318826675415 7.485697746276855 C 14.98862266540527 7.475378036499023 14.83956241607666 7.469547748565674 14.6875524520874 7.469547748565674 L 0.89054274559021 7.469547748565674 C 0.5932827591896057 7.469547748565674 0.2941127717494965 7.491347789764404 0.001362764276564121 7.534337997436523 L 2.764282271527918e-06 7.534537792205811 Z" stroke="none" fill="#5a8df5"/></g></g></svg>