<svg xmlns="http://www.w3.org/2000/svg" width="50.275" height="31.788" viewBox="0 0 50.275 31.788"><g transform="translate(-7860.461 1664.802)"><path d="M-523.5,137.378c.107-.549.188-1.1.324-1.644a9.227,9.227,0,0,1,2.393-4.267c1.333-1.361,2.688-2.7,4.036-4.045a.994.994,0,0,1,1.539.008c1.054,1.048,3.311,3.336,3.4,3.441.114-.106.194-.177.27-.253,4.166-4.165,1.349-1.389,5.52-5.549a.616.616,0,0,0,.2-.627,8.449,8.449,0,0,1,.508-5.107A6.577,6.577,0,0,1-504,117.444a.983.983,0,0,1,1.491-.022q2.774,2.761,5.535,5.536a.985.985,0,0,1-.046,1.513,7.208,7.208,0,0,1-5.4,1.958,12.854,12.854,0,0,1-1.638-.179.49.49,0,0,0-.491.147c-2.65,2.659,1.674-1.629-.981,1.026l-4.922,4.92s2.422,2.259,3.463,3.3a1.019,1.019,0,0,1,.007,1.634q-1.914,1.917-3.831,3.83a9.6,9.6,0,0,1-5.893,2.82,1,1,0,0,0-.184.056h-1.586a1.424,1.424,0,0,0-.218-.056,8.872,8.872,0,0,1-3.241-.941,1.356,1.356,0,0,1-.562-.563,8.86,8.86,0,0,1-.6-1.531c-.176-.632-.272-1.286-.4-1.931Zm10.278-5.088-2.762-2.758c-1.182,1.165-2.436,2.27-3.535,3.511a7.486,7.486,0,0,0-1.474,7.94.745.745,0,0,0,.508.5,7.586,7.586,0,0,0,8.235-1.747c1.065-1,2.076-2.065,3.111-3.1a1.387,1.387,0,0,0,.1-.115l-2.8-2.83Zm10.045-12.683a.741.741,0,0,0-.07.084,6.179,6.179,0,0,0-.6,4.433.312.312,0,0,0,.214.179,6.587,6.587,0,0,0,3.259-.12c.428-.135.833-.341,1.26-.52Z" transform="matrix(0.995, -0.105, 0.105, 0.995, 8389.333, -1832.889)" fill="#629c44" stroke="#629c44" stroke-width="0.5"/><g transform="translate(7860.711 -1653.084)"><g transform="translate(0 0)"><path d="M104.552,153.214a.2.2,0,0,0,.132-.026c.026,0,.053,0,.053-.026a.1.1,0,0,0,.079-.027c.026,0,.052-.026.079-.026s.026-.026.052-.026a.813.813,0,0,0,.211-.211c0-.026.026-.026.026-.053s.027-.052.027-.079.026-.052.026-.079.026-.026.026-.052a1.1,1.1,0,0,1,.027-.132v-3.269a9.368,9.368,0,0,0-9.439-9.307H92.529a.731.731,0,0,0-.738.711v3.27a9.369,9.369,0,0,0,9.439,9.307h3.321Zm-11.311-9.307V141.35h2.583a7.922,7.922,0,0,1,7.963,7.883v1.556l-6.2-6.117a.727.727,0,0,0-1.028,1.028l6.2,6.117H101.2A7.979,7.979,0,0,1,93.241,143.907Z" transform="translate(-91.791 -139.9)" fill="#629c44" stroke="#629c44" stroke-miterlimit="10" stroke-width="0.5"/><path d="M115.309,144.7h-2.383a6.6,6.6,0,0,0-6.774,6.393v2.246a.134.134,0,0,0,.018.09c0,.018,0,.036.019.036a.064.064,0,0,0,.019.054c0,.018.019.036.019.055s.018.018.018.036a.56.56,0,0,0,.152.145c.018,0,.018.018.037.018s.038.018.057.018.038.018.057.018a.069.069,0,0,1,.037.017.838.838,0,0,1,.095.018h2.384a6.6,6.6,0,0,0,6.774-6.393V145.2A.507.507,0,0,0,115.309,144.7Zm-.51,2.753a5.582,5.582,0,0,1-5.714,5.415h-1.117l4.447-4.2a.478.478,0,0,0,0-.706.529.529,0,0,0-.738,0l-4.447,4.2v-1.069a5.582,5.582,0,0,1,5.714-5.416H114.8v1.775Z" transform="translate(-93.669 -140.527)" fill="#629c44" stroke="#629c44" stroke-miterlimit="10" stroke-width="0.5"/></g><path d="M106.752,148.145V158.17h-6.412a.721.721,0,0,0-.727.7.7.7,0,0,0,.727.7h34.844a.721.721,0,0,0,.727-.7.764.764,0,0,0-.754-.7H108.18V148.145" transform="translate(-94.626 -139.502)" fill="#629c44"/></g><circle cx="2" cy="2" r="2" transform="translate(7868.312 -1638.893)" fill="#629c44"/><circle cx="2" cy="2" r="2" transform="translate(7877.312 -1639.893)" fill="#629c44"/><circle cx="1.5" cy="1.5" r="1.5" transform="translate(7875.312 -1636.893)" fill="#629c44"/></g></svg>