<svg xmlns="http://www.w3.org/2000/svg" width="65.09" height="64.397" viewBox="0 0 65.09 64.397"><path d="M205.87,253.627c-7.667-2.219-12.537-.2-14.418.888-.3.173-.677-.093-.548-.386,2.4-5.371,12.033-5.077,14.034-4.957a.353.353,0,0,0,.392-.3l2.238-21.613a.344.344,0,0,0,0-.075c-.477-2.738-3.173-5.413-5.024-6.963-.315-.266.074-.707.45-.506a38.259,38.259,0,0,1,5.745,4.1.385.385,0,0,0,.625-.191l1.245-9a.379.379,0,0,1,.732,0l1.256,9.079a.384.384,0,0,0,.6.216l4.626-3.157c.335-.228.779.138.529.436a18.413,18.413,0,0,0-3.392,5.975.379.379,0,0,0-.011.1l1.686,23.689a.333.333,0,0,0,.233.283,20.744,20.744,0,0,0,13.034-.226c.324-.11.628.2.458.456-2.041,3.11-6.2,4.3-11.116,4.3A49.983,49.983,0,0,1,205.87,253.627Zm30-13.424c-1.686-.176-7.821-1.053-11.978-4.769A17.046,17.046,0,0,1,218.75,224.9a.349.349,0,0,1,.411-.346c1.686.178,7.821,1.056,11.978,4.769a17.073,17.073,0,0,1,5.142,10.531.342.342,0,0,1-.365.349Zm-50.911-.346a17.057,17.057,0,0,1,5.142-10.531c4.157-3.713,10.291-4.591,11.978-4.769a.351.351,0,0,1,.411.346,17.046,17.046,0,0,1-5.142,10.531c-4.157,3.716-10.291,4.593-11.978,4.769l-.046,0A.34.34,0,0,1,184.959,239.856Zm38.4-20.194a.3.3,0,0,1-.145-.481,16.346,16.346,0,0,1,8.257-5.135c5.254-1.189,10.5,1.151,10.5,1.151a16.45,16.45,0,0,1-8.52,5.453,14.275,14.275,0,0,1-3.145.336A20.27,20.27,0,0,1,223.36,219.662Zm-35.574.988a16.379,16.379,0,0,1-8.259-5.135.3.3,0,0,1,.145-.484,18.643,18.643,0,0,1,10.1-.985,16.346,16.346,0,0,1,8.257,5.135.3.3,0,0,1-.145.481,20.288,20.288,0,0,1-6.95,1.324A14.274,14.274,0,0,1,187.786,220.65Zm27.731-4.764a17.044,17.044,0,0,1,5.106-10.546c4.143-3.723,10.275-4.616,11.961-4.8a.345.345,0,0,1,.411.344,17.038,17.038,0,0,1-5.106,10.543c-4.143,3.726-10.275,4.619-11.961,4.8l-.046,0A.34.34,0,0,1,215.517,215.886Zm-10.206.343c-1.686-.181-7.818-1.073-11.964-4.8a17.054,17.054,0,0,1-5.106-10.543.349.349,0,0,1,.414-.344c1.684.181,7.818,1.073,11.961,4.8a17.058,17.058,0,0,1,5.106,10.546.343.343,0,0,1-.366.346Zm5.026-7.141c-.867-.965-3.411-4.107-3.381-7.818s2.624-6.82,3.507-7.773a.4.4,0,0,1,.576,0c.867.963,3.411,4.107,3.381,7.815s-2.624,6.822-3.507,7.775a.4.4,0,0,1-.576,0Z" transform="translate(-178.448 -192.379)" fill="none" stroke="#629c44" stroke-miterlimit="10" stroke-width="2"/></svg>