<svg xmlns="http://www.w3.org/2000/svg" width="32.101" height="28" viewBox="0 0 32.101 28"><g transform="translate(0.25 0.25)"><path d="M109.98,158.878a.284.284,0,0,0,.188-.037c.037,0,.076,0,.076-.037a.137.137,0,0,0,.113-.038c.037,0,.074-.037.113-.037s.037-.037.074-.037a1.16,1.16,0,0,0,.3-.3c0-.037.037-.037.037-.076s.038-.074.038-.113.037-.074.037-.113.037-.037.037-.074a1.571,1.571,0,0,1,.038-.188v-4.66A13.353,13.353,0,0,0,97.578,139.9H92.843a1.043,1.043,0,0,0-1.052,1.014v4.661a13.354,13.354,0,0,0,13.455,13.266h4.734ZM93.858,145.612v-3.645H97.54A11.292,11.292,0,0,1,108.891,153.2v2.218l-8.832-8.719a1.036,1.036,0,1,0-1.466,1.466l8.832,8.719h-2.218A11.373,11.373,0,0,1,93.858,145.612Z" transform="translate(-91.791 -139.9)" fill="#629c44" stroke="#629c44" stroke-miterlimit="10" stroke-width="0.5"/><path d="M119.2,144.7h-3.4a9.407,9.407,0,0,0-9.656,9.113v3.2a.191.191,0,0,0,.026.129c0,.026,0,.052.027.052a.091.091,0,0,0,.027.077c0,.026.027.052.027.078s.026.026.026.051a.8.8,0,0,0,.217.207c.026,0,.026.026.053.026s.055.026.081.026.055.026.082.026a.1.1,0,0,1,.053.025,1.2,1.2,0,0,1,.135.026h3.4a9.408,9.408,0,0,0,9.656-9.113v-3.2A.722.722,0,0,0,119.2,144.7Zm-.727,3.924a7.957,7.957,0,0,1-8.145,7.719h-1.592l6.339-5.989a.681.681,0,0,0,0-1.006.754.754,0,0,0-1.052,0l-6.339,5.989v-1.524a7.957,7.957,0,0,1,8.145-7.719h2.644v2.53Z" transform="translate(-88.359 -138.754)" fill="#629c44" stroke="#629c44" stroke-miterlimit="10" stroke-width="0.5"/><path d="M106.579,148.145v15.163h-2.867a1.091,1.091,0,0,0-1.1,1.061,1.065,1.065,0,0,0,1.1,1.061h7.974a1.09,1.09,0,0,0,1.1-1.061,1.156,1.156,0,0,0-1.14-1.061H108.74V148.145" transform="translate(-89.205 -137.929)" fill="#629c44" stroke="#629c44" stroke-miterlimit="10" stroke-width="0.5"/></g></svg>