<svg xmlns="http://www.w3.org/2000/svg" width="26.57" height="21.811" viewBox="0 0 26.57 21.811"><g transform="translate(-9.396 -14.982)"><g transform="translate(10.147 15.733)"><path d="M226.425,390.9a1.627,1.627,0,0,0,.5,1.127L236.96,401.6s.794.917,2.14-.244,7.214-7.153,7.214-7.153a1.954,1.954,0,0,0,0-2.628c-1-1.214-7.932-7.671-9.8-9.41a1.616,1.616,0,0,0-1.1-.432h-8.3a.931.931,0,0,0-.931.96Z" transform="translate(-226.169 -381.728)" fill="none" stroke="#5287f5" stroke-miterlimit="10" stroke-width="1.5"/><circle cx="1.358" cy="1.358" r="1.358" transform="translate(2.952 2.538)" fill="none" stroke="#5287f5" stroke-miterlimit="10" stroke-width="1.5"/></g><path d="M6.707,20.211a1.168,1.168,0,0,1-.838-.344l-1.2-1.148c2.112-2.033,6.2-6.207,6.243-6.249a1.966,1.966,0,0,0,0-2.629C9.884,8.6,2.561,1.786,1.1.432A1.612,1.612,0,0,0,0,0H4.314a1.612,1.612,0,0,1,1.1.432c1.458,1.354,8.78,8.169,9.8,9.41a1.966,1.966,0,0,1,0,2.629c-.059.06-5.881,6-7.214,7.153A2.051,2.051,0,0,1,6.707,20.211Z" transform="translate(19.382 15.732)" fill="rgba(0,0,0,0)" stroke="#5287f5" stroke-miterlimit="10" stroke-width="1.5"/></g></svg>