<svg xmlns="http://www.w3.org/2000/svg" width="34" height="27" viewBox="0 0 34 27"><g transform="translate(-210.484 -243)"><g transform="translate(217.484 243)" fill="none" stroke="#7ebb03" stroke-width="1.75"><circle cx="13.5" cy="13.5" r="13.5" stroke="none"/><circle cx="13.5" cy="13.5" r="12.625" fill="none"/></g><g transform="translate(210.484 243)" fill="none"><path d="M17,26.608A13.936,13.936,0,0,1,13.71,27,13.606,13.606,0,0,1,0,13.5,13.605,13.605,0,0,1,13.71,0,13.936,13.936,0,0,1,17,.392,13.936,13.936,0,0,1,20.293,0,13.606,13.606,0,0,1,34,13.5,13.606,13.606,0,0,1,20.293,27,13.936,13.936,0,0,1,17,26.608Z" stroke="none"/><path d="M 20.29277992248535 25.25 C 23.49114990234375 25.25 26.49700927734375 24.02433013916016 28.75665092468262 21.79877090454102 C 31.00937080383301 19.58002090454102 32.25 16.632080078125 32.25 13.4980001449585 C 32.25 7.020130157470703 26.88600921630859 1.75 20.29277992248535 1.75 C 19.31741905212402 1.75 18.34917068481445 1.865129947662354 17.41493034362793 2.092200040817261 L 17.00193977355957 2.192579984664917 L 16.58890914916992 2.092350006103516 C 15.65283012390137 1.865180015563965 14.68437957763672 1.75 13.71045970916748 1.75 C 10.51021003723145 1.75 7.503069877624512 2.975579977035522 5.242980003356934 5.200980186462402 C 2.990499973297119 7.418879985809326 1.75 10.36548042297363 1.75 13.4980001449585 C 1.75 16.63238906860352 2.990540027618408 19.5803108215332 5.243100166320801 21.79871940612793 C 7.502950191497803 24.0243091583252 10.51004981994629 25.25 13.71045970916748 25.25 C 14.68492984771729 25.25 15.65338039398193 25.13488006591797 16.58890914916992 24.90785026550293 L 17.00193977355957 24.80761909484863 L 17.41493034362793 24.90800094604492 C 18.34861946105957 25.13492965698242 19.31686973571777 25.25 20.29277992248535 25.25 M 20.29277992248535 27 C 19.15900993347168 27 18.05439949035645 26.86437034606934 17.00161933898926 26.60848999023438 C 15.94721984863281 26.86437034606934 14.84584999084473 27 13.71045970916748 27 C 6.136909961700439 27 0 20.95552062988281 0 13.4980001449585 C 0 6.044680118560791 6.136909961700439 -1.77635683940025e-15 13.71045970916748 -1.77635683940025e-15 C 14.84584999084473 -1.77635683940025e-15 15.94721984863281 0.1358300000429153 17.00161933898926 0.3917100131511688 C 18.05439949035645 0.1358300000429153 19.15900993347168 -1.77635683940025e-15 20.29277992248535 -1.77635683940025e-15 C 27.86146926879883 -1.77635683940025e-15 34 6.044680118560791 34 13.4980001449585 C 34 20.95552062988281 27.86146926879883 27 20.29277992248535 27 Z" stroke="none" fill="#7ebb03"/></g><text transform="translate(230.484 261)" fill="#7ebb03" font-size="14" font-family="Roboto-Bold, Roboto" font-weight="700"><tspan x="-4.016" y="0">$</tspan></text></g></svg>