<svg xmlns="http://www.w3.org/2000/svg" width="24.724" height="24.724" viewBox="0 0 24.724 24.724"><g transform="translate(0.25 0.25)"><path d="M20.676,6.1h-.662V3.548A3.552,3.552,0,0,0,16.465,0H7.759A3.552,3.552,0,0,0,4.211,3.548V6.1H3.548A3.552,3.552,0,0,0,0,9.652v5.677a3.552,3.552,0,0,0,3.548,3.548h.662v3.217A2.131,2.131,0,0,0,6.34,24.224H17.884a2.131,2.131,0,0,0,2.129-2.129V18.878h.662a3.552,3.552,0,0,0,3.548-3.548V9.652A3.552,3.552,0,0,0,20.676,6.1ZM5.63,3.548A2.131,2.131,0,0,1,7.759,1.419h8.705a2.131,2.131,0,0,1,2.129,2.129V6.1H5.63ZM18.594,22.095a.71.71,0,0,1-.71.71H6.34a.71.71,0,0,1-.71-.71v-7H18.594ZM22.8,15.329a2.131,2.131,0,0,1-2.129,2.129h-.662V15.093h.426a.71.71,0,0,0,0-1.419H3.785a.71.71,0,0,0,0,1.419h.426v2.366H3.548a2.131,2.131,0,0,1-2.129-2.129V9.652A2.131,2.131,0,0,1,3.548,7.523H20.676A2.131,2.131,0,0,1,22.8,9.652Z" fill="#5287f5" stroke="#5287f5" stroke-width="0.5"/><path d="M205.495,417H201.71a.71.71,0,1,0,0,1.419h3.785a.71.71,0,1,0,0-1.419Z" transform="translate(-191.49 -398.785)" fill="#5287f5" stroke="#5287f5" stroke-width="0.5"/><path d="M67.981,193H65.71a.71.71,0,1,0,0,1.419h2.271a.71.71,0,1,0,0-1.419Z" transform="translate(-48.299 -183.112)" fill="#5287f5" stroke="#5287f5" stroke-width="0.5"/></g></svg>