<svg xmlns="http://www.w3.org/2000/svg" width="21.499" height="26.011" viewBox="0 0 21.499 26.011"><g transform="translate(0 5.284)" fill="none"><path d="M5.776,0h9.947a4.384,4.384,0,0,1,4.492,4.267L21.5,16.46a4.384,4.384,0,0,1-4.492,4.267H4.492A4.384,4.384,0,0,1,0,16.46L1.284,4.267A4.384,4.384,0,0,1,5.776,0Z" stroke="none"/><path d="M 5.775881767272949 1.249996185302734 C 3.988040924072266 1.249996185302734 2.533531188964844 2.603626251220703 2.533531188964844 4.267467498779297 L 2.533531188964844 4.333076477050781 L 2.526660919189453 4.398326873779297 L 1.250625610351563 16.51988792419434 C 1.28485107421875 18.15634155273438 2.725898742675781 19.47769737243652 4.492351531982422 19.47769737243652 L 17.00676155090332 19.47769737243652 C 18.77321434020996 19.47769737243652 20.21426963806152 18.15634155273438 20.24849700927734 16.51988792419434 L 18.97246170043945 4.398326873779297 L 18.96559143066406 4.333076477050781 L 18.96559143066406 4.267467498779297 C 18.96559143066406 2.603626251220703 17.51108169555664 1.249996185302734 15.72324180603027 1.249996185302734 L 5.775881767272949 1.249996185302734 M 5.775881767272949 -3.814697265625e-06 L 15.72324180603027 -3.814697265625e-06 C 18.20429229736328 -3.814697265625e-06 20.21559143066406 1.910606384277344 20.21559143066406 4.267467498779297 L 21.49912071228027 16.46022796630859 C 21.49912071228027 18.81708717346191 19.48783111572266 20.72769737243652 17.00676155090332 20.72769737243652 L 4.492351531982422 20.72769737243652 C 2.01129150390625 20.72769737243652 1.9073486328125e-06 18.81708717346191 1.9073486328125e-06 16.46022796630859 L 1.283531188964844 4.267467498779297 C 1.283531188964844 1.910606384277344 3.294820785522461 -3.814697265625e-06 5.775881767272949 -3.814697265625e-06 Z" stroke="none" fill="#5287f5"/></g><g transform="translate(3.733)" fill="none"><path d="M0,6.559H0a6.909,6.909,0,0,1,13.8-.042c-.129-.009-.262-.014-.4-.014H.8a5.76,5.76,0,0,0-.8.056Z" stroke="none"/><path d="M 12.31418991088867 5.252888202667236 C 11.60424709320068 2.926101446151733 9.437850952148438 1.249998092651367 6.900549411773682 1.249998092651367 C 5.438859462738037 1.249998092651367 4.051699161529541 1.805458068847656 2.994609355926514 2.814068078994751 C 2.28200364112854 3.493983745574951 1.767666101455688 4.332670211791992 1.486990332603455 5.252888202667236 L 12.31418991088867 5.252888202667236 M -7.058715709717944e-07 6.559278011322021 L 2.929412767116446e-05 6.558787822723389 C 0.08855929225683212 4.787878036499023 0.8456093072891235 3.136798143386841 2.131709337234497 1.909687995910645 C 3.422389268875122 0.67820805311203 5.115989208221436 -1.948013277797145e-06 6.900549411773682 -1.948013277797145e-06 C 10.56394958496094 -1.948013277797145e-06 13.59403896331787 2.862368106842041 13.79881954193115 6.516448020935059 C 13.66990947723389 6.507597923278809 13.53690910339355 6.502888202667236 13.40306949615479 6.502888202667236 L 0.8040392994880676 6.502888202667236 C 0.5351892709732056 6.502888202667236 0.2648392915725708 6.521838188171387 0.0004892941215075552 6.559207916259766 L -7.058715709717944e-07 6.559278011322021 Z" stroke="none" fill="#5287f5"/></g><g transform="translate(4.943 11.824)"><path d="M97.668,146.032a.092.092,0,0,0,.061-.012c.012,0,.024,0,.024-.012a.044.044,0,0,0,.036-.012c.012,0,.024-.012.036-.012s.012-.012.024-.012a.375.375,0,0,0,.1-.1c0-.012.012-.012.012-.024s.012-.024.012-.036.012-.024.012-.036.012-.012.012-.024a.508.508,0,0,1,.012-.061v-1.506a4.314,4.314,0,0,0-4.347-4.286h-1.53a.337.337,0,0,0-.34.327v1.506a4.315,4.315,0,0,0,4.347,4.286h1.53Zm-5.209-4.286v-1.178h1.19a3.648,3.648,0,0,1,3.667,3.631v.717L94.462,142.1a.335.335,0,0,0-.474.474l2.854,2.817h-.717A3.675,3.675,0,0,1,92.459,141.745Z" transform="translate(-91.791 -139.9)" fill="#5287f5" stroke="#5287f5" stroke-miterlimit="10" stroke-width="0.4"/><path d="M110.368,144.7h-1.1a3.039,3.039,0,0,0-3.12,2.944v1.034a.062.062,0,0,0,.008.042c0,.008,0,.017.009.017a.029.029,0,0,0,.009.025c0,.008.009.017.009.025s.008.008.008.016a.26.26,0,0,0,.07.067c.008,0,.008.008.017.008s.018.008.026.008.018.008.026.008a.032.032,0,0,1,.017.008.389.389,0,0,1,.044.008h1.1a3.04,3.04,0,0,0,3.12-2.944v-1.034A.233.233,0,0,0,110.368,144.7Zm-.235,1.268a2.571,2.571,0,0,1-2.632,2.494h-.514l2.048-1.935a.22.22,0,0,0,0-.325.244.244,0,0,0-.34,0l-2.048,1.935v-.492a2.571,2.571,0,0,1,2.632-2.494h.854v.817Z" transform="translate(-99.201 -142.775)" fill="#5287f5" stroke="#5287f5" stroke-miterlimit="10" stroke-width="0.4"/></g></svg>