<svg xmlns="http://www.w3.org/2000/svg" width="52.898" height="64" viewBox="0 0 52.898 64"><g transform="translate(0 13)" fill="none"><path d="M14.211,0H38.687A10.787,10.787,0,0,1,49.74,10.5l3.158,30A10.787,10.787,0,0,1,41.845,51H11.053A10.787,10.787,0,0,1,0,40.5l3.158-30A10.787,10.787,0,0,1,14.211,0Z" stroke="none"/><path d="M 14.21142196655273 2.499996185302734 C 9.495101928710938 2.499996185302734 5.658092498779297 6.088787078857422 5.658092498779297 10.49999618530273 L 5.658092498779297 10.63121795654297 L 5.644351959228516 10.76172637939453 L 2.500980377197266 40.62191009521484 C 2.570808410644531 44.97721099853516 6.380470275878906 48.49998474121094 11.05332183837891 48.49998474121094 L 41.84473419189453 48.49998474121094 C 46.51758575439453 48.49998474121094 50.3272590637207 44.97721099853516 50.39708709716797 40.62191009521484 L 47.25371551513672 10.76172637939453 L 47.23997497558594 10.63121795654297 L 47.23997497558594 10.49999618530273 C 47.23997497558594 6.088787078857422 43.40296173095703 2.499996185302734 38.6866455078125 2.499996185302734 L 14.21142196655273 2.499996185302734 M 14.21142196655273 -3.814697265625e-06 L 38.6866455078125 -3.814697265625e-06 C 44.79122161865234 -3.814697265625e-06 49.73997497558594 4.701007843017578 49.73997497558594 10.49999618530273 L 52.89806365966797 40.49999618530273 C 52.89806365966797 46.29898452758789 47.94932556152344 50.99998474121094 41.84473419189453 50.99998474121094 L 11.05332183837891 50.99998474121094 C 4.948741912841797 50.99998474121094 3.814697265625e-06 46.29898452758789 3.814697265625e-06 40.49999618530273 L 3.158092498779297 10.49999618530273 C 3.158092498779297 4.701007843017578 8.106834411621094 -3.814697265625e-06 14.21142196655273 -3.814697265625e-06 Z" stroke="none" fill="#629c44"/></g><g transform="translate(9.185 0)" fill="none"><path d="M.028,15.7h0a17,17,0,0,1,33.894-.1c-.307-.021-.624-.031-.943-.031h-31A14.086,14.086,0,0,0,.029,15.7Z" stroke="none"/><path d="M 30.93814277648926 13.06279754638672 C 30.22081756591797 10.51230144500732 28.80934524536133 8.193066596984863 26.82671546936035 6.357397556304932 C 24.14007568359375 3.869917392730713 20.64258575439453 2.49999737739563 16.97850608825684 2.49999737739563 C 13.29882621765137 2.49999737739563 9.790346145629883 3.880067348480225 7.099356174468994 6.385987281799316 C 5.131825923919678 8.218207359313965 3.731961965560913 10.52610778808594 3.018718481063843 13.06279754638672 L 30.93814277648926 13.06279754638672 M 0.02751621603965759 15.6984977722168 L 0.02760621532797813 15.69725704193115 C 0.3505662083625793 11.43579769134521 2.256956100463867 7.47923755645752 5.395626068115234 4.556427478790283 C 8.550876617431641 1.618167400360107 12.66442584991455 -2.54440305980097e-06 16.97850608825684 -2.54440305980097e-06 C 21.27430534362793 -2.54440305980097e-06 25.37499618530273 1.606277465820313 28.52518653869629 4.522947311401367 C 31.65793609619141 7.423487663269043 33.57430648803711 11.35536766052246 33.9212646484375 15.59429740905762 C 33.61390686035156 15.57375717163086 33.29712677001953 15.56279754638672 32.97870635986328 15.56279754638672 L 1.978206157684326 15.56279754638672 C 1.325916171073914 15.56279754638672 0.6700262427330017 15.60839748382568 0.0287462156265974 15.69832706451416 L 0.02751621603965759 15.6984977722168 Z" stroke="none" fill="#629c44"/></g><g transform="translate(9.303 27.556)"><path d="M109.2,158.06a.272.272,0,0,0,.18-.036c.036,0,.072,0,.072-.036a.132.132,0,0,0,.108-.037c.036,0,.071-.036.108-.036s.036-.036.071-.036a1.11,1.11,0,0,0,.288-.288c0-.036.036-.036.036-.072s.037-.071.037-.108.036-.071.036-.108.036-.036.036-.071a1.5,1.5,0,0,1,.037-.18v-4.459A12.778,12.778,0,0,0,97.329,139.9H92.8a1,1,0,0,0-1.007.97v4.46a12.779,12.779,0,0,0,12.875,12.695h4.53ZM93.769,145.366v-3.488h3.524a10.805,10.805,0,0,1,10.862,10.753v2.122L99.7,146.409a.992.992,0,0,0-1.4,1.4l8.451,8.343h-2.122A10.883,10.883,0,0,1,93.769,145.366Z" transform="translate(-91.791 -139.9)" fill="#629c44" stroke="#629c44" stroke-miterlimit="10" stroke-width="0.4"/><path d="M118.642,144.7h-3.251a9,9,0,0,0-9.24,8.72v3.064a.183.183,0,0,0,.025.123c0,.025,0,.05.026.05a.087.087,0,0,0,.026.074c0,.025.026.05.026.075s.025.025.025.049a.768.768,0,0,0,.207.2c.025,0,.025.025.051.025s.052.025.077.025.052.025.078.025a.094.094,0,0,1,.051.024,1.146,1.146,0,0,1,.129.025h3.252a9,9,0,0,0,9.24-8.72v-3.062A.691.691,0,0,0,118.642,144.7Zm-.7,3.755a7.614,7.614,0,0,1-7.794,7.387h-1.524l6.066-5.731a.651.651,0,0,0,0-.963.722.722,0,0,0-1.007,0l-6.066,5.731v-1.458a7.614,7.614,0,0,1,7.794-7.387h2.53v2.421Z" transform="translate(-85.568 -139.01)" fill="#629c44" stroke="#629c44" stroke-miterlimit="10" stroke-width="0.4"/></g></svg>