<svg xmlns="http://www.w3.org/2000/svg" width="22.94" height="26.235" viewBox="0 0 22.94 26.235">
  <g id="Group_1919" data-name="Group 1919" transform="translate(-812.795 -108.573)">
    <g id="Customer_Quotes_Orders-big-green" data-name="Customer Quotes &amp; Orders-big-green" transform="translate(813.434 109.198)">
      <path id="Path_404" data-name="Path 404" d="M-2560.766,103.384v4.336a3.485,3.485,0,0,1-3.475,3.475h0a3.485,3.485,0,0,1-3.475-3.475v-3.307h-14.709s-.576,6.913,4.76,6.8h13.47" transform="translate(2582.443 -86.231)" fill="none" stroke="#5287f5" stroke-miterlimit="10" stroke-width="1.25"/>
      <path id="Path_405" data-name="Path 405" d="M-2434-416.317v-11.03a2.188,2.188,0,0,1,2.182-2.182h12.535a2.188,2.188,0,0,1,2.182,2.182v18.021" transform="translate(2438.776 429.529)" fill="none" stroke="#5287f5" stroke-linecap="round" stroke-miterlimit="10" stroke-width="1.25"/>
      <line id="Line_16" data-name="Line 16" x2="10" transform="translate(8.159 11.976)" fill="none" stroke="#5287f5" stroke-linecap="round" stroke-miterlimit="10" stroke-width="1.25"/>
      <line id="Line_17" data-name="Line 17" x2="6.917" transform="translate(9.756 14.892)" fill="none" stroke="#5287f5" stroke-linecap="round" stroke-miterlimit="10" stroke-width="1.25"/>
      <g id="Group_581" data-name="Group 581" transform="translate(10.289 2.643)">
        <path id="Rectangle_277" data-name="Rectangle 277" d="M2.366,0H3.449A2.366,2.366,0,0,1,5.815,2.366v0a.553.553,0,0,1-.553.553H.553A.553.553,0,0,1,0,2.366v0A2.366,2.366,0,0,1,2.366,0Z" transform="translate(0 3.656)" fill="none" stroke="#5287f5" stroke-miterlimit="10" stroke-width="1.25"/>
        <circle id="Ellipse_18" data-name="Ellipse 18" cx="1.828" cy="1.828" r="1.828" transform="translate(1.086 0)" fill="none" stroke="#5287f5" stroke-miterlimit="10" stroke-width="1.25"/>
      </g>
    </g>
  </g>
</svg>
