<svg xmlns="http://www.w3.org/2000/svg" width="53.674" height="61.448" viewBox="0 0 53.674 61.448">
  <g id="Customer_Quotes_Orders-big-green" data-name="Customer Quotes &amp; Orders-big-green" transform="translate(1.28 1.25)">
    <path id="Path_404" data-name="Path 404" d="M-2531.3,103.384v10.23a8.223,8.223,0,0,1-8.2,8.2h0a8.223,8.223,0,0,1-8.2-8.2v-7.8h-34.7s-1.359,16.31,11.23,16.048h31.781" transform="translate(2582.444 -62.914)" fill="none" stroke="#629c44" stroke-miterlimit="10" stroke-width="2.5"/>
    <path id="Path_405" data-name="Path 405" d="M-2434-398.357v-26.025a5.163,5.163,0,0,1,5.148-5.148h29.575a5.163,5.163,0,0,1,5.148,5.148v42.517" transform="translate(2445.271 429.529)" fill="none" stroke="#629c44" stroke-linecap="round" stroke-miterlimit="10" stroke-width="2.5"/>
    <line id="Line_16" data-name="Line 16" x2="23.593" transform="translate(19.251 28.255)" fill="none" stroke="#629c44" stroke-linecap="round" stroke-miterlimit="10" stroke-width="2"/>
    <line id="Line_17" data-name="Line 17" x2="16.319" transform="translate(23.018 35.134)" fill="none" stroke="#629c44" stroke-linecap="round" stroke-miterlimit="10" stroke-width="2"/>
    <g id="Group_581" data-name="Group 581" transform="translate(24.276 6.236)">
      <path id="Rectangle_277" data-name="Rectangle 277" d="M5.068,0H8.651a5.068,5.068,0,0,1,5.068,5.068V5.7a1.185,1.185,0,0,1-1.185,1.185H1.185A1.185,1.185,0,0,1,0,5.7V5.068A5.068,5.068,0,0,1,5.068,0Z" transform="translate(0 8.627)" fill="none" stroke="#629c44" stroke-miterlimit="10" stroke-width="1.75"/>
      <circle id="Ellipse_18" data-name="Ellipse 18" cx="4.313" cy="4.313" r="4.313" transform="translate(2.562 0)" fill="none" stroke="#629c44" stroke-miterlimit="10" stroke-width="1.75"/>
    </g>
  </g>
</svg>
