<svg xmlns="http://www.w3.org/2000/svg" width="21.708" height="21.707" viewBox="0 0 21.708 21.707"><g transform="translate(739.531 -132.411)"><path d="M-739.281,152.128V134.4a.984.984,0,0,0,.033-.114,1.9,1.9,0,0,1,.7-1.2,2.212,2.212,0,0,1,1.01-.427H-722.3a2.23,2.23,0,0,1,.3.214q1.864,1.856,3.722,3.717a.67.67,0,0,1,.206.5q0,7.393-.009,14.786a2.139,2.139,0,0,1-.192.877,1.874,1.874,0,0,1-1.833,1.111q-4.277,0-8.553,0t-8.574,0a1.973,1.973,0,0,1-1.669-.794A2.246,2.246,0,0,1-739.281,152.128Zm3.854-18.483c-.712,0-1.4-.021-2.087.009a.809.809,0,0,0-.728.592,1.624,1.624,0,0,0-.074.528q-.005,8.489,0,16.978a1.8,1.8,0,0,0,.032.391.847.847,0,0,0,.71.719,8.9,8.9,0,0,0,1.191.012v-.235q0-4.359,0-8.717c0-.5.155-.656.654-.656h14.1c.512,0,.663.152.663.669q0,4.359,0,8.717v.257h.834a.993.993,0,0,0,1.1-1.1q0-7.206-.005-14.411a.5.5,0,0,0-.132-.32c-1.1-1.109-2.2-2.208-3.3-3.315a.356.356,0,0,0-.416-.106v.247c0,1.774,0,3.548,0,5.321a2.544,2.544,0,0,1-.064.635,1.882,1.882,0,0,1-1.921,1.479c-2.85.012-5.7.005-8.551,0a1.92,1.92,0,0,1-1.6-.768,2.016,2.016,0,0,1-.4-1.278q0-2.7,0-5.4Zm.006,19.244h13.481v-8.647h-13.481Zm11.547-19.251h-10.578c0,.07-.011.124-.011.178q0,2.744,0,5.488a.973.973,0,0,0,1.07,1.064q4.235,0,8.47,0a1.37,1.37,0,0,0,.328-.03.951.951,0,0,0,.732-1q0-2.775,0-5.55C-723.861,133.744-723.869,133.7-723.874,133.638Z" transform="translate(0 0)" fill="#5287f5" stroke="#5287f5" stroke-width="0.5"/><path d="M-531.635,169.187c0,.607,0,1.213,0,1.82,0,.409-.184.591-.594.593q-.848,0-1.7,0c-.416,0-.6-.187-.6-.61q0-1.8,0-3.6c0-.426.179-.609.6-.611q.848-.005,1.7,0c.425,0,.6.179.6.607Q-531.634,168.287-531.635,169.187Zm-1.925-1.433c0,.931,0,1.84,0,2.75,0,.044.056.125.088.126.287.01.574.006.858.006v-2.881Z" transform="translate(-193.189 -32.19)" fill="#5287f5" stroke="#5287f5" stroke-width="0.5"/></g></svg>