<svg xmlns="http://www.w3.org/2000/svg" width="34" height="34" viewBox="0 0 34 34"><path d="M18.067,34H15.933a3.134,3.134,0,0,1-3.13-3.13v-.722a13.726,13.726,0,0,1-2.131-.885l-.512.512a3.13,3.13,0,0,1-4.427,0L4.225,28.267a3.13,3.13,0,0,1,0-4.427l.511-.511A13.727,13.727,0,0,1,3.852,21.2H3.13A3.134,3.134,0,0,1,0,18.067V15.933A3.134,3.134,0,0,1,3.13,12.8h.722a13.73,13.73,0,0,1,.885-2.131l-.512-.512a3.13,3.13,0,0,1,0-4.427L5.734,4.225a3.13,3.13,0,0,1,4.427,0l.511.511A13.739,13.739,0,0,1,12.8,3.852V3.13A3.134,3.134,0,0,1,15.933,0h2.134A3.133,3.133,0,0,1,21.2,3.13v.722a13.726,13.726,0,0,1,2.131.885l.512-.512a3.13,3.13,0,0,1,4.427,0l1.508,1.508a3.13,3.13,0,0,1,0,4.427l-.511.511a13.727,13.727,0,0,1,.885,2.131h.722A3.134,3.134,0,0,1,34,15.933v2.134a3.134,3.134,0,0,1-3.13,3.13h-.722a13.73,13.73,0,0,1-.885,2.131l.512.512a3.13,3.13,0,0,1,0,4.427l-1.508,1.508a3.13,3.13,0,0,1-4.427,0l-.511-.511a13.739,13.739,0,0,1-2.131.885v.722A3.133,3.133,0,0,1,18.067,34ZM11,27.171a11.741,11.741,0,0,0,3.043,1.263,1,1,0,0,1,.747.964V30.87a1.139,1.139,0,0,0,1.138,1.138h2.134A1.139,1.139,0,0,0,19.2,30.87V29.4a1,1,0,0,1,.747-.964A11.741,11.741,0,0,0,23,27.171a1,1,0,0,1,1.211.153l1.042,1.042a1.137,1.137,0,0,0,1.609,0l1.509-1.509a1.138,1.138,0,0,0,0-1.609l-1.042-1.042A1,1,0,0,1,27.172,23a11.739,11.739,0,0,0,1.263-3.043A1,1,0,0,1,29.4,19.2H30.87a1.139,1.139,0,0,0,1.138-1.138V15.933A1.139,1.139,0,0,0,30.87,14.8H29.4a1,1,0,0,1-.964-.747A11.742,11.742,0,0,0,27.172,11a1,1,0,0,1,.153-1.211l1.042-1.042a1.137,1.137,0,0,0,0-1.609L26.858,5.634a1.137,1.137,0,0,0-1.609,0L24.207,6.676A1,1,0,0,1,23,6.829a11.741,11.741,0,0,0-3.043-1.263A1,1,0,0,1,19.2,4.6V3.13a1.139,1.139,0,0,0-1.138-1.138H15.933A1.139,1.139,0,0,0,14.8,3.13V4.6a1,1,0,0,1-.747.964A11.741,11.741,0,0,0,11,6.829a1,1,0,0,1-1.211-.153L8.752,5.634a1.137,1.137,0,0,0-1.609,0L5.634,7.142a1.138,1.138,0,0,0,0,1.609L6.676,9.793A1,1,0,0,1,6.829,11a11.739,11.739,0,0,0-1.263,3.043A1,1,0,0,1,4.6,14.8H3.13a1.139,1.139,0,0,0-1.138,1.138v2.134A1.139,1.139,0,0,0,3.13,19.2H4.6a1,1,0,0,1,.964.747A11.742,11.742,0,0,0,6.829,23a1,1,0,0,1-.153,1.211L5.634,25.249a1.137,1.137,0,0,0,0,1.609l1.509,1.509a1.137,1.137,0,0,0,1.609,0l1.042-1.042A1,1,0,0,1,11,27.171Z" transform="translate(0 0)" fill="#629c44"/><path d="M151.522,158.444a6.922,6.922,0,1,1,6.922-6.922A6.93,6.93,0,0,1,151.522,158.444Zm0-11.98a5.058,5.058,0,1,0,5.058,5.058A5.064,5.064,0,0,0,151.522,146.464Z" transform="translate(-134.522 -134.522)" fill="#629c44"/></svg>