<svg xmlns="http://www.w3.org/2000/svg" width="98.857" height="98.857" viewBox="0 0 98.857 98.857"><path d="M52.531,98.857h-6.2a9.111,9.111,0,0,1-9.1-9.1v-2.1a39.91,39.91,0,0,1-6.2-2.572l-1.487,1.488a9.1,9.1,0,0,1-12.872,0l-4.385-4.385a9.1,9.1,0,0,1,0-12.872l1.486-1.486a39.912,39.912,0,0,1-2.572-6.2H9.1a9.111,9.111,0,0,1-9.1-9.1v-6.2a9.111,9.111,0,0,1,9.1-9.1h2.1a39.92,39.92,0,0,1,2.572-6.2l-1.487-1.487a9.1,9.1,0,0,1,0-12.872l4.385-4.385a9.1,9.1,0,0,1,12.872,0l1.486,1.486a39.947,39.947,0,0,1,6.2-2.572V9.1a9.111,9.111,0,0,1,9.1-9.1h6.2a9.111,9.111,0,0,1,9.1,9.1v2.1a39.909,39.909,0,0,1,6.2,2.572l1.487-1.487a9.1,9.1,0,0,1,12.872,0l4.385,4.385a9.1,9.1,0,0,1,0,12.872l-1.486,1.486a39.913,39.913,0,0,1,2.572,6.2h2.1a9.111,9.111,0,0,1,9.1,9.1v6.2a9.111,9.111,0,0,1-9.1,9.1h-2.1a39.92,39.92,0,0,1-2.572,6.2l1.488,1.487a9.1,9.1,0,0,1,0,12.872l-4.385,4.385a9.1,9.1,0,0,1-12.872,0l-1.486-1.486a39.947,39.947,0,0,1-6.2,2.572v2.1A9.111,9.111,0,0,1,52.531,98.857ZM32,79a34.139,34.139,0,0,0,8.849,3.673,2.9,2.9,0,0,1,2.173,2.8v4.276a3.312,3.312,0,0,0,3.308,3.308h6.2a3.312,3.312,0,0,0,3.308-3.308V85.481a2.9,2.9,0,0,1,2.173-2.8A34.139,34.139,0,0,0,66.861,79a2.9,2.9,0,0,1,3.522.445l3.029,3.029a3.307,3.307,0,0,0,4.677,0l4.388-4.388a3.307,3.307,0,0,0,0-4.677l-3.03-3.03A2.9,2.9,0,0,1,79,66.861a34.133,34.133,0,0,0,3.673-8.849,2.9,2.9,0,0,1,2.8-2.172h4.276a3.312,3.312,0,0,0,3.308-3.308v-6.2a3.312,3.312,0,0,0-3.308-3.308H85.481a2.9,2.9,0,0,1-2.8-2.172A34.14,34.14,0,0,0,79,32a2.9,2.9,0,0,1,.445-3.522l3.029-3.029a3.307,3.307,0,0,0,0-4.677l-4.388-4.388a3.307,3.307,0,0,0-4.677,0l-3.03,3.03a2.9,2.9,0,0,1-3.522.445,34.139,34.139,0,0,0-8.849-3.673,2.9,2.9,0,0,1-2.173-2.8V9.1a3.312,3.312,0,0,0-3.308-3.308h-6.2A3.312,3.312,0,0,0,43.019,9.1v4.276a2.9,2.9,0,0,1-2.173,2.8A34.139,34.139,0,0,0,32,19.855a2.9,2.9,0,0,1-3.522-.445L25.446,16.38a3.307,3.307,0,0,0-4.677,0L16.38,20.767a3.308,3.308,0,0,0,0,4.677l3.03,3.03A2.9,2.9,0,0,1,19.855,32a34.133,34.133,0,0,0-3.673,8.849,2.9,2.9,0,0,1-2.8,2.172H9.1a3.312,3.312,0,0,0-3.308,3.308v6.2A3.312,3.312,0,0,0,9.1,55.839h4.276a2.9,2.9,0,0,1,2.8,2.172,34.14,34.14,0,0,0,3.673,8.849,2.9,2.9,0,0,1-.445,3.522L16.38,73.412a3.307,3.307,0,0,0,0,4.677l4.388,4.388a3.307,3.307,0,0,0,4.677,0l3.03-3.03A2.91,2.91,0,0,1,32,79Z" transform="translate(0 0)" fill="#4e4e4e"/><path d="M165.171,185.742a20.571,20.571,0,1,1,20.571-20.571A20.594,20.594,0,0,1,165.171,185.742Zm0-35.6A15.031,15.031,0,1,0,180.2,165.171,15.048,15.048,0,0,0,165.171,150.14Z" transform="translate(-115.745 -115.742)" fill="#4e4e4e"/></svg>