<svg xmlns="http://www.w3.org/2000/svg" width="29.464" height="29.464" viewBox="0 0 29.464 29.464"><g transform="translate(0.25 0.25)"><path d="M-659.744,224.964a1.283,1.283,0,0,1-.913-1.411c.026-1.48.012-2.96.007-4.44a5.657,5.657,0,0,0-2.017-4.458c-1.517-1.315-3.056-2.607-4.54-3.959a7.585,7.585,0,0,1-2.54-5.636c-.04-1.837-.01-3.677-.011-5.515,0-.1,0-.207,0-.378-.109.1-.181.166-.25.234-.624.616-1.28,1.2-1.861,1.857a1.189,1.189,0,0,1-2.131-.393v-.453a6.057,6.057,0,0,1,.562-.79c.746-.767,1.531-1.5,2.275-2.265A4.047,4.047,0,0,1-669.022,196h.792a3.988,3.988,0,0,1,2.145,1.368c.813.853,1.661,1.673,2.486,2.514a1.109,1.109,0,0,1,.234,1.3,1.128,1.128,0,0,1-1.076.642,1.211,1.211,0,0,1-.816-.4q-.982-1-1.972-1.988c-.07-.071-.145-.137-.266-.25v.329c0,1.763,0,3.526,0,5.289a5.644,5.644,0,0,0,2.024,4.428c1.436,1.251,2.882,2.49,4.316,3.743a7.8,7.8,0,0,1,2.759,5.94c.032,1.546-.011,3.093.015,4.638a1.285,1.285,0,0,1-.913,1.411Z" transform="translate(674 -196)" fill="#fff" stroke="#fff" stroke-width="0.5"/><path d="M-373.382,200.865l-.088.206a1.12,1.12,0,0,1-1.85.356c-.668-.651-1.318-1.321-1.974-1.985a2.729,2.729,0,0,1-.191-.241l-.083.04v.292c0,1.744,0,3.488,0,5.231a7.839,7.839,0,0,1-2.7,6.079c-1.279,1.142-2.585,2.255-3.885,3.374a1.128,1.128,0,0,1-1.619-.089,1.117,1.117,0,0,1,.139-1.613q1.863-1.628,3.737-3.243a5.707,5.707,0,0,0,2.069-4.521c0-1.838,0-3.675,0-5.58-.108.1-.18.161-.248.228-.664.656-1.323,1.316-1.992,1.967a1.112,1.112,0,0,1-1.3.236,1.053,1.053,0,0,1-.63-1.073,1.427,1.427,0,0,1,.337-.748c1-1.025,2.031-2.021,3.052-3.026A3.182,3.182,0,0,1-379.1,196h.792a3.967,3.967,0,0,1,2.141,1.365c.726.764,1.492,1.49,2.22,2.252a6.284,6.284,0,0,1,.56.8Z" transform="translate(402.345 -196)" fill="#fff" stroke="#fff" stroke-width="0.5"/></g></svg>