<svg xmlns="http://www.w3.org/2000/svg" width="18.536" height="18.536" viewBox="0 0 18.536 18.536">
  <g id="split-ic" transform="translate(0.125 0.125)">
    <path id="Path_460" data-name="Path 460" d="M-665,214.286a.81.81,0,0,1-.576-.891c.017-.934.007-1.869,0-2.8a3.571,3.571,0,0,0-1.273-2.815c-.958-.83-1.929-1.646-2.866-2.5a4.788,4.788,0,0,1-1.6-3.558c-.025-1.16-.006-2.321-.007-3.482,0-.065,0-.13,0-.239-.069.065-.114.105-.158.148-.394.389-.808.76-1.175,1.173a.751.751,0,0,1-1.346-.248v-.286a3.829,3.829,0,0,1,.354-.5c.471-.484.967-.945,1.437-1.43a2.555,2.555,0,0,1,1.352-.857h.5a2.518,2.518,0,0,1,1.354.864c.513.538,1.048,1.056,1.57,1.587a.7.7,0,0,1,.148.821.712.712,0,0,1-.679.405.765.765,0,0,1-.515-.253q-.62-.63-1.245-1.255c-.044-.045-.091-.086-.168-.158v.207c0,1.113,0,2.226,0,3.339a3.563,3.563,0,0,0,1.278,2.8c.907.79,1.82,1.572,2.725,2.363a4.923,4.923,0,0,1,1.742,3.75c.02.976-.007,1.952.01,2.928a.811.811,0,0,1-.576.891Z" transform="translate(674 -196)" fill="#357ebd" stroke="#357ebd" stroke-width="0.25"/>
    <path id="Path_461" data-name="Path 461" d="M-378.054,199.071l-.056.13a.707.707,0,0,1-1.168.224c-.422-.411-.832-.834-1.246-1.253a1.719,1.719,0,0,1-.12-.152l-.052.025v.184c0,1.1,0,2.2,0,3.3a4.949,4.949,0,0,1-1.706,3.838c-.808.721-1.632,1.423-2.453,2.13a.712.712,0,0,1-1.022-.056.705.705,0,0,1,.088-1.018q1.176-1.028,2.359-2.047a3.6,3.6,0,0,0,1.306-2.854c0-1.16,0-2.32,0-3.523-.068.063-.114.1-.156.144-.419.414-.835.831-1.258,1.242a.7.7,0,0,1-.821.149.664.664,0,0,1-.4-.677.9.9,0,0,1,.213-.472c.632-.647,1.282-1.276,1.927-1.91a2.009,2.009,0,0,1,.958-.477h.5a2.5,2.5,0,0,1,1.352.862c.458.483.942.941,1.4,1.422a3.969,3.969,0,0,1,.354.5Z" transform="translate(396.34 -196)" fill="#357ebd" stroke="#357ebd" stroke-width="0.25"/>
  </g>
</svg>
