<svg xmlns="http://www.w3.org/2000/svg" width="87.356" height="82.007" viewBox="0 0 87.356 82.007">
  <g id="Supplier_Management-big-green" data-name="Supplier Management-big-green" transform="translate(2 2)">
    <path id="Path_399" data-name="Path 399" d="M-2196.311-43.929h6.351a3.373,3.373,0,0,1,3.374,3.373V2.129a3.373,3.373,0,0,0,3.374,3.373h55.445a3.375,3.375,0,0,0,2.744-1.41l11.279-15.765" transform="translate(2196.311 43.929)" fill="none" stroke="#629c44" stroke-linecap="round" stroke-miterlimit="10" stroke-width="4"/>
    <path id="Path_400" data-name="Path 400" d="M-2124.224,6.409h-53.654c-8.087,0-3.313-8.181-4.275-13.427" transform="translate(2191.782 53.077)" fill="none" stroke="#629c44" stroke-linecap="round" stroke-miterlimit="10" stroke-width="4"/>
    <ellipse id="Ellipse_15" data-name="Ellipse 15" cx="9.438" cy="9.438" rx="9.438" ry="9.438" transform="translate(8.227 59.131)" fill="none" stroke="#629c44" stroke-linecap="round" stroke-miterlimit="10" stroke-width="4"/>
    <ellipse id="Ellipse_16" data-name="Ellipse 16" cx="9.438" cy="9.438" rx="9.438" ry="9.438" transform="translate(61.11 59.131)" fill="none" stroke="#629c44" stroke-linecap="round" stroke-miterlimit="10" stroke-width="4"/>
    <rect id="Rectangle_279" data-name="Rectangle 279" width="19.012" height="32.605" rx="1" transform="translate(44.417 16.827)" fill="none" stroke="#629c44" stroke-linecap="round" stroke-miterlimit="10" stroke-width="4"/>
    <rect id="Rectangle_280" data-name="Rectangle 280" width="19.012" height="32.605" rx="1" transform="translate(18.625 16.827)" fill="none" stroke="#629c44" stroke-linecap="round" stroke-miterlimit="10" stroke-width="4"/>
  </g>
</svg>
