<svg xmlns="http://www.w3.org/2000/svg" width="18.466" height="16.146" viewBox="0 0 18.466 16.146"><path d="M32.566,164.587h3.027a.134.134,0,0,1,.128.14v9.707a1.811,1.811,0,0,0,.479,1.236,2.208,2.208,0,0,0-.479,1.377,1.912,1.912,0,1,0,3.814.263,2.228,2.228,0,0,0-.169-1.15h6.41a2.215,2.215,0,0,0-.184.887,2,2,0,0,0,2.062,2.094,2.116,2.116,0,0,0-.147-4.194h-10.2a.49.49,0,0,1-.474-.427.5.5,0,0,1,.462-.6h10.97a1.94,1.94,0,0,0,1.793-1.362l.57-1.668a.626.626,0,0,0-.324-.781h0a.54.54,0,0,0-.712.355l-.57,1.668a.836.836,0,0,1-.622.563L48.388,163H37.082v9.723a1.4,1.4,0,0,0-.255.065v-8.061a1.3,1.3,0,0,0-1.234-1.353H32.574a.386.386,0,0,0-.368.395l-.008.406A.388.388,0,0,0,32.566,164.587ZM45,170.012v-5.666l2.193-.013.1,8.374h-9.1v-8.493h2.3v5.8Zm-3.4-1.213v-4.586h2.3V168.8Zm6,9.13a.89.89,0,1,1,.722-.791A.851.851,0,0,1,47.59,177.929Zm-9.871,0a.89.89,0,1,1,.722-.791A.851.851,0,0,1,37.718,177.929Z" transform="translate(-32.198 -163)" fill="#4e4e4e"/></svg>