<svg xmlns="http://www.w3.org/2000/svg" width="18.688" height="18.893" viewBox="0 0 18.688 18.893"><g transform="translate(726.733 -190.42)"><path d="M-710.43,191.8v1.991a.636.636,0,0,1-.634.634H-712.7a.636.636,0,0,1-.634-.634v-2.562a.177.177,0,0,0-.23-.169,3.911,3.911,0,0,0-2.65,3.6c-.061,1.334-.115,1.439-.312,1.661-.02.022-.044.039-.064.06l-4.58,4.785a.309.309,0,0,1-.3.086,3.762,3.762,0,0,0-.817-.1,3.783,3.783,0,0,0-3.827,3.737,3.771,3.771,0,0,0,3.8,3.8,3.823,3.823,0,0,0,3.738-3.75,3.772,3.772,0,0,0-.088-.834.248.248,0,0,1,.067-.228l4.656-4.641a2.351,2.351,0,0,1,1.49-.809,3.973,3.973,0,0,0,3.771-3.758,3.763,3.763,0,0,0-1.476-3.012A.177.177,0,0,0-710.43,191.8Z" transform="translate(0 0)" fill="none" stroke="#629c44" stroke-miterlimit="10" stroke-width="1.25"/><path d="M-719.764,224.491l-1.654.313-1.1-1.276.556-1.589,1.654-.313,1.1,1.276Z" transform="translate(-1.403 -18.311)" fill="none" stroke="#629c44" stroke-miterlimit="10" stroke-width="1"/><path d="M-719.522,200.711l3.312-3.342" transform="translate(0.688 0.694)" fill="none" stroke="#629c44" stroke-linecap="round" stroke-width="1"/></g></svg>