<svg xmlns="http://www.w3.org/2000/svg" width="45" height="45" viewBox="0 0 45 45"><g transform="translate(-1285 -219.999)"><g transform="translate(1285.154 220)" opacity="0.3"><g transform="translate(-0.154 0)" fill="#90ee90" stroke="#069d06" stroke-width="1.5"><rect width="45" height="45" rx="4" stroke="none"/><rect x="0.75" y="0.75" width="43.5" height="43.5" rx="3.25" fill="none"/></g></g><g transform="translate(1293.588 227.818)"><path d="M-1993.788,83.021h-7.7a.7.7,0,0,0-.679.718V99.47a.7.7,0,0,0,.679.718h10.547a.7.7,0,0,0,.679-.718l-.066-12.517Z" transform="translate(2002.17 -83.021)" fill="none" stroke="#069d06" stroke-linecap="round" stroke-miterlimit="10" stroke-width="2"/><path d="M-1965.138,83.021v3.007a.766.766,0,0,0,.738.791h2.729" transform="translate(1973.305 -83.021)" fill="none" stroke="#069d06" stroke-linecap="round" stroke-miterlimit="10" stroke-width="2"/></g><g transform="translate(1310.805 239.296)"><path d="M-1993.788,83.021h-7.7a.7.7,0,0,0-.679.718V99.47a.7.7,0,0,0,.679.718h10.547a.7.7,0,0,0,.679-.718l-.066-12.517Z" transform="translate(2002.17 -83.021)" fill="none" stroke="#069d06" stroke-linecap="round" stroke-miterlimit="10" stroke-width="2"/><path d="M-1965.138,83.021v3.007a.766.766,0,0,0,.738.791h2.729" transform="translate(1973.305 -83.021)" fill="none" stroke="#069d06" stroke-linecap="round" stroke-miterlimit="10" stroke-width="2"/></g><g transform="translate(1308.087 229.228)"><g transform="translate(0)"><path d="M-712.911,209.375c-.522-8.346-8.047-6.967-8.047-6.967" transform="translate(720.958 -202.323)" fill="none" stroke="#069d06" stroke-linecap="round" stroke-miterlimit="10" stroke-width="2"/><path d="M-638.745,275.313l2.049,1.416,1.6-1.751" transform="translate(644.743 -269.677)" fill="none" stroke="#069d06" stroke-linecap="round" stroke-miterlimit="10" stroke-width="2"/></g></g><g transform="translate(1296.608 248.358)"><g transform="translate(0)"><path d="M-720.958,202.323c.522,8.346,8.047,6.967,8.047,6.967" transform="translate(722.56 -202.323)" fill="none" stroke="#069d06" stroke-linecap="round" stroke-miterlimit="10" stroke-width="2"/><path d="M-635.094,276.393l-2.049-1.416-1.6,1.751" transform="translate(638.745 -274.978)" fill="none" stroke="#069d06" stroke-linecap="round" stroke-miterlimit="10" stroke-width="2"/></g></g></g></svg>