<svg xmlns="http://www.w3.org/2000/svg" width="36.941" height="35.501" viewBox="0 0 36.941 35.501"><path d="M97.244,274.048a4.235,4.235,0,0,1-.973-4.8.726.726,0,0,1,.143-.219l9.241-9.741a.7.7,0,0,1,1-.023l2.627,2.524a.751.751,0,0,1,.219.646,8.494,8.494,0,0,0,.18,3.225.753.753,0,0,1-.174.707l-7.2,7.647a.817.817,0,0,1-.085.077,4.707,4.707,0,0,1-2.641.954A3.276,3.276,0,0,1,97.244,274.048Zm25.342.41a.747.747,0,0,1-.276-.177l-7.588-7.817a.775.775,0,0,1-.115-.154,6.435,6.435,0,0,1-.772-4.448.762.762,0,0,0-.168-.728l-5.642-6.028a.7.7,0,0,0-.514-.225h-3.22a.705.705,0,0,1-.569-.291l-5.113-6.955a.749.749,0,0,1,.064-.964l3-3.1a.7.7,0,0,1,.928-.072l6.973,5.282a.744.744,0,0,1,.291.594v3.311a.747.747,0,0,0,.219.529l5.827,5.789a.7.7,0,0,0,.748.159,3.735,3.735,0,0,1,4.158.652l7.5,7.728a.637.637,0,0,1,.058.069,2.349,2.349,0,0,1,.228,2.74c-.021.026-.042.052-.066.076l-3.388,3.49a2.423,2.423,0,0,1-1.683.7A2.575,2.575,0,0,1,122.586,274.458Zm3.028-16.914a6.818,6.818,0,0,0-6.432-2.659.706.706,0,0,1-.59-.21l-4.117-4.243a.741.741,0,0,1-.21-.5c-.033-1.636.347-9.31,10.389-8.871a.71.71,0,0,1,.28.072c.3.148.836.554.069,1.345l-4.076,4.2a.749.749,0,0,0-.2.641l.544,3.367a.729.729,0,0,0,.55.6l3.244.742a.7.7,0,0,0,.672-.211l4.164-4.506a.669.669,0,0,1,.477-.227c.28,0,.645.171.784,1.037.223,1.388.539,6.893-4.272,9.442-.076.041-.247.125-.428.2a.7.7,0,0,1-.849-.219Z" transform="translate(-95.094 -240.289)" fill="none" stroke="#629c44" stroke-miterlimit="10" stroke-width="1.5"/></svg>