<svg xmlns="http://www.w3.org/2000/svg" width="64.479" height="64.26" viewBox="0 0 64.479 64.26">
  <g id="Tools_Settings-big-green" data-name="Tools &amp; Settings-big-green" transform="translate(2.5 2.5)">
    <g id="Union_15" data-name="Union 15" transform="translate(-96.868 -241.04)" fill="none" stroke-miterlimit="10">
      <path d="M141.506,300.012a1.255,1.255,0,0,1-.471-.312l-12.969-13.8a1.313,1.313,0,0,1-.2-.273c-.43-.794-2.258-4.458-1.319-7.85a1.369,1.369,0,0,0-.288-1.283l-9.644-10.639a1.185,1.185,0,0,0-.878-.4h-5.5a1.2,1.2,0,0,1-.973-.515l-8.741-12.272a1.361,1.361,0,0,1,.11-1.7l5.135-5.462a1.168,1.168,0,0,1,1.588-.128l11.916,9.32a1.327,1.327,0,0,1,.5,1.047v5.843a1.341,1.341,0,0,0,.374.935l9.961,10.218a1.167,1.167,0,0,0,1.278.281c1.412-.57,4.7-1.47,7.106,1.148l12.822,13.639a1.188,1.188,0,0,1,.1.121c.317.436,1.875,2.771.388,4.836a1.435,1.435,0,0,1-.111.134l-5.792,6.16a4.093,4.093,0,0,1-2.877,1.235A4.276,4.276,0,0,1,141.506,300.012Zm-42.358-1.7a7.66,7.66,0,0,1-1.664-8.477,1.3,1.3,0,0,1,.246-.388l14.836-16.214a1.169,1.169,0,0,1,1.706-.041l4.49,4.457a1.345,1.345,0,0,1,.374,1.139,15.458,15.458,0,0,0,.31,5.692,1.365,1.365,0,0,1-.3,1.246l-11.355,12.519a1.311,1.311,0,0,1-.146.137,7.9,7.9,0,0,1-4.513,1.683A5.513,5.513,0,0,1,99.149,298.314Zm47.532-28.149a11.513,11.513,0,0,0-10.993-4.694,1.179,1.179,0,0,1-1.009-.37l-7.037-7.485a1.334,1.334,0,0,1-.357-.891c-.056-2.885.594-16.428,17.758-15.653a1.164,1.164,0,0,1,.479.128c.509.26,1.428.976.115,2.371l-6.966,7.41a1.35,1.35,0,0,0-.34,1.131l.932,5.943a1.269,1.269,0,0,0,.94,1.055l5.542,1.309a1.176,1.176,0,0,0,1.149-.372l7.119-7.952a1.133,1.133,0,0,1,.815-.4c.479-.007,1.1.3,1.34,1.832.38,2.449.921,12.163-7.3,16.661-.13.072-.425.221-.73.363a1.173,1.173,0,0,1-.495.11A1.189,1.189,0,0,1,146.68,270.165Z" stroke="none"/>
      <path d="M 143.019775390625 300.299560546875 C 144.8090209960938 300.2994689941406 145.8972015380859 299.0646057128906 145.8972015380859 299.0646057128906 L 151.6887054443359 292.9049987792969 C 151.7274017333984 292.8627014160156 151.7660980224609 292.8177185058594 151.7994079589844 292.7709045410156 C 153.2862091064453 290.706298828125 151.7283020019531 288.3708190917969 151.4114990234375 287.9352111816406 C 151.3800048828125 287.8919982910156 151.3467102050781 287.8524169921875 151.3097991943359 287.813720703125 L 138.4875030517578 274.1751098632813 C 137.2336730957031 272.8136291503906 135.7444763183594 272.4036254882813 134.4047393798828 272.4036254882813 C 133.1681671142578 272.4036254882813 132.0588836669922 272.7532653808594 131.381103515625 273.0267028808594 C 131.2411651611328 273.0829772949219 131.0956420898438 273.1103210449219 130.9512481689453 273.1103210449219 C 130.6406097412109 273.1103210449219 130.3353424072266 272.9836730957031 130.1031036376953 272.7459106445313 L 120.1419143676758 262.5281982421875 C 119.9034118652344 262.2834167480469 119.7683944702148 261.9458923339844 119.7683944702148 261.5931091308594 L 119.7683944702148 255.7503051757813 C 119.7683944702148 255.3372039794922 119.5839004516602 254.9484100341797 119.2707138061523 254.70361328125 L 107.3547134399414 245.3841094970703 C 107.1378326416016 245.2145233154297 106.8838882446289 245.1313934326172 106.6311340332031 245.1313934326172 C 106.3164596557617 245.1313934326172 106.0036773681641 245.2603607177734 105.7671127319336 245.5119018554688 L 100.6317138671875 250.9739990234375 C 100.2005996704102 251.4329986572266 100.1537933349609 252.1602020263672 100.5219116210938 252.6768035888672 L 109.2626953125 264.94921875 C 109.4930953979492 265.273193359375 109.8540115356445 265.4640197753906 110.2356109619141 265.4640197753906 L 115.7400131225586 265.4640197753906 C 116.0712127685547 265.4640197753906 116.3889007568359 265.6071166992188 116.6184005737305 265.8609008789063 L 126.2627944946289 276.4998168945313 C 126.5714950561523 276.839111328125 126.675895690918 277.3296203613281 126.5508117675781 277.7823181152344 C 125.6121139526367 281.1744079589844 127.4399948120117 284.8383178710938 127.8701934814453 285.6321105957031 C 127.9241943359375 285.7319946289063 127.9899139404297 285.8229064941406 128.06640625 285.9048156738281 L 141.035400390625 299.7000122070313 C 141.1677093505859 299.8403930664063 141.3296966552734 299.9457092285156 141.5061187744141 300.0122985839844 C 142.0527648925781 300.2178649902344 142.5593872070313 300.2995910644531 143.019775390625 300.299560546875 M 103.1328659057617 300.0643920898438 C 105.3760833740234 300.0643310546875 107.2386856079102 298.7014770507813 107.645393371582 298.3815002441406 C 107.6975936889648 298.3392028808594 107.7462005615234 298.2942199707031 107.7912139892578 298.2447204589844 L 119.1464996337891 285.7257080078125 C 119.4471130371094 285.3963012695313 119.5559997558594 284.9237976074219 119.4462127685547 284.4801025390625 C 118.8306121826172 281.9924926757813 118.9925994873047 279.8280029296875 119.1366119384766 278.7885131835938 C 119.1951141357422 278.3655090332031 119.0555953979492 277.9407043457031 118.7621994018555 277.6499938964844 L 114.2720947265625 273.1932067871094 C 114.0373840332031 272.9593811035156 113.7381896972656 272.8433227539063 113.4393692016602 272.8433227539063 C 113.1217346191406 272.8433227539063 112.8045349121094 272.9744567871094 112.5657119750977 273.234619140625 L 97.73009490966797 289.4490051269531 C 97.62659454345703 289.5614929199219 97.54380035400391 289.6920166015625 97.48441314697266 289.8369140625 C 97.06861114501953 290.8403930664063 95.70779418945313 294.8930969238281 99.14851379394531 298.3139953613281 C 100.4685134887695 299.6268615722656 101.8617553710938 300.0643920898438 103.1328659057617 300.0643920898438 M 147.6400909423828 270.6607971191406 C 147.8064575195313 270.6607971191406 147.9747924804688 270.6249694824219 148.1345977783203 270.5508117675781 C 148.439697265625 270.4095153808594 148.7349090576172 270.2601013183594 148.864501953125 270.1881103515625 C 157.0868988037109 265.6899108886719 156.5460052490234 255.9762115478516 156.1661987304688 253.5273132324219 C 155.9312591552734 252.0152893066406 155.3188018798828 251.6956787109375 154.8422241210938 251.6956787109375 C 154.8368530273438 251.6956787109375 154.8314514160156 251.6957244873047 154.8261108398438 251.69580078125 C 154.5156097412109 251.7003021240234 154.2248992919922 251.8578033447266 154.0115966796875 252.0963134765625 L 146.8926086425781 260.0478210449219 C 146.6596374511719 260.3077697753906 146.3386840820313 260.4505615234375 146.0084533691406 260.4505615234375 C 145.9202423095703 260.4505615234375 145.8313293457031 260.4403686523438 145.7433013916016 260.4194946289063 L 140.2011108398438 259.1100158691406 C 139.7151031494141 258.9948120117188 139.3433990478516 258.5772094726563 139.2615051269531 258.0552062988281 L 138.3300018310547 252.1125030517578 C 138.2651977539063 251.6985015869141 138.3912048339844 251.2782135009766 138.6701965332031 250.981201171875 C 140.0418090820313 249.5223083496094 144.2088012695313 245.0889129638672 145.6361999511719 243.5715026855469 C 146.9493103027344 242.1756134033203 146.0295104980469 241.4600982666016 145.52099609375 241.2000122070313 C 145.3715972900391 241.1226043701172 145.2078094482422 241.0803070068359 145.0422058105469 241.0722045898438 C 144.5655517578125 241.0506896972656 144.1035003662109 241.0402374267578 143.6519775390625 241.0402374267578 C 127.8446197509766 241.0402374267578 127.2300491333008 253.9197387695313 127.284294128418 256.7250061035156 C 127.2905960083008 257.0606994628906 127.4183959960938 257.3793029785156 127.6415939331055 257.6159973144531 L 134.6786956787109 265.101318359375 C 134.9087982177734 265.3462829589844 135.2205810546875 265.4803161621094 135.5424194335938 265.4803161621094 C 135.5906677246094 265.4803161621094 135.6391448974609 265.477294921875 135.6876068115234 265.47119140625 C 136.26513671875 265.3978881835938 136.8183288574219 265.3639831542969 137.349609375 265.3639831542969 C 142.5524749755859 265.3639831542969 145.5549011230469 268.6270141601563 146.6802062988281 270.1647033691406 C 146.9160919189453 270.4866638183594 147.2733459472656 270.6607971191406 147.6400909423828 270.6607971191406 M 143.0199432373047 302.799560546875 C 143.0198974609375 302.799560546875 143.0198974609375 302.799560546875 143.0198974609375 302.799560546875 C 142.2209014892578 302.7995910644531 141.41552734375 302.6491394042969 140.6261901855469 302.3523254394531 C 140.0906372070313 302.150146484375 139.6041259765625 301.8263549804688 139.2162017822266 301.414794921875 L 126.2449417114258 287.6172180175781 L 126.2421112060547 287.6141967773438 L 126.2392959594727 287.6111755371094 C 126.0169219970703 287.373046875 125.8257217407227 287.1072082519531 125.6709976196289 286.821044921875 C 125.0485076904297 285.6724548339844 123.1635131835938 281.7441101074219 123.9953308105469 277.7208251953125 L 115.1505889892578 267.9640197753906 L 110.2356109619141 267.9640197753906 C 109.0480117797852 267.9640197753906 107.9226837158203 267.3786315917969 107.2253646850586 266.3981323242188 L 98.485595703125 254.1271362304688 C 97.42458343505859 252.6381378173828 97.56063842773438 250.592041015625 98.80945587158203 249.2624664306641 L 103.9457092285156 243.7994537353516 C 104.6438827514648 243.0570526123047 105.6226119995117 242.6313934326172 106.6311416625977 242.6313934326172 C 107.4447250366211 242.6313934326172 108.2485504150391 242.9095458984375 108.8945541381836 243.4146118164063 L 120.8108673095703 252.734375 C 121.7232971191406 253.4475402832031 122.2683944702148 254.5751647949219 122.2683944702148 255.7503051757813 L 122.2683944702148 261.1280822753906 L 131.3072967529297 270.3997497558594 C 132.1541442871094 270.1337280273438 133.227294921875 269.9036254882813 134.4047393798828 269.9036254882813 C 136.7212371826172 269.9036254882813 138.7654724121094 270.7915954589844 140.3175506591797 272.4718627929688 L 153.1247406005859 286.0944213867188 C 153.2367248535156 286.2123413085938 153.3373107910156 286.3329772949219 153.4320678710938 286.4630432128906 C 153.7607421875 286.9149475097656 154.3599395751953 287.8543090820313 154.6945495605469 289.0874938964844 C 155.1950988769531 290.9322509765625 154.8881530761719 292.7579956054688 153.8302459716797 294.2288818359375 C 153.7438507080078 294.3495178222656 153.6467132568359 294.4684448242188 153.5335388183594 294.5921936035156 L 153.5218811035156 294.6049194335938 L 153.5100555419922 294.6175231933594 L 147.7254333496094 300.769775390625 C 147.3831024169922 301.1388244628906 145.6935882568359 302.7994384765625 143.0198974609375 302.799560546875 L 143.0199432373047 302.799560546875 Z M 103.132926940918 302.5643920898438 L 103.1328659057617 302.5643920898438 C 101.0027542114258 302.5643920898438 99.01536560058594 301.7075500488281 97.38553619384766 300.0865478515625 C 93.80865478515625 296.5302734375 93.89659881591797 291.9700622558594 95.17242431640625 288.8857421875 C 95.34398651123047 288.4681701660156 95.584716796875 288.0890502929688 95.88802337646484 287.7588195800781 L 110.7212677001953 271.5470275878906 C 111.4245223999023 270.7809448242188 112.4142074584961 270.3433227539063 113.4393692016602 270.3433227539063 C 114.415885925293 270.3433227539063 115.3382263183594 270.7264404296875 116.0365219116211 271.422119140625 L 120.5233688354492 275.8756408691406 C 121.3707962036133 276.71533203125 121.7787399291992 277.932861328125 121.613037109375 279.1309814453125 C 121.4903259277344 280.0167846679688 121.3610229492188 281.8106689453125 121.8730087280273 283.8795471191406 C 122.185676574707 285.1432189941406 121.8574600219727 286.4623107910156 120.9951171875 287.4087524414063 L 109.642951965332 299.92431640625 C 109.5131988525391 300.0670166015625 109.3714141845703 300.2006225585938 109.219352722168 300.3238220214844 L 109.2053375244141 300.335205078125 L 109.1911849975586 300.3463439941406 C 108.5298080444336 300.8666381835938 106.1383514404297 302.5643310546875 103.132926940918 302.5643920898438 Z M 147.6400909423828 273.1607971191406 C 146.4729614257813 273.1607971191406 145.3602294921875 272.5931091308594 144.6635589599609 271.6422424316406 C 143.6304168701172 270.23046875 141.3076019287109 267.8639831542969 137.349609375 267.8639831542969 C 136.9121704101563 267.8639831542969 136.4588928222656 267.8933410644531 136.0023803710938 267.9512939453125 C 135.8486328125 267.9706420898438 135.6947326660156 267.9803161621094 135.5424194335938 267.9803161621094 C 134.5324096679688 267.9803161621094 133.5534515380859 267.5548400878906 132.8565826416016 266.8130187988281 L 125.8201370239258 259.3283996582031 C 125.1713790893555 258.6404113769531 124.8027420043945 257.7315063476563 124.7847366333008 256.7719116210938 C 124.7649383544922 255.7482757568359 124.8232955932617 253.6712341308594 125.4368667602539 251.2777557373047 C 126.2179794311523 248.2307281494141 127.627311706543 245.6527252197266 129.6256866455078 243.6153259277344 C 132.9287567138672 240.2477264404297 137.6478881835938 238.5402374267578 143.6519622802734 238.5402374267578 C 144.1418609619141 238.5402374267578 144.6475372314453 238.5518493652344 145.1549377441406 238.5747528076172 L 145.1596374511719 238.5749664306641 L 145.1643524169922 238.5751953125 C 145.6925354003906 238.6010284423828 146.1968078613281 238.7359466552734 146.6632385253906 238.9762115478516 C 147.8167114257813 239.5674438476563 148.5612945556641 240.5246124267578 148.7601165771484 241.671875 C 148.9088134765625 242.5299682617188 148.8034515380859 243.8532562255859 147.4571228027344 245.2844543457031 C 146.4871063232422 246.3156433105469 144.2516784667969 248.6937255859375 142.4884643554688 250.5694427490234 L 140.8858795166016 252.2742462158203 L 141.6067810058594 256.873291015625 L 145.5459289550781 257.8040161132813 L 152.1490173339844 250.4287414550781 C 152.8364105224609 249.6601104736328 153.79931640625 249.2104187011719 154.7898864746094 249.1960601806641 C 154.8046569824219 249.1958312988281 154.823486328125 249.1956939697266 154.8422241210938 249.1956939697266 C 155.8430023193359 249.1956939697266 156.7701568603516 249.6134185791016 157.4529266357422 250.3719329833984 C 158.0653228759766 251.0522613525391 158.4524993896484 251.9588470458984 158.6365509033203 253.1434936523438 C 158.7889404296875 254.1259918212891 159.2048187255859 257.6453552246094 158.1628875732422 261.7099914550781 C 157.6147766113281 263.8482055664063 156.7458343505859 265.7823486328125 155.5802154541016 267.458740234375 C 154.1630401611328 269.4969177246094 152.3095703125 271.1518249511719 150.0710144042969 272.3777160644531 C 149.8622283935547 272.4932250976563 149.5079193115234 272.6698913574219 149.1851196289063 272.8193664550781 C 148.6977081298828 273.0455932617188 148.1772155761719 273.1607971191406 147.6400909423828 273.1607971191406 Z" stroke="none" fill="#629c44"/>
    </g>
  </g>
</svg>
