<svg xmlns="http://www.w3.org/2000/svg" width="21.949" height="21.949" viewBox="0 0 21.949 21.949"><path d="M21.75,10.514,18.162,7.137A.633.633,0,0,0,17.1,7.6V9.075H12.874V4.854h1.477a.633.633,0,0,0,.461-1.067L11.436.2a.633.633,0,0,0-.922,0L7.137,3.787A.633.633,0,0,0,7.6,4.854H9.075V9.075H4.854V7.6a.633.633,0,0,0-1.067-.461L.2,10.514a.633.633,0,0,0,0,.922l3.588,3.377a.633.633,0,0,0,1.067-.461V12.874H9.075V17.1H7.6a.633.633,0,0,0-.461,1.067l3.377,3.588a.633.633,0,0,0,.922,0l3.377-3.588a.633.633,0,0,0-.461-1.067H12.874V12.874H17.1v1.477a.633.633,0,0,0,1.067.461l3.588-3.377a.633.633,0,0,0,0-.922Z" fill="#5287f5"/></svg>