<svg xmlns="http://www.w3.org/2000/svg" width="19.302" height="19.535" viewBox="0 0 19.302 19.535"><path d="M-1651.724,617.929a5.152,5.152,0,0,1-.94-.392,2.183,2.183,0,0,1-.3-3.407c1.389-1.4,8.286-8.7,8.523-9.027-.131-.088-.2-.138-.276-.185q-3.365-2.142-6.726-4.291a1.157,1.157,0,0,1-.431-.5.7.7,0,0,1,.455-.886,8.412,8.412,0,0,1,2.306-.552,2.073,2.073,0,0,0,.215-.042h1.229a.7.7,0,0,0,.137.041,8.165,8.165,0,0,1,3.324,1.033q1.485.838,2.954,1.705a.369.369,0,0,0,.383.012,3.533,3.533,0,0,0,1.3-.936,5.511,5.511,0,0,1,.489-.483,2.2,2.2,0,0,1,2.58-.254,2.215,2.215,0,0,1,1.036,2.4,2.59,2.59,0,0,1-.878,1.357,3.84,3.84,0,0,0-1.042,1.4.378.378,0,0,0,.012.383c.527.9,1.041,1.8,1.565,2.695a8.49,8.49,0,0,1,1.034,2.662c.069.351.122.705.182,1.058v1.229a2.1,2.1,0,0,0-.042.215,8.333,8.333,0,0,1-.544,2.284.733.733,0,0,1-.852.5.832.832,0,0,1-.54-.428q-2.126-3.348-4.258-6.692c-.057-.089-.115-.177-.205-.316-.294.193-3.868,3.805-8.426,8.376a3.176,3.176,0,0,1-1.672,1.044Zm15.572-4.517c.019-.1.028-.141.032-.18a6.925,6.925,0,0,0-.92-4.411c-.624-1.075-1.244-2.154-1.871-3.227a.812.812,0,0,1-.024-.86c.125-.23.244-.464.347-.7a.252.252,0,0,0-.032-.224q-.553-.576-1.129-1.128a.276.276,0,0,0-.243-.033,7.425,7.425,0,0,0-.682.335.829.829,0,0,1-.881-.027c-1.044-.613-2.1-1.208-3.141-1.823a6.893,6.893,0,0,0-3.053-.988c-.515-.035-1.034,0-1.551,0l-.015.092.424.272q2.827,1.8,5.654,3.6a.765.765,0,0,1,.314,1.13c-.1.213-.207.427-.321.635a.209.209,0,0,0,.04.3c.365.352.726.711,1.076,1.077a.223.223,0,0,0,.319.042c.186-.1.378-.194.569-.289a.787.787,0,0,1,1.215.339l3.677,5.778C-1636.3,613.2-1636.242,613.279-1636.152,613.411Zm-8.089-6.156c-.051.048-.105.1-.156.148-4.523,4.523-2.923,3.161-7.446,7.684a1.776,1.776,0,0,0-.166.181.727.727,0,0,0,.394,1.156c.345.1.827-.3.827-.3l7.582-7.836Zm6.64-4.559c.181-.183.368-.354.533-.545a.743.743,0,0,0,0-.967.722.722,0,0,0-.956-.122,8.149,8.149,0,0,0-.628.587Z" transform="translate(1653.771 -598.519)" fill="#5287f5" stroke="#5287f5" stroke-width="0.25"/></svg>