<svg xmlns="http://www.w3.org/2000/svg" width="19.745" height="22.577" viewBox="0 0 19.745 22.577"><g transform="translate(0 0)"><path d="M975.207,291.921h-7.9a4.261,4.261,0,0,1-4.256-4.256V276.374h2.04v11.291a2.218,2.218,0,0,0,2.216,2.216h7.9a2.218,2.218,0,0,0,2.216-2.216V276.374h2.041v11.291A4.261,4.261,0,0,1,975.207,291.921Z" transform="translate(-961.387 -269.344)" fill="#f30000"/><path d="M1000.758,212.553h-2.04V210.5a.987.987,0,0,0-.986-.986h-4.9a.987.987,0,0,0-.986.986v2.054h-2.04V210.5a3.03,3.03,0,0,1,3.027-3.027h4.9a3.03,3.03,0,0,1,3.027,3.027Z" transform="translate(-985.411 -207.472)" fill="#f30000"/><rect width="19.745" height="2.04" transform="translate(0 4.061)" fill="#f30000"/></g></svg>