<svg xmlns="http://www.w3.org/2000/svg" width="15.933" height="21.705" viewBox="0 0 15.933 21.705"><g transform="translate(280.092 -274.533)"><g transform="translate(0.025 0.033)"><path d="M-272.2,356.223v-.029c-1.744,0-3.488,0-5.232,0a2.018,2.018,0,0,1-2.08-1.417,1.776,1.776,0,0,1-.089-.5c-.007-1.629-.053-.972.007-2.6,0-2.868,2.315-4.207,4.24-4.815" transform="translate(0 -60.491)" fill="none" stroke="#4e4e4e" stroke-width="1"/><path d="M-235.33,356.486v-.029c1.744,0,3.488,0,5.232,0a2.018,2.018,0,0,0,2.08-1.417,1.77,1.77,0,0,0,.089-.5c.007-1.629.053-.972-.007-2.6,0-2.786-2.185-4.13-4.075-4.761" transform="translate(-36.776 -60.753)" fill="none" stroke="#4e4e4e" stroke-width="1"/><path d="M-258.356,274a4.965,4.965,0,0,1,4.973,4.981,4.984,4.984,0,0,1-4.994,4.967,4.985,4.985,0,0,1-4.958-4.975A4.965,4.965,0,0,1-258.356,274Z" transform="translate(-13.523 1)" fill="none" stroke="#4e4e4e" stroke-width="1"/><path d="M-253.627,346.606l3.321,3.9,2.952-3.644" transform="translate(-21.583 -60.281)" fill="none" stroke="#4e4e4e" stroke-width="1"/></g></g></svg>