<svg xmlns="http://www.w3.org/2000/svg" width="21.583" height="24.672" viewBox="0 0 21.583 24.672">
  <g id="Customer_Quotes_Orders-small-grey" data-name="Customer Quotes &amp; Orders-small-grey" transform="translate(0.637 0.625)">
    <path id="Path_404" data-name="Path 404" d="M-2562.122,103.384v4.065a3.267,3.267,0,0,1-3.257,3.258h0a3.267,3.267,0,0,1-3.258-3.258v-3.1h-13.789s-.54,6.48,4.462,6.376h12.628" transform="translate(2582.444 -87.304)" fill="none" stroke="#4e4e4e" stroke-miterlimit="10" stroke-width="1.25"/>
    <path id="Path_405" data-name="Path 405" d="M-2434-417.143v-10.341a2.051,2.051,0,0,1,2.045-2.045h11.751a2.051,2.051,0,0,1,2.045,2.045v16.894" transform="translate(2438.477 429.529)" fill="none" stroke="#4e4e4e" stroke-linecap="round" stroke-miterlimit="10" stroke-width="1.25"/>
    <line id="Line_16" data-name="Line 16" x2="9.374" transform="translate(7.649 11.227)" fill="none" stroke="#4e4e4e" stroke-linecap="round" stroke-miterlimit="10" stroke-width="1"/>
    <line id="Line_17" data-name="Line 17" x2="6.484" transform="translate(9.146 13.96)" fill="none" stroke="#4e4e4e" stroke-linecap="round" stroke-miterlimit="10" stroke-width="1"/>
    <g id="Group_581" data-name="Group 581" transform="translate(9.646 2.478)">
      <path id="Rectangle_277" data-name="Rectangle 277" d="M2.218,0H3.233A2.218,2.218,0,0,1,5.451,2.218v0a.519.519,0,0,1-.519.519H.519A.519.519,0,0,1,0,2.218v0A2.218,2.218,0,0,1,2.218,0Z" transform="translate(0 3.428)" fill="none" stroke="#4e4e4e" stroke-miterlimit="10" stroke-width="0.75"/>
      <circle id="Ellipse_18" data-name="Ellipse 18" cx="1.714" cy="1.714" r="1.714" transform="translate(1.018 0)" fill="none" stroke="#4e4e4e" stroke-miterlimit="10" stroke-width="0.75"/>
    </g>
  </g>
</svg>
