<svg xmlns="http://www.w3.org/2000/svg" width="16.183" height="21.358" viewBox="0 0 16.183 21.358">
  <g id="Customer_Management_grey" data-name="Customer Management_grey" transform="translate(0.622)">
    <g id="Group_317" data-name="Group 317" transform="translate(279.621 -275)">
      <path id="Path_202" data-name="Path 202" d="M-272.2,356.223v-.029c-1.744,0-3.488,0-5.232,0a2.018,2.018,0,0,1-2.08-1.417,1.776,1.776,0,0,1-.089-.5c-.007-1.629-.053-.972.007-2.6,0-2.868,2.315-4.207,4.24-4.815" transform="translate(0 -60.491)" fill="none" stroke="#4e4e4e" stroke-linecap="round" stroke-miterlimit="10" stroke-width="1.25"/>
      <path id="Path_203" data-name="Path 203" d="M-235.33,356.486v-.029c1.744,0,3.488,0,5.232,0a2.018,2.018,0,0,0,2.08-1.417,1.77,1.77,0,0,0,.089-.5c.007-1.629.053-.972-.007-2.6,0-2.786-2.185-4.13-4.075-4.761" transform="translate(-36.776 -60.753)" fill="none" stroke="#4e4e4e" stroke-linecap="round" stroke-miterlimit="10" stroke-width="1.25"/>
      <g id="Path_204" data-name="Path 204" transform="translate(-13.523 1)" fill="none" stroke-linecap="round" stroke-miterlimit="10">
        <path d="M-258.356,274a4.965,4.965,0,0,1,4.973,4.981,4.984,4.984,0,0,1-4.994,4.967,4.985,4.985,0,0,1-4.958-4.975A4.965,4.965,0,0,1-258.356,274Z" stroke="none"/>
        <path d="M -258.3587646484375 275.25 C -259.3577575683594 275.25 -260.2947692871094 275.6365051269531 -260.9971313476563 276.3383483886719 C -261.6991577148438 277.0398254394531 -262.08544921875 277.9751586914063 -262.0849609375 278.97216796875 C -262.0840454101563 281.0155334472656 -260.4177856445313 282.6867980957031 -258.3702697753906 282.6976928710938 L -258.3504943847656 282.6977233886719 C -256.3032836914063 282.6977233886719 -254.6355895996094 281.0294799804688 -254.6329345703125 278.9788208007813 C -254.631591796875 277.97998046875 -255.01708984375 277.0430297851563 -255.718505859375 276.3405456542969 C -256.4200134277344 275.6379089355469 -257.3568420410156 275.2506103515625 -258.3556213378906 275.25 L -258.3587646484375 275.25 M -258.3587951660156 274 C -258.3576049804688 274 -258.3567810058594 274 -258.3556213378906 274 C -255.5984497070313 274.001708984375 -253.3791809082031 276.224365234375 -253.3829345703125 278.9805297851563 C -253.386474609375 281.7155151367188 -255.6220092773438 283.9477233886719 -258.3505249023438 283.9477233886719 C -258.3595275878906 283.9477233886719 -258.3681640625 283.9477233886719 -258.377197265625 283.9476623535156 C -261.11572265625 283.93310546875 -263.3337707519531 281.7073669433594 -263.3349609375 278.9727172851563 C -263.3363647460938 276.2201232910156 -261.1141967773438 274 -258.3587951660156 274 Z" stroke="none" fill="#4e4e4e"/>
      </g>
      <path id="Path_205" data-name="Path 205" d="M-253.627,346.606l3.321,3.9,2.952-3.644" transform="translate(-21.583 -60.281)" fill="none" stroke="#4e4e4e" stroke-linecap="round" stroke-miterlimit="10" stroke-width="1.25"/>
    </g>
  </g>
</svg>
