<svg xmlns="http://www.w3.org/2000/svg" width="45" height="45" viewBox="0 0 45 45"><g transform="translate(-1021 -204)"><g transform="translate(1020.847 204)"><g transform="translate(0 0)"><g transform="translate(0.153 0)" fill="#cadafb" stroke="#b1c0ff" stroke-width="1.5"><rect width="45" height="45" rx="4" stroke="none"/><rect x="0.75" y="0.75" width="43.5" height="43.5" rx="3.25" fill="none"/></g></g></g><path d="M-523.5,138.265c.111-.572.2-1.152.338-1.716a9.63,9.63,0,0,1,2.5-4.453c1.391-1.42,2.805-2.818,4.213-4.221a1.037,1.037,0,0,1,1.606.008c1.1,1.093,3.455,3.482,3.549,3.592.119-.111.2-.185.281-.264,4.347-4.347,1.408-1.45,5.761-5.792a.643.643,0,0,0,.211-.655,8.818,8.818,0,0,1,.53-5.33,6.865,6.865,0,0,1,1.364-1.974,1.026,1.026,0,0,1,1.556-.023q2.9,2.882,5.777,5.777a1.029,1.029,0,0,1-.048,1.579,7.523,7.523,0,0,1-5.637,2.044,13.416,13.416,0,0,1-1.71-.187.511.511,0,0,0-.513.154c-2.766,2.776,1.747-1.7-1.024,1.07l-5.137,5.135s2.527,2.358,3.615,3.448a1.063,1.063,0,0,1,.007,1.706q-2,2-4,4a10.022,10.022,0,0,1-6.151,2.943,1.049,1.049,0,0,0-.192.059h-1.655a1.485,1.485,0,0,0-.228-.059,9.26,9.26,0,0,1-3.383-.982,1.416,1.416,0,0,1-.586-.588,9.243,9.243,0,0,1-.623-1.6c-.184-.66-.284-1.342-.421-2.015Zm10.727-5.31-2.882-2.879c-1.234,1.215-2.542,2.369-3.69,3.664a7.813,7.813,0,0,0-1.538,8.287.777.777,0,0,0,.53.521,7.917,7.917,0,0,0,8.595-1.824c1.111-1.048,2.167-2.155,3.247-3.237a1.429,1.429,0,0,0,.1-.12l-2.924-2.954Zm10.484-13.237a.776.776,0,0,0-.073.088,6.449,6.449,0,0,0-.63,4.627.326.326,0,0,0,.223.187,6.875,6.875,0,0,0,3.4-.126c.446-.141.869-.356,1.315-.543Z" transform="matrix(0.995, -0.105, 0.105, 0.995, 1538.377, 42.81)" fill="#5287f5" stroke="#5287f5" stroke-width="0.25"/></g></svg>