<svg xmlns="http://www.w3.org/2000/svg" width="46.76" height="34.027" viewBox="0 0 46.76 34.027"><g transform="translate(-118.007 -1150.842)"><g transform="translate(-7906.18 1564.751) rotate(9)"><path d="M-523.5,137.378c.107-.549.188-1.1.324-1.644a9.227,9.227,0,0,1,2.393-4.267c1.333-1.361,2.688-2.7,4.036-4.045a.994.994,0,0,1,1.539.008c1.054,1.048,3.311,3.336,3.4,3.441.114-.106.194-.177.27-.253,4.166-4.165,1.349-1.389,5.52-5.549a.616.616,0,0,0,.2-.627,8.449,8.449,0,0,1,.508-5.107A6.577,6.577,0,0,1-504,117.444a.983.983,0,0,1,1.491-.022q2.774,2.761,5.535,5.536a.985.985,0,0,1-.046,1.513,7.208,7.208,0,0,1-5.4,1.958,12.854,12.854,0,0,1-1.638-.179.49.49,0,0,0-.491.147c-2.65,2.659,1.674-1.629-.981,1.026l-4.922,4.92s2.422,2.259,3.463,3.3a1.019,1.019,0,0,1,.007,1.634q-1.914,1.917-3.831,3.83a9.6,9.6,0,0,1-5.893,2.82,1,1,0,0,0-.184.056h-1.586a1.424,1.424,0,0,0-.218-.056,8.872,8.872,0,0,1-3.241-.941,1.356,1.356,0,0,1-.562-.563,8.86,8.86,0,0,1-.6-1.531c-.176-.632-.272-1.286-.4-1.931Zm10.278-5.088-2.762-2.758c-1.182,1.165-2.436,2.27-3.535,3.511a7.486,7.486,0,0,0-1.474,7.94.745.745,0,0,0,.508.5,7.586,7.586,0,0,0,8.235-1.747c1.065-1,2.076-2.065,3.111-3.1a1.387,1.387,0,0,0,.1-.115l-2.8-2.83Zm10.045-12.683a.741.741,0,0,0-.07.084,6.179,6.179,0,0,0-.6,4.433.312.312,0,0,0,.214.179,6.587,6.587,0,0,0,3.259-.12c.428-.135.833-.341,1.26-.52Z" transform="matrix(0.995, -0.105, 0.105, 0.995, 8389.333, -1832.889)" fill="#629c44" stroke="#629c44" stroke-width="0.5"/></g><g transform="translate(118.007 1150.842)"><path d="M25.444,12.84l-4.2-4.124a.717.717,0,0,0-.8-.147.775.775,0,0,0-.447.71v1.8H15.061V5.928h1.728a.74.74,0,0,0,.68-.467.8.8,0,0,0-.141-.837L13.378.243a.72.72,0,0,0-1.079,0L8.349,4.625a.8.8,0,0,0-.141.837.74.74,0,0,0,.68.467h1.728v5.155H5.679v-1.8a.775.775,0,0,0-.447-.71.717.717,0,0,0-.8.147L.233,12.84a.8.8,0,0,0,0,1.126l4.2,4.124a.717.717,0,0,0,.8.147.775.775,0,0,0,.447-.71v-1.8h4.938v5.155H8.888a.74.74,0,0,0-.68.467.8.8,0,0,0,.141.837l3.95,4.382a.72.72,0,0,0,1.079,0l3.95-4.382a.8.8,0,0,0,.141-.837.74.74,0,0,0-.68-.467H15.061V15.723H20v1.8a.775.775,0,0,0,.447.71.717.717,0,0,0,.8-.147l4.2-4.124a.8.8,0,0,0,0-1.126Z" transform="translate(0 0)" fill="#629c44"/></g></g></svg>