<svg xmlns="http://www.w3.org/2000/svg" width="27" height="27" viewBox="0 0 27 27"><g transform="translate(-0.007 0.161)" opacity="0.3"><rect width="27" height="27" rx="4" transform="translate(0.007 -0.161)" fill="#629c44"/></g><g transform="translate(4 4.499)"><path d="M14.25,91.816a.75.75,0,0,0-.75.75v6a.751.751,0,0,1-.75.75H2.25a.751.751,0,0,1-.75-.75v-10.5a.751.751,0,0,1,.75-.75h6a.75.75,0,0,0,0-1.5h-6A2.253,2.253,0,0,0,0,88.066v10.5a2.253,2.253,0,0,0,2.25,2.25h10.5A2.253,2.253,0,0,0,15,98.566v-6a.749.749,0,0,0-.75-.75Zm0,0" transform="translate(0 -82.316)" fill="#4c7a34"/><path d="M182.449,74.2a.379.379,0,0,0-.1.191l-.53,2.652a.375.375,0,0,0,.368.448.357.357,0,0,0,.073-.007l2.651-.53a.373.373,0,0,0,.192-.1l5.934-5.934-2.651-2.651Zm0,0" transform="translate(-175.417 -65.379)" fill="#4c7a34"/><path d="M395.135,1.049a1.876,1.876,0,0,0-2.651,0l-1.038,1.038L394.1,4.739,395.135,3.7a1.875,1.875,0,0,0,0-2.651Zm0,0" transform="translate(-377.684)" fill="#4c7a34"/></g></svg>