<svg xmlns="http://www.w3.org/2000/svg" width="23.529" height="27.412" viewBox="0 0 23.529 27.412"><g transform="translate(-1168.328 -482.093)"><g transform="translate(1168.828 482.593)"><path d="M-1990.2,83.021h-11a1,1,0,0,0-.97,1.025v22.465a1,1,0,0,0,.97,1.025h15.061a1,1,0,0,0,.97-1.025l-.095-17.875Z" transform="translate(2002.17 -83.021)" fill="#5287f5" stroke="#5287f5" stroke-linecap="round" stroke-miterlimit="10" stroke-width="1"/><path d="M-1965.138,83.021v4.294a1.093,1.093,0,0,0,1.053,1.13h3.9" transform="translate(1976.8 -83.021)" fill="#fff"/></g><g transform="translate(1176.125 495.472)"><g transform="translate(0.272 0.033)" fill="#fff" stroke="#5287f5" stroke-width="1"><circle cx="7" cy="7" r="7" stroke="none"/><circle cx="7" cy="7" r="6.5" fill="none"/></g><g transform="translate(3.244 0.925)"><path d="M6.989,13.716a.637.637,0,0,1-.9,0l-3.6-3.6a.956.956,0,0,1,0-1.352l.451-.451a.956.956,0,0,1,1.352,0L6.539,10.56l6.073-6.073a.956.956,0,0,1,1.352,0l.451.451a.956.956,0,0,1,0,1.352Z" transform="translate(-2.208 -4.207)" fill="#5287f5"/></g></g><line x2="10.443" transform="translate(1171.082 490.412)" fill="none" stroke="#fff" stroke-linecap="round" stroke-miterlimit="10" stroke-width="1.5"/><line x2="7.294" transform="translate(1171.467 494.42)" fill="none" stroke="#fff" stroke-linecap="round" stroke-miterlimit="10" stroke-width="1.25"/><line x2="3.669" transform="translate(1171.081 497.473)" fill="none" stroke="#fff" stroke-linecap="round" stroke-miterlimit="10" stroke-width="1"/></g></svg>