<svg xmlns="http://www.w3.org/2000/svg" width="48.114" height="61.314" viewBox="0 0 48.114 61.314"><g transform="translate(283.383 -272.834)"><g transform="translate(-282.017 272.834)"><path d="M-257.066,375.309v-.088c-5.3,0-10.6.015-15.894-.005-3.192-.012-5.483-1.588-6.319-4.306a5.4,5.4,0,0,1-.271-1.53c-.02-4.949-.161-2.953.022-7.9,0-8.712,7.032-12.782,12.88-14.627" transform="translate(279.621 -315.37)" fill="none" stroke="#629c44" stroke-linecap="round" stroke-miterlimit="10" stroke-width="2.75"/><path d="M-235.33,375.462v-.088c5.3,0,10.6.015,15.895-.005,3.191-.013,5.483-1.588,6.319-4.306a5.378,5.378,0,0,0,.271-1.53c.02-4.949.162-2.953-.021-7.9,0-8.464-6.639-12.546-12.379-14.464" transform="translate(258.157 -315.523)" fill="none" stroke="#629c44" stroke-linecap="round" stroke-miterlimit="10" stroke-width="2.75"/><g transform="translate(271.727 -274)" fill="none" stroke-linecap="round" stroke-miterlimit="10"><path d="M-248.208,274A15.083,15.083,0,0,1-233.1,289.13a15.142,15.142,0,0,1-15.172,15.089,15.142,15.142,0,0,1-15.061-15.113A15.083,15.083,0,0,1-248.208,274Z" stroke="none"/><path d="M -248.2177886962891 276.7499389648438 C -251.5322265625 276.7499389648438 -254.6416015625 278.032958984375 -256.97314453125 280.3627014160156 C -259.3039245605469 282.691650390625 -260.5866088867188 285.79638671875 -260.5848999023438 289.1051940917969 C -260.58349609375 292.3907165527344 -259.3014221191406 295.48583984375 -256.974853515625 297.8204345703125 C -254.6472473144531 300.1560668945313 -251.5519561767578 301.4520263671875 -248.2592926025391 301.4695129394531 L -248.1926422119141 301.4696960449219 C -244.9170227050781 301.4696960449219 -241.8252716064453 300.1825866699219 -239.4869689941406 297.8454895019531 C -237.1470031738281 295.5067749023438 -235.8560180664063 292.4103088378906 -235.8517456054688 289.1263427734375 C -235.8472290039063 285.8120727539063 -237.127197265625 282.7024230957031 -239.455810546875 280.3701782226563 C -241.7846984863281 278.0376892089844 -244.8936462402344 276.7520141601563 -248.208251953125 276.7499389648438 L -248.2177886962891 276.7499389648438 M -248.2177886962891 273.9999389648438 C -248.2142028808594 273.9999389648438 -248.2118225097656 273.9999389648438 -248.208251953125 273.9999389648438 C -239.8323364257813 274.0051574707031 -233.0903625488281 280.7572326660156 -233.1017456054688 289.1300964355469 C -233.1125183105469 297.4385070800781 -239.90380859375 304.2196960449219 -248.1926574707031 304.2196960449219 C -248.2200622558594 304.2196960449219 -248.2463226318359 304.2196350097656 -248.2737731933594 304.219482421875 C -256.5931396484375 304.1752624511719 -263.3313293457031 297.4137573242188 -263.3348999023438 289.1063842773438 C -263.3392028808594 280.7443237304688 -256.58837890625 273.9999389648438 -248.2177886962891 273.9999389648438 Z" stroke="none" fill="#629c44"/></g><path d="M-253.627,346.606l10.089,11.861,8.969-11.07" transform="translate(267.024 -315.248)" fill="none" stroke="#629c44" stroke-linecap="round" stroke-linejoin="round" stroke-miterlimit="10" stroke-width="2.75"/></g></g></svg>