<svg xmlns="http://www.w3.org/2000/svg" width="31.028" height="32.397" viewBox="0 0 31.028 32.397">
  <g id="Inventorysmall" transform="translate(1 1)">
    <g id="Union_21" data-name="Union 21" transform="translate(-179.454 -193.379)" fill="none" stroke-miterlimit="10">
      <path d="M191.5,222.729c-3.5-1.081-5.719-.1-6.577.432a.165.165,0,0,1-.25-.188c1.093-2.616,5.489-2.473,6.4-2.415a.164.164,0,0,0,.179-.144l1.021-10.529a.18.18,0,0,0,0-.037,6.778,6.778,0,0,0-2.292-3.392c-.144-.129.034-.344.205-.247a17.53,17.53,0,0,1,2.621,2,.172.172,0,0,0,.285-.093l.568-4.383a.17.17,0,0,1,.334,0l.573,4.423a.172.172,0,0,0,.271.105l2.11-1.538c.153-.111.355.067.241.213a9.178,9.178,0,0,0-1.547,2.911.2.2,0,0,0-.005.046l.769,11.54a.16.16,0,0,0,.106.138,8.9,8.9,0,0,0,5.945-.11.162.162,0,0,1,.209.222c-.931,1.515-2.829,2.1-5.071,2.1A21.475,21.475,0,0,1,191.5,222.729Zm13.685-6.54a10.008,10.008,0,0,1-5.464-2.323,8.566,8.566,0,0,1-2.345-5.13.163.163,0,0,1,.188-.169,10.027,10.027,0,0,1,5.464,2.323,8.579,8.579,0,0,1,2.345,5.13.161.161,0,0,1-.167.17Zm-23.224-.169a8.571,8.571,0,0,1,2.345-5.13,10.027,10.027,0,0,1,5.464-2.323.164.164,0,0,1,.188.169,8.566,8.566,0,0,1-2.345,5.13,10.008,10.008,0,0,1-5.464,2.323h-.021A.16.16,0,0,1,181.965,216.021Zm17.517-9.838a.149.149,0,0,1-.066-.234,7.435,7.435,0,0,1,3.766-2.5,8.117,8.117,0,0,1,4.791.561,7.522,7.522,0,0,1-3.887,2.657,6.115,6.115,0,0,1-1.435.164A8.739,8.739,0,0,1,199.483,206.183Zm-16.228.481a7.45,7.45,0,0,1-3.768-2.5.151.151,0,0,1,.066-.236,8.007,8.007,0,0,1,4.606-.48,7.435,7.435,0,0,1,3.766,2.5.149.149,0,0,1-.066.234,8.747,8.747,0,0,1-3.17.645A6.114,6.114,0,0,1,183.255,206.664Zm12.65-2.321a8.568,8.568,0,0,1,2.329-5.138,10.011,10.011,0,0,1,5.456-2.337.161.161,0,0,1,.188.167,8.565,8.565,0,0,1-2.329,5.136,10.005,10.005,0,0,1-5.456,2.338h-.021A.16.16,0,0,1,195.905,204.344Zm-4.656.167a10.011,10.011,0,0,1-5.458-2.338,8.573,8.573,0,0,1-2.329-5.136.163.163,0,0,1,.189-.167,10.014,10.014,0,0,1,5.456,2.337,8.576,8.576,0,0,1,2.329,5.138.161.161,0,0,1-.167.169Zm2.293-3.479a5.375,5.375,0,0,1,.058-7.6.176.176,0,0,1,.263,0,5.375,5.375,0,0,1-.058,7.6.176.176,0,0,1-.263,0Z" stroke="none"/>
      <path d="M 197.6021270751953 223.7760620117188 C 199.8434906005859 223.7760620117188 201.7415771484375 223.1957702636719 202.6724548339844 221.6810302734375 C 202.7388305664063 221.5723114013672 202.6466674804688 221.4474639892578 202.5261535644531 221.4474639892578 C 202.5058898925781 221.4474639892578 202.4848022460938 221.4510040283203 202.4635620117188 221.458740234375 C 201.8608856201172 221.6790313720703 200.6590118408203 222.0372467041016 199.2194976806641 222.0372467041016 C 198.3763122558594 222.0372467041016 197.4514465332031 221.9142761230469 196.5180969238281 221.5686645507813 C 196.456787109375 221.5454406738281 196.4154968261719 221.4917297363281 196.4117431640625 221.4306335449219 L 195.6424560546875 209.8901977539063 C 195.6424560546875 209.8742980957031 195.6437072753906 209.8596496582031 195.6474609375 209.84375 C 195.6999816894531 209.6568908691406 196.0915222167969 208.3584594726563 197.1947937011719 206.9329833984375 C 197.2837677001953 206.8193969726563 197.1794891357422 206.6856994628906 197.0568237304688 206.6856994628906 C 197.0225219726563 206.6856994628906 196.9867553710938 206.6961669921875 196.9533996582031 206.720458984375 L 194.8431396484375 208.25830078125 C 194.8115234375 208.2809906005859 194.775390625 208.2913208007813 194.7400054931641 208.2913208007813 C 194.6591491699219 208.2913208007813 194.5821228027344 208.2373504638672 194.5716857910156 208.1532592773438 L 193.998779296875 203.7303161621094 C 193.9869079589844 203.6387023925781 193.9093627929688 203.5928955078125 193.8318023681641 203.5928955078125 C 193.7542419433594 203.5928955078125 193.6766815185547 203.6387023925781 193.664794921875 203.7303161621094 L 193.0968933105469 208.1129455566406 C 193.0861511230469 208.1976623535156 193.0088500976563 208.2503967285156 192.9287567138672 208.2503967285156 C 192.8875885009766 208.2503967285156 192.8456726074219 208.2364654541016 192.8117065429688 208.2057800292969 C 192.3238525390625 207.7660522460938 191.1893005371094 206.7815551757813 190.1911010742188 206.2098999023438 C 190.1609344482422 206.1927032470703 190.1305999755859 206.1851959228516 190.1018218994141 206.1851959228516 C 189.9671783447266 206.1851959228516 189.8674163818359 206.3499450683594 189.9859619140625 206.4566345214844 C 190.8302917480469 207.2114868164063 192.0599365234375 208.5148315429688 192.277587890625 209.8486328125 C 192.2788391113281 209.8608703613281 192.2800903320313 209.8730773925781 192.2788391113281 209.8853149414063 L 191.2581176757813 220.4143676757813 C 191.2521362304688 220.4961395263672 191.1786651611328 220.5588989257813 191.09130859375 220.5588989257813 C 191.0873107910156 220.5588989257813 191.0832824707031 220.5587615966797 191.0792236328125 220.5585021972656 C 190.9182739257813 220.5481719970703 190.6492309570313 220.5352172851563 190.3090209960938 220.5352172851563 C 188.7191772460938 220.5352172851563 185.5777282714844 220.8181610107422 184.6771545410156 222.9733581542969 C 184.6312866210938 223.0848693847656 184.726318359375 223.1881866455078 184.8350524902344 223.1881866455078 C 184.8656616210938 223.1881866455078 184.8973846435547 223.1799774169922 184.9273376464844 223.1614685058594 C 185.5048370361328 222.8047180175781 186.6995697021484 222.2427673339844 188.4853668212891 222.2427673339844 C 189.3531646728516 222.2427673339844 190.3607482910156 222.3755493164063 191.5045166015625 222.7290649414063 C 193.5279541015625 223.353759765625 195.6898193359375 223.7760314941406 197.6017761230469 223.7760620117188 C 197.6019134521484 223.7760620117188 197.6019897460938 223.7760620117188 197.6021270751953 223.7760620117188 M 205.2102966308594 216.1905212402344 C 205.3071594238281 216.1905212402344 205.3850402832031 216.1130676269531 205.3768615722656 216.0207214355469 C 205.3068237304688 215.3061828613281 204.9265441894531 212.7007751464844 203.0314636230469 210.8905639648438 C 201.1351013183594 209.0815734863281 198.3368530273438 208.654052734375 197.5675659179688 208.5673217773438 C 197.5611114501953 208.566650390625 197.5547332763672 208.5663299560547 197.5484008789063 208.5663299560547 C 197.4505767822266 208.5663299560547 197.3705444335938 208.6441192626953 197.3799438476563 208.7359008789063 C 197.4500122070313 209.4516906738281 197.8290100097656 212.0570678710938 199.7253723144531 213.8660888671875 C 201.6217041015625 215.67626953125 204.4199523925781 216.1037902832031 205.1892395019531 216.1893005371094 C 205.1963500976563 216.1901245117188 205.203369140625 216.1905212402344 205.2102966308594 216.1905212402344 M 182.1318359375 216.1905212402344 C 182.1387634277344 216.1905212402344 182.1457824707031 216.1901245117188 182.1528930664063 216.1893005371094 C 182.9221801757813 216.1037902832031 185.7204284667969 215.67626953125 187.6167602539063 213.8660888671875 C 189.5130920410156 212.0570678710938 189.8921203613281 209.4516906738281 189.9621887207031 208.7359008789063 C 189.9704132080078 208.6441040039063 189.8914337158203 208.5663299560547 189.7937164306641 208.5663299560547 C 189.7873992919922 208.5663299560547 189.7810211181641 208.566650390625 189.7745666503906 208.5673217773438 C 189.0052490234375 208.654052734375 186.20703125 209.0815734863281 184.3106689453125 210.8905639648438 C 182.414306640625 212.7007751464844 182.0353088378906 215.3061828613281 181.9652709960938 216.0207214355469 C 181.9559020996094 216.1130676269531 182.0348205566406 216.1905212402344 182.1318359375 216.1905212402344 M 202.6526489257813 206.8279724121094 C 203.1175231933594 206.8279724121094 203.6024780273438 206.7812805175781 204.0871887207031 206.6642761230469 C 206.4839172363281 206.0853271484375 207.9737243652344 204.0075988769531 207.9737243652344 204.0075988769531 C 207.9737243652344 204.0075988769531 206.4513702392578 203.2828826904297 204.6190643310547 203.2828826904297 C 204.1537628173828 203.2828826904297 203.6681671142578 203.3296813964844 203.1828002929688 203.4469299316406 C 201.1838989257813 203.9294128417969 199.8154296875 205.4550476074219 199.4163818359375 205.9485168457031 C 199.3513488769531 206.0278930664063 199.3838806152344 206.1427307128906 199.4826965332031 206.1830139160156 C 199.9422607421875 206.3727111816406 201.2004699707031 206.8280334472656 202.6526489257813 206.8279724121094 M 184.6895904541016 206.8279724121094 C 186.1412353515625 206.8279724121094 187.3989868164063 206.3726806640625 187.8594360351563 206.1830139160156 C 187.958251953125 206.1427307128906 187.9907836914063 206.0278930664063 187.9257507324219 205.9485168457031 C 187.5267028808594 205.4550476074219 186.1582336425781 203.9294128417969 184.1593017578125 203.4469299316406 C 183.6740264892578 203.3298797607422 183.1891326904297 203.2832183837891 182.7239685058594 203.2832183837891 C 181.2718353271484 203.2832183837891 180.0139770507813 203.7382507324219 179.5535583496094 203.9269714355469 C 179.4559631347656 203.96728515625 179.4234313964844 204.0820922851563 179.4872436523438 204.1627197265625 C 179.8862915039063 204.6549682617188 181.2547607421875 206.1805725097656 183.2549133300781 206.6642761230469 C 183.7396240234375 206.7812805175781 184.2245178222656 206.8279724121094 184.6893005371094 206.8279724121094 C 184.6894683837891 206.8279724121094 184.6894073486328 206.8279724121094 184.6895904541016 206.8279724121094 M 196.0717163085938 204.5120544433594 C 196.0786437988281 204.5120544433594 196.085693359375 204.5116577148438 196.0927734375 204.5108337402344 C 196.8620910644531 204.4228820800781 199.6590576171875 203.988037109375 201.5491638183594 202.1729431152344 C 203.4392395019531 200.3578186035156 203.8107604980469 197.75244140625 203.8782958984375 197.0366516113281 C 203.8876342773438 196.9443817138672 203.8088531494141 196.8680725097656 203.7119445800781 196.8680725097656 C 203.7049407958984 196.8680725097656 203.6978454589844 196.8684692382813 203.690673828125 196.8692932128906 C 202.92138671875 196.9572448730469 200.1243896484375 197.3921203613281 198.2343139648438 199.2059936523438 C 196.3442077636719 201.0210876464844 195.9727172851563 203.6277160644531 195.9051513671875 204.343505859375 C 195.8958129882813 204.4346923828125 195.9747314453125 204.5120544433594 196.0717163085938 204.5120544433594 M 191.2702026367188 204.5120544433594 C 191.3661804199219 204.5120544433594 191.4451599121094 204.4346923828125 191.4369812011719 204.343505859375 C 191.3681640625 203.6277160644531 190.9979248046875 201.0210876464844 189.1078186035156 199.2059936523438 C 187.2177429199219 197.3921203613281 184.4194946289063 196.9572448730469 183.6514587402344 196.8692932128906 C 183.644287109375 196.8684692382813 183.6371917724609 196.8680725097656 183.6301879882813 196.8680725097656 C 183.5332641601563 196.8680725097656 183.4544219970703 196.9443969726563 183.4625854492188 197.0366516113281 C 183.5313720703125 197.75244140625 183.901611328125 200.3578186035156 185.7917175292969 202.1729431152344 C 187.6830749511719 203.988037109375 190.4800415039063 204.4228820800781 191.2493591308594 204.5108337402344 C 191.2563781738281 204.5116577148438 191.2633056640625 204.5120544433594 191.2702026367188 204.5120544433594 M 193.6742553710938 201.0913391113281 C 193.7228088378906 201.0913391113281 193.7713928222656 201.0720825195313 193.8049011230469 201.0332946777344 C 194.2076721191406 200.5691528320313 195.3910522460938 199.0533142089844 195.4048156738281 197.2455139160156 C 195.4185485839844 195.43896484375 194.2577209472656 193.9072570800781 193.8624572753906 193.4382019042969 C 193.8290405273438 193.3988189697266 193.7797393798828 193.3789672851563 193.7304077148438 193.3789672851563 C 193.6818542480469 193.3789672851563 193.6332550048828 193.398193359375 193.5997619628906 193.4369812011719 C 193.1969909667969 193.9011535644531 192.0136413574219 195.4169921875 191.9998779296875 197.2235412597656 C 191.9861145019531 199.0313110351563 193.1469421386719 200.5618286132813 193.542236328125 201.0320739746094 C 193.5756225585938 201.0714721679688 193.6249084472656 201.0913391113281 193.6742553710938 201.0913391113281 M 197.6021270751953 224.7760620117188 L 197.6017761230469 224.7760620117188 C 195.2404937744141 224.7760162353516 192.8223114013672 224.1824798583984 191.2095336914063 223.6845703125 C 190.2609710693359 223.3913726806641 189.3445434570313 223.2427673339844 188.4853668212891 223.2427673339844 C 186.9305725097656 223.2427673339844 185.9180603027344 223.724853515625 185.4529113769531 224.0122222900391 C 185.2667083740234 224.1273040771484 185.0529937744141 224.1881866455078 184.8350524902344 224.1881866455078 C 184.4423217773438 224.1882171630859 184.0776672363281 223.9940338134766 183.8596954345703 223.6687316894531 C 183.6463623046875 223.3503723144531 183.6062316894531 222.9482116699219 183.7523193359375 222.5930023193359 L 183.7533874511719 222.5903930664063 L 183.7544708251953 222.5877990722656 C 184.8643188476563 219.9317932128906 188.3374938964844 219.5352172851563 190.3090209960938 219.5352172851563 C 190.3189544677734 219.5352172851563 190.3288269042969 219.5352325439453 190.3386535644531 219.5352478027344 L 191.2716674804688 209.9110107421875 C 191.21533203125 209.6556091308594 191.0991058349609 209.3760986328125 190.9291381835938 209.0812225341797 C 190.7923583984375 210.14013671875 190.2661285400391 212.7207489013672 188.3070068359375 214.5896606445313 C 186.1948852539063 216.6058349609375 183.1526336669922 217.0840606689453 182.2660217285156 217.1828918457031 C 182.2216644287109 217.1879425048828 182.1765289306641 217.1905212402344 182.1318359375 217.1905212402344 C 181.8000030517578 217.1905212402344 181.4827880859375 217.0500946044922 181.2615203857422 216.8052215576172 C 181.0438385009766 216.5643463134766 180.9377136230469 216.2416076660156 180.9703826904297 215.9197845458984 C 181.0518798828125 215.0882110595703 181.48486328125 212.2055358886719 183.6201782226563 210.1672210693359 C 185.7297058105469 208.1548767089844 188.7783966064453 207.6732940673828 189.6625366210938 207.5736083984375 L 189.6668853759766 207.5731201171875 L 189.6712493896484 207.5726623535156 C 189.6845550537109 207.5712890625 189.6979370117188 207.5701293945313 189.7113494873047 207.5691986083984 C 189.5869598388672 207.4469146728516 189.4561920166016 207.3244018554688 189.3194580078125 207.2021484375 C 189.0492248535156 206.9589080810547 188.9137573242188 206.6190490722656 188.9350433349609 206.2763519287109 C 188.9318084716797 206.2918243408203 188.9282379150391 206.3072509765625 188.9243316650391 206.3226318359375 C 188.8345794677734 206.6761627197266 188.5776062011719 206.9701538085938 188.2369232177734 207.1090240478516 C 187.7145690917969 207.3242034912109 186.3161010742188 207.8279724121094 184.6895904541016 207.8279724121094 L 184.6893005371094 207.8279724121094 C 184.1085357666016 207.8279724121094 183.5469970703125 207.7635040283203 183.0202789306641 207.6363525390625 C 180.7699584960938 207.0921630859375 179.2566375732422 205.4662322998047 178.7104339599609 204.7924346923828 L 178.7067565917969 204.7879180908203 L 178.7031402587891 204.7833557128906 C 178.4803314208984 204.5018615722656 178.4011688232422 204.1270141601563 178.4913635253906 203.7806549072266 C 178.5821228027344 203.4320526123047 178.8364562988281 203.1412658691406 179.1717071533203 203.0027465820313 C 179.7013244628906 202.7856597900391 181.1022033691406 202.2832183837891 182.7239685058594 202.2832183837891 C 183.3049621582031 202.2832183837891 183.8667755126953 202.3476715087891 184.393798828125 202.4748077392578 C 184.5306243896484 202.5078277587891 184.6646270751953 202.5448303222656 184.7959289550781 202.5853881835938 C 182.933349609375 200.5732727050781 182.5435180664063 197.9267730712891 182.4671630859375 197.1322937011719 L 182.4668121337891 197.1285858154297 L 182.4664916992188 197.1248626708984 C 182.4381713867188 196.80517578125 182.546630859375 196.485595703125 182.7640533447266 196.2480621337891 C 182.985107421875 196.0065765380859 183.3007965087891 195.8680725097656 183.6301727294922 195.8680725097656 C 183.6750335693359 195.8680725097656 183.7204284667969 195.8706665039063 183.7650756835938 195.8757629394531 C 184.6487426757813 195.9769744873047 187.6949920654297 196.4641265869141 189.8002319335938 198.4844818115234 C 191.9246215820313 200.5245666503906 192.3520050048828 203.4115753173828 192.4323883056641 204.2478179931641 L 192.4326934814453 204.2509918212891 L 192.4329833984375 204.2541656494141 C 192.4616546630859 204.57373046875 192.3532867431641 204.8935089111328 192.1356811523438 205.1315155029297 C 191.91455078125 205.3733520507813 191.5991058349609 205.5120544433594 191.2702026367188 205.5120544433594 C 191.2241821289063 205.5120544433594 191.1776733398438 205.5093231201172 191.1319427490234 205.50390625 C 191.0697784423828 205.4967956542969 190.9967041015625 205.4877624511719 190.9139862060547 205.4763793945313 C 191.3857727050781 205.7663116455078 191.8675994873047 206.1198577880859 192.3021850585938 206.4641265869141 L 192.6730804443359 203.601806640625 C 192.7489776611328 203.0171203613281 193.2362670898438 202.5928955078125 193.8318023681641 202.5928955078125 C 194.4274444580078 202.5928955078125 194.9147338867188 203.0172119140625 194.9904937744141 203.6018218994141 L 194.9928741455078 203.6202239990234 C 195.1946105957031 202.4083099365234 195.7927093505859 200.1642608642578 197.5416717529297 198.4847259521484 C 199.6479187011719 196.46337890625 202.6937408447266 195.9767608642578 203.5770721435547 195.8757629394531 C 203.62158203125 195.8706665039063 203.6670227050781 195.8680725097656 203.7119445800781 195.8680725097656 C 204.0439758300781 195.8680725097656 204.3612518310547 196.0083923339844 204.5824127197266 196.2530822753906 C 204.7982482910156 196.4918670654297 204.9042663574219 196.8113250732422 204.8738708496094 197.1305847167969 L 204.8738708496094 197.1305847167969 C 204.7989959716797 197.9241790771484 204.4132232666016 200.5688171386719 202.5446166992188 202.5858764648438 C 202.6762847900391 202.545166015625 202.8109436035156 202.5079650878906 202.9481658935547 202.474853515625 C 203.4753723144531 202.3474884033203 204.0376129150391 202.2828826904297 204.6190643310547 202.2828826904297 C 206.6538543701172 202.2828826904297 208.3330688476563 203.0711364746094 208.403564453125 203.1046905517578 L 209.483154296875 203.6186218261719 L 208.7863922119141 204.5903167724609 C 208.7167205810547 204.6874847412109 207.0486602783203 206.9776763916016 204.3219909667969 207.6363220214844 C 203.7951049804688 207.7635040283203 203.2335052490234 207.8279724121094 202.6526489257813 207.8279724121094 L 202.6526947021484 207.8279724121094 C 202.6526489257813 207.8279724121094 202.6526489257813 207.8279724121094 202.6526489257813 207.8279724121094 C 201.0229949951172 207.8280334472656 199.6260833740234 207.3240509033203 199.1011352539063 207.1073608398438 C 198.7645721435547 206.9701843261719 198.5075836181641 206.6762237548828 198.4178314208984 206.3226928710938 C 198.3291168212891 205.9733428955078 198.412353515625 205.5979156494141 198.6405334472656 205.3175964355469 C 198.7521514892578 205.1796722412109 198.9039306640625 205.0022277832031 199.0940246582031 204.8024749755859 C 197.8225555419922 205.278076171875 196.6901702880859 205.4490509033203 196.2063598632813 205.5043640136719 C 196.1637420654297 205.5093536376953 196.1174926757813 205.5120544433594 196.0717163085938 205.5120544433594 C 195.7395935058594 205.5120544433594 195.4221496582031 205.3714447021484 195.2007904052734 205.1262817382813 C 195.1957244873047 205.1206665039063 195.1907043457031 205.114990234375 195.1857452392578 205.1092987060547 L 195.3824615478516 206.6279144287109 L 196.3644409179688 205.9122924804688 C 196.5681457519531 205.7639617919922 196.8074645996094 205.6856994628906 197.0568237304688 205.6856994628906 C 197.5035095214844 205.6856994628906 197.9180145263672 205.9442138671875 198.1128234863281 206.3442687988281 C 198.3045654296875 206.738037109375 198.2553558349609 207.1982727050781 197.9845275878906 207.5464324951172 C 197.9690246582031 207.5664825439453 197.9537200927734 207.58642578125 197.9385223388672 207.6063995361328 C 199.0565490722656 207.7623901367188 201.7850799560547 208.319580078125 203.7217102050781 210.1669769287109 C 205.8574829101563 212.2071075439453 206.2902984619141 215.088623046875 206.3720855712891 215.9231719970703 L 206.3725433349609 215.9278259277344 L 206.3729553222656 215.9324951171875 C 206.4013214111328 216.2528228759766 206.2926940917969 216.572998046875 206.0749053955078 216.8109436035156 C 205.8540954589844 217.0521697998047 205.5389556884766 217.1905212402344 205.2102966308594 217.1905212402344 C 205.1656036376953 217.1905212402344 205.1204681396484 217.1879425048828 205.0761108398438 217.1828918457031 C 204.1894989013672 217.0840606689453 201.1472473144531 216.6058349609375 199.0348815917969 214.5894317626953 C 197.678955078125 213.2959594726563 197.0094757080078 211.6614379882813 196.6804351806641 210.4264984130859 L 197.3715362548828 220.7941131591797 C 197.9557647705078 220.9556274414063 198.5751190185547 221.0372467041016 199.2195129394531 221.0372467041016 C 200.5110626220703 221.0372467041016 201.5912780761719 220.7128753662109 202.1202392578125 220.5195159912109 C 202.2518615722656 220.4715728759766 202.3880615234375 220.4474639892578 202.5261535644531 220.4474639892578 C 202.94970703125 220.4474639892578 203.3411712646484 220.6762084960938 203.5477752685547 221.0444183349609 C 203.7501220703125 221.4050598144531 203.7417602539063 221.8486633300781 203.5259552001953 222.2021331787109 C 202.9633026123047 223.1177062988281 202.1096343994141 223.7991943359375 200.9871368408203 224.2301330566406 C 200.0435943603516 224.5923767089844 198.9047088623047 224.7760620117188 197.6021270751953 224.7760620117188 Z M 188.7005157470703 205.3162536621094 C 188.884521484375 205.5416107177734 188.9746704101563 205.8286743164063 188.9569091796875 206.1143341064453 C 188.9694366455078 206.0543670654297 188.9868927001953 205.9948120117188 189.0094299316406 205.9360961914063 C 189.1344909667969 205.6101989746094 189.3999176025391 205.3619079589844 189.7199401855469 205.2501831054688 C 189.2776336669922 205.1443634033203 188.7749328613281 204.9996643066406 188.2483673095703 204.8027496337891 C 188.4376831054688 205.0016937255859 188.5890655517578 205.1786041259766 188.7005157470703 205.3162536621094 Z M 193.6742553710938 202.0913391113281 C 193.3278045654297 202.0913391113281 193.0016174316406 201.9409027099609 192.7793273925781 201.6785888671875 C 192.2371978759766 201.0336761474609 190.9839324951172 199.314208984375 190.9999084472656 197.2159271240234 C 191.0159149169922 195.1138763427734 192.2951812744141 193.4146118164063 192.8444519042969 192.7816009521484 C 193.0649719238281 192.5263214111328 193.3884124755859 192.3789520263672 193.7304077148438 192.3789520263672 C 194.0766296386719 192.3789520263672 194.4026947021484 192.5292358398438 194.6249847412109 192.7912445068359 C 195.1669616699219 193.4344024658203 196.4207611083984 195.1512756347656 196.40478515625 197.2531127929688 C 196.3887634277344 199.3563690185547 195.1094512939453 201.0557098388672 194.5601806640625 201.6887054443359 C 194.3395690917969 201.9440155029297 194.0161743164063 202.0913391113281 193.6742553710938 202.0913391113281 Z" stroke="none" fill="#fff"/>
    </g>
  </g>
</svg>
