<svg xmlns="http://www.w3.org/2000/svg" width="17.729" height="23.245" viewBox="0 0 17.729 23.245"><path d="M84.865,0a8.866,8.866,0,0,0-7.541,13.526L84.36,22.9a.739.739,0,0,0,.628.349h.006a.739.739,0,0,0,.628-.359l6.857-9.48A8.867,8.867,0,0,0,84.865,0Zm6.346,12.648-6.234,8.439-6.4-8.34a7.392,7.392,0,1,1,12.632-.1Z" transform="translate(-76)" fill="#5287f5"/><g transform="translate(4.432 4.432)"><path d="M170.432,90a4.432,4.432,0,1,0,4.432,4.432A4.437,4.437,0,0,0,170.432,90Zm0,7.4a2.965,2.965,0,1,1,2.96-2.965A2.967,2.967,0,0,1,170.432,97.4Z" transform="translate(-166 -90)" fill="#5287f5"/></g></svg>