<svg xmlns="http://www.w3.org/2000/svg" width="15.407" height="20.201" viewBox="0 0 15.407 20.201"><g transform="translate(-390 -995.004)"><g transform="translate(390 995.004)"><path d="M83.7,0A7.705,7.705,0,0,0,77.15,11.755L83.265,19.9a.642.642,0,0,0,.545.3h.005a.642.642,0,0,0,.546-.312l5.959-8.238A7.705,7.705,0,0,0,83.7,0Zm5.515,10.991L83.8,18.325l-5.56-7.247a6.424,6.424,0,1,1,10.978-.087Z" transform="translate(-76 0)" fill="#5287f5"/></g><g transform="translate(393.852 998.856)"><path d="M169.852,90a3.852,3.852,0,1,0,3.852,3.852A3.856,3.856,0,0,0,169.852,90Zm0,6.428a2.576,2.576,0,1,1,2.572-2.576A2.578,2.578,0,0,1,169.852,96.428Z" transform="translate(-166 -90)" fill="#5287f5"/></g></g></svg>