<svg xmlns="http://www.w3.org/2000/svg" width="16.006" height="21.608" viewBox="0 0 16.006 21.608"><g transform="translate(-773.997 -361)"><path d="M84,0a8.134,8.134,0,0,0-8,8.24,8.4,8.4,0,0,0,1.195,4.333l6.353,8.71a.663.663,0,0,0,.567.325h.005a.663.663,0,0,0,.567-.334l6.191-8.812A8.417,8.417,0,0,0,92.006,8.24,8.134,8.134,0,0,0,84,0Zm5.73,11.757L84.1,19.6,78.328,11.85a7.01,7.01,0,0,1-1-3.61,6.679,6.679,0,1,1,13.352,0A7.016,7.016,0,0,1,89.733,11.757Z" transform="translate(697.997 361)" fill="#ff8d8d"/><g transform="translate(777.498 364.885)"><path d="M170.5,90a4.5,4.5,0,1,0,4.5,4.5A4.507,4.507,0,0,0,170.5,90Zm0,7.513a3.011,3.011,0,1,1,3.006-3.011A3.013,3.013,0,0,1,170.5,97.513Z" transform="translate(-166 -90)" fill="#ff8d8d"/></g></g></svg>