<svg xmlns="http://www.w3.org/2000/svg" width="20.553" height="20.549" viewBox="0 0 20.553 20.549"><g transform="translate(894.327 -532.538)"><path d="M-856.9,551.739a.909.909,0,0,1-.992.641c-1.88-.013-3.761-.005-5.641-.005h-.25c.075.081.12.134.169.182q.967.971,1.934,1.942a.8.8,0,0,1,.18,1.009.784.784,0,0,1-1.149.249,1.763,1.763,0,0,1-.206-.186q-1.123-1.125-2.243-2.252a2.382,2.382,0,0,1,.015-3.558q1.133-1.128,2.267-2.256a.811.811,0,0,1,.842-.263.784.784,0,0,1,.414,1.242,2.32,2.32,0,0,1-.188.2l-2.055,2.1h.19c1.907,0,3.814.008,5.721-.006a.909.909,0,0,1,.992.641Z" transform="translate(-16.974 -8.728)" fill="#5287f5" stroke="#5287f5" stroke-width="0.2"/><path d="M-887.779,532.638a2.021,2.021,0,0,1,.4.242.733.733,0,0,1,.183.823.755.755,0,0,1-.688.519c-.2.016-.4.006-.6.006h-3.2c-.649,0-.951.3-.951.942q0,1.8,0,3.6a.822.822,0,0,1-.265.659.755.755,0,0,1-.814.152.768.768,0,0,1-.5-.658,1.486,1.486,0,0,1-.006-.2q0-1.808,0-3.616a2.376,2.376,0,0,1,2.034-2.437.339.339,0,0,0,.073-.03Z" transform="translate(-0.005)" fill="#5287f5" stroke="#5287f5" stroke-width="0.2"/><path d="M-854.05,539a2,2,0,0,1-.242.4.732.732,0,0,1-.822.183.757.757,0,0,1-.52-.686c-.015-.178-.006-.357-.006-.536q0-1.628,0-3.255a.8.8,0,0,0-.876-.876c-1.257,0-2.515,0-3.771,0a.773.773,0,0,1-.77-.489.727.727,0,0,1,.155-.843,2,2,0,0,1,.414-.257h4.332a.462.462,0,0,0,.091.033,2.356,2.356,0,0,1,1.57.968,2.8,2.8,0,0,1,.445,1.105Z" transform="translate(-19.824)" fill="#5287f5" stroke="#5287f5" stroke-width="0.2"/><path d="M-892.116,572.992a2.755,2.755,0,0,1-1.158-.484,2.292,2.292,0,0,1-.941-1.824c-.018-1.278-.01-2.556,0-3.834a.788.788,0,0,1,.8-.812.792.792,0,0,1,.786.826c0,1.2,0,2.4,0,3.6,0,.644.3.942.951.943,1.238,0,2.477,0,3.715,0a.762.762,0,0,1,.752.487.728.728,0,0,1-.154.844,2.009,2.009,0,0,1-.415.257Z" transform="translate(0 -20.005)" fill="#5287f5" stroke="#5287f5" stroke-width="0.2"/><path d="M-860.486,572.983a2.011,2.011,0,0,1-.4-.242.732.732,0,0,1-.184-.822.76.76,0,0,1,.686-.521c.138-.013.278-.006.416-.006q1.727,0,3.454,0a.8.8,0,0,0,.876-.876c0-1.217,0-2.435,0-3.652a.773.773,0,0,1,.489-.77.728.728,0,0,1,.843.155,2.013,2.013,0,0,1,.257.414v4.213c-.013.043-.029.086-.038.131a2.354,2.354,0,0,1-1.651,1.868c-.136.046-.278.072-.417.107Z" transform="translate(-19.826 -19.997)" fill="#5287f5" stroke="#5287f5" stroke-width="0.2"/><path d="M-887.285,550.781c-.289-.3-.55-.565-.816-.831-.454-.454-.913-.9-1.366-1.36a.775.775,0,0,1-.226-.816.766.766,0,0,1,.6-.55.724.724,0,0,1,.7.195c.867.856,1.751,1.7,2.582,2.586a2.3,2.3,0,0,1-.018,3.1c-.82.873-1.678,1.711-2.529,2.555a.782.782,0,0,1-1.139.006.787.787,0,0,1,.03-1.139c.649-.662,1.307-1.315,1.961-1.972.049-.049.1-.1.174-.185h-.248q-2.871,0-5.741,0a.853.853,0,0,1-.682-.26.755.755,0,0,1-.16-.813.767.767,0,0,1,.673-.513,2.052,2.052,0,0,1,.238-.006h5.972Z" transform="translate(-0.003 -8.723)" fill="#5287f5" stroke="#5287f5" stroke-width="0.2"/></g></svg>