<svg xmlns="http://www.w3.org/2000/svg" width="29.344" height="29.344" viewBox="0 0 29.344 29.344"><path d="M29.078,14.056l-4.8-4.514a.846.846,0,0,0-1.427.616v1.975H17.212V6.49h1.975A.846.846,0,0,0,19.8,5.063L15.288.266a.846.846,0,0,0-1.233,0l-4.514,4.8a.846.846,0,0,0,.616,1.427h1.975v5.643H6.49V10.158a.846.846,0,0,0-1.427-.616l-4.8,4.514a.846.846,0,0,0,0,1.233l4.8,4.514a.846.846,0,0,0,1.427-.616V17.211h5.643v5.643H10.158a.846.846,0,0,0-.616,1.427l4.514,4.8a.846.846,0,0,0,1.233,0l4.514-4.8a.846.846,0,0,0-.616-1.427H17.211V17.211h5.643v1.975a.846.846,0,0,0,1.427.616l4.8-4.514a.847.847,0,0,0,0-1.233Z" fill="#629c44"/></svg>