<svg xmlns="http://www.w3.org/2000/svg" width="20.989" height="25.109" viewBox="0 0 20.989 25.109"><path d="M-1006.271-2.424a6.961,6.961,0,0,1-2.473-5.328v-3.13a7.417,7.417,0,0,0-5.151-7.053v-1.188a2.256,2.256,0,0,0-2.253-2.253,2.256,2.256,0,0,0-2.254,2.253v1.188a7.417,7.417,0,0,0-5.151,7.053v3.13a6.975,6.975,0,0,1-2.482,5.336,1.737,1.737,0,0,0-.608,1.321A1.74,1.74,0,0,0-1024.9.644h5.025a3.8,3.8,0,0,0,3.731,3.09,3.8,3.8,0,0,0,3.731-3.09h5.025a1.74,1.74,0,0,0,1.738-1.738A1.751,1.751,0,0,0-1006.271-2.424Zm-7.6,3.067a2.387,2.387,0,0,1-2.275,1.674,2.387,2.387,0,0,1-2.275-1.674ZM-1024.9-.773a.322.322,0,0,1-.322-.322.325.325,0,0,1,.116-.247,8.378,8.378,0,0,0,2.974-6.41v-3.13a6,6,0,0,1,4.534-5.809.7.7,0,0,0,.142-.034,5.986,5.986,0,0,1,1.312-.145,5.984,5.984,0,0,1,1.312.145.706.706,0,0,0,.142.034,6,6,0,0,1,4.534,5.809v3.13a8.384,8.384,0,0,0,2.978,6.412.322.322,0,0,1,.113.245.322.322,0,0,1-.322.322Zm9.593-17.464a7.451,7.451,0,0,0-.837-.048,7.45,7.45,0,0,0-.837.048v-.885a.838.838,0,0,1,.837-.837.838.838,0,0,1,.837.837Z" transform="translate(1026.642 21.375)" fill="#fff"/></svg>