<svg xmlns="http://www.w3.org/2000/svg" width="26.005" height="22.695" viewBox="0 0 26.005 22.695"><g transform="translate(0.25 0.25)"><path d="M106.471,155.217a.229.229,0,0,0,.152-.03c.03,0,.061,0,.061-.03a.111.111,0,0,0,.091-.031c.03,0,.06-.03.091-.03s.03-.03.06-.03a.936.936,0,0,0,.243-.243c0-.03.03-.03.03-.061s.031-.06.031-.091.03-.06.03-.091.03-.03.03-.06a1.268,1.268,0,0,1,.031-.152v-3.761A10.777,10.777,0,0,0,96.462,139.9H92.64a.841.841,0,0,0-.849.818v3.762a10.778,10.778,0,0,0,10.859,10.707h3.821ZM93.459,144.51v-2.942h2.972a9.114,9.114,0,0,1,9.161,9.069v1.79l-7.128-7.037a.837.837,0,0,0-1.183,1.183l7.128,7.037h-1.79A9.179,9.179,0,0,1,93.459,144.51Z" transform="translate(-91.791 -139.9)" fill="#5287f5" stroke="#5287f5" stroke-miterlimit="10" stroke-width="0.5"/><path d="M116.686,144.7h-2.742a7.592,7.592,0,0,0-7.793,7.355v2.584a.154.154,0,0,0,.021.1c0,.021,0,.042.022.042a.073.073,0,0,0,.022.062c0,.021.022.042.022.063s.021.021.021.041a.648.648,0,0,0,.175.167c.021,0,.021.021.043.021s.044.021.065.021.044.021.066.021a.079.079,0,0,1,.043.02.967.967,0,0,1,.109.021H109.5a7.593,7.593,0,0,0,7.793-7.355v-2.583A.583.583,0,0,0,116.686,144.7Zm-.587,3.167a6.422,6.422,0,0,1-6.574,6.23H108.24l5.116-4.834a.549.549,0,0,0,0-.812.609.609,0,0,0-.849,0l-5.116,4.834v-1.23a6.422,6.422,0,0,1,6.574-6.23H116.1v2.042Z" transform="translate(-91.791 -139.9)" fill="#5287f5" stroke="#5287f5" stroke-miterlimit="10" stroke-width="0.5"/><path d="M105.814,148.145v12.238H103.5a.88.88,0,0,0-.888.856.859.859,0,0,0,.888.856h6.436a.88.88,0,0,0,.888-.856.933.933,0,0,0-.92-.856h-2.346V148.145" transform="translate(-91.791 -139.9)" fill="#5287f5" stroke="#5287f5" stroke-miterlimit="10" stroke-width="0.5"/></g></svg>