<svg xmlns="http://www.w3.org/2000/svg" width="41.535" height="36.037" viewBox="0 0 41.535 36.037"><g transform="translate(-7860.461 1669.051)"><g transform="translate(7860.711 -1653.084)"><g transform="translate(0 0)"><path d="M104.552,153.214a.2.2,0,0,0,.132-.026c.026,0,.053,0,.053-.026a.1.1,0,0,0,.079-.027c.026,0,.052-.026.079-.026s.026-.026.052-.026a.813.813,0,0,0,.211-.211c0-.026.026-.026.026-.053s.027-.052.027-.079.026-.052.026-.079.026-.026.026-.052a1.1,1.1,0,0,1,.027-.132v-3.269a9.368,9.368,0,0,0-9.439-9.307H92.529a.731.731,0,0,0-.738.711v3.27a9.369,9.369,0,0,0,9.439,9.307h3.321Zm-11.311-9.307V141.35h2.583a7.922,7.922,0,0,1,7.963,7.883v1.556l-6.2-6.117a.727.727,0,0,0-1.028,1.028l6.2,6.117H101.2A7.979,7.979,0,0,1,93.241,143.907Z" transform="translate(-91.791 -139.9)" fill="#629c44" stroke="#629c44" stroke-miterlimit="10" stroke-width="0.5"/><path d="M115.309,144.7h-2.383a6.6,6.6,0,0,0-6.774,6.393v2.246a.134.134,0,0,0,.018.09c0,.018,0,.036.019.036a.064.064,0,0,0,.019.054c0,.018.019.036.019.055s.018.018.018.036a.56.56,0,0,0,.152.145c.018,0,.018.018.037.018s.038.018.057.018.038.018.057.018a.069.069,0,0,1,.037.017.838.838,0,0,1,.095.018h2.384a6.6,6.6,0,0,0,6.774-6.393V145.2A.507.507,0,0,0,115.309,144.7Zm-.51,2.753a5.582,5.582,0,0,1-5.714,5.415h-1.117l4.447-4.2a.478.478,0,0,0,0-.706.529.529,0,0,0-.738,0l-4.447,4.2v-1.069a5.582,5.582,0,0,1,5.714-5.416H114.8v1.775Z" transform="translate(-93.669 -140.527)" fill="#629c44" stroke="#629c44" stroke-miterlimit="10" stroke-width="0.5"/></g><path d="M106.752,148.145V158.17h-6.412a.721.721,0,0,0-.727.7.7.7,0,0,0,.727.7h34.844a.721.721,0,0,0,.727-.7.764.764,0,0,0-.754-.7H108.18V148.145" transform="translate(-94.626 -139.502)" fill="#629c44"/></g><circle cx="3" cy="3" r="3" transform="translate(7882.312 -1640.893)" fill="#629c44"/><circle cx="2" cy="2" r="2" transform="translate(7868.312 -1638.893)" fill="#629c44"/><circle cx="2" cy="2" r="2" transform="translate(7877.312 -1639.893)" fill="#629c44"/><circle cx="1.5" cy="1.5" r="1.5" transform="translate(7875.312 -1636.893)" fill="#629c44"/><g transform="translate(7876.319 -1669.051)"><path d="M25.444,12.84l-4.2-4.124a.717.717,0,0,0-.8-.147.775.775,0,0,0-.447.71v1.8H15.061V5.928h1.728a.74.74,0,0,0,.68-.467.8.8,0,0,0-.141-.837L13.378.243a.72.72,0,0,0-1.079,0L8.349,4.625a.8.8,0,0,0-.141.837.74.74,0,0,0,.68.467h1.728v5.155H5.679v-1.8a.775.775,0,0,0-.447-.71.717.717,0,0,0-.8.147L.233,12.84a.8.8,0,0,0,0,1.126l4.2,4.124a.717.717,0,0,0,.8.147.775.775,0,0,0,.447-.71v-1.8h4.938v5.155H8.888a.74.74,0,0,0-.68.467.8.8,0,0,0,.141.837l3.95,4.382a.72.72,0,0,0,1.079,0l3.95-4.382a.8.8,0,0,0,.141-.837.74.74,0,0,0-.68-.467H15.061V15.723H20v1.8a.775.775,0,0,0,.447.71.717.717,0,0,0,.8-.147l4.2-4.124a.8.8,0,0,0,0-1.126Z" transform="translate(0 0)" fill="#629c44"/></g></g></svg>