<svg xmlns="http://www.w3.org/2000/svg" width="64.692" height="64" viewBox="0 0 64.692 64">
  <g id="Inventor" transform="translate(1.006 1)">
    <path id="Union_11" data-name="Union 11" d="M26.248,59.864c-7.618-2.2-12.457-.2-14.326.882-.3.172-.673-.092-.545-.384,2.381-5.337,11.956-5.045,13.945-4.925a.351.351,0,0,0,.39-.294l2.223-21.476a.342.342,0,0,0,0-.075c-.474-2.721-3.152-5.379-4.992-6.919-.313-.264.074-.7.447-.5A38.017,38.017,0,0,1,29.1,30.242a.382.382,0,0,0,.621-.189l1.237-8.939a.376.376,0,0,1,.728,0l1.248,9.021a.381.381,0,0,0,.591.214l4.6-3.137c.332-.227.774.137.526.434a18.3,18.3,0,0,0-3.37,5.937.378.378,0,0,0-.011.095l1.676,23.539a.331.331,0,0,0,.232.281,20.612,20.612,0,0,0,12.951-.224c.322-.11.624.194.455.453C48.546,60.817,44.412,62,39.529,62A49.664,49.664,0,0,1,26.248,59.864ZM56.056,46.526c-1.676-.174-7.771-1.046-11.9-4.739a16.938,16.938,0,0,1-5.109-10.464.347.347,0,0,1,.409-.344c1.676.177,7.771,1.049,11.9,4.739a16.964,16.964,0,0,1,5.109,10.464.34.34,0,0,1-.363.346ZM5.469,46.182a16.948,16.948,0,0,1,5.109-10.464c4.131-3.69,10.226-4.562,11.9-4.739a.348.348,0,0,1,.409.344A16.937,16.937,0,0,1,17.78,41.787c-4.131,3.692-10.226,4.564-11.9,4.739l-.046,0A.338.338,0,0,1,5.469,46.182ZM43.626,26.116a.3.3,0,0,1-.144-.478,16.242,16.242,0,0,1,8.2-5.1c5.221-1.181,10.436,1.144,10.436,1.144A16.346,16.346,0,0,1,53.656,27.1a14.185,14.185,0,0,1-3.125.334A20.141,20.141,0,0,1,43.626,26.116ZM8.279,27.1A16.274,16.274,0,0,1,.072,22a.3.3,0,0,1,.144-.481,18.524,18.524,0,0,1,10.032-.979,16.242,16.242,0,0,1,8.2,5.1.3.3,0,0,1-.144.478A20.159,20.159,0,0,1,11.4,27.432,14.184,14.184,0,0,1,8.279,27.1Zm27.555-4.734a16.935,16.935,0,0,1,5.073-10.479c4.117-3.7,10.21-4.587,11.885-4.766a.343.343,0,0,1,.409.341,16.929,16.929,0,0,1-5.073,10.476c-4.117,3.7-10.209,4.589-11.885,4.769l-.046,0A.337.337,0,0,1,35.834,22.364Zm-10.141.341c-1.676-.179-7.768-1.066-11.888-4.769A16.946,16.946,0,0,1,8.731,7.46a.347.347,0,0,1,.411-.341c1.673.179,7.768,1.066,11.885,4.766A16.95,16.95,0,0,1,26.1,22.364a.34.34,0,0,1-.363.344Zm4.994-7.1c-.861-.959-3.39-4.081-3.36-7.768S29.935,1.065,30.812.118a.4.4,0,0,1,.572,0c.861.957,3.39,4.081,3.36,7.766s-2.608,6.779-3.485,7.726a.4.4,0,0,1-.572,0Z" transform="translate(0 0)" fill="none" stroke="#629c44" stroke-miterlimit="10" stroke-width="2"/>
  </g>
</svg>
