<svg xmlns="http://www.w3.org/2000/svg" width="43.542" height="39.708" viewBox="0 0 43.542 39.708"><g transform="translate(-7860.461 1672.722)"><path d="M-523.5,132.89c.083-.427.146-.859.252-1.281a7.185,7.185,0,0,1,1.864-3.323c1.038-1.06,2.093-2.1,3.143-3.15a.774.774,0,0,1,1.2.006c.821.816,2.578,2.6,2.648,2.68.089-.083.151-.138.21-.2,3.244-3.243,1.051-1.082,4.3-4.322a.479.479,0,0,0,.158-.489,6.58,6.58,0,0,1,.4-3.977,5.122,5.122,0,0,1,1.018-1.473.765.765,0,0,1,1.161-.017q2.16,2.15,4.311,4.311a.767.767,0,0,1-.036,1.178,5.614,5.614,0,0,1-4.206,1.525,10.012,10.012,0,0,1-1.276-.139.381.381,0,0,0-.383.115c-2.064,2.071,1.3-1.269-.764.8l-3.833,3.832s1.886,1.759,2.7,2.573a.793.793,0,0,1,.005,1.273q-1.49,1.493-2.983,2.983a7.479,7.479,0,0,1-4.59,2.2.781.781,0,0,0-.143.044h-1.235a1.11,1.11,0,0,0-.17-.044,6.909,6.909,0,0,1-2.524-.733,1.056,1.056,0,0,1-.437-.439,6.9,6.9,0,0,1-.465-1.192c-.137-.492-.212-1-.314-1.5Zm8-3.962-2.151-2.148c-.921.907-1.9,1.767-2.753,2.734a5.83,5.83,0,0,0-1.148,6.184.58.58,0,0,0,.4.389,5.908,5.908,0,0,0,6.413-1.361c.829-.782,1.617-1.608,2.423-2.415a1.071,1.071,0,0,0,.077-.09l-2.182-2.2Zm7.823-9.877a.577.577,0,0,0-.055.066,4.812,4.812,0,0,0-.47,3.453.243.243,0,0,0,.167.14,5.13,5.13,0,0,0,2.538-.094c.333-.105.648-.266.981-.4Z" transform="translate(8395.742 -1789.312)" fill="#629c44" stroke="#629c44" stroke-width="1"/><g transform="translate(7860.711 -1653.084)"><g transform="translate(0 0)"><path d="M104.552,153.214a.2.2,0,0,0,.132-.026c.026,0,.053,0,.053-.026a.1.1,0,0,0,.079-.027c.026,0,.052-.026.079-.026s.026-.026.052-.026a.813.813,0,0,0,.211-.211c0-.026.026-.026.026-.053s.027-.052.027-.079.026-.052.026-.079.026-.026.026-.052a1.1,1.1,0,0,1,.027-.132v-3.269a9.368,9.368,0,0,0-9.439-9.307H92.529a.731.731,0,0,0-.738.711v3.27a9.369,9.369,0,0,0,9.439,9.307h3.321Zm-11.311-9.307V141.35h2.583a7.922,7.922,0,0,1,7.963,7.883v1.556l-6.2-6.117a.727.727,0,0,0-1.028,1.028l6.2,6.117H101.2A7.979,7.979,0,0,1,93.241,143.907Z" transform="translate(-91.791 -139.9)" fill="#629c44" stroke="#629c44" stroke-miterlimit="10" stroke-width="0.5"/><path d="M115.309,144.7h-2.383a6.6,6.6,0,0,0-6.774,6.393v2.246a.134.134,0,0,0,.018.09c0,.018,0,.036.019.036a.064.064,0,0,0,.019.054c0,.018.019.036.019.055s.018.018.018.036a.56.56,0,0,0,.152.145c.018,0,.018.018.037.018s.038.018.057.018.038.018.057.018a.069.069,0,0,1,.037.017.838.838,0,0,1,.095.018h2.384a6.6,6.6,0,0,0,6.774-6.393V145.2A.507.507,0,0,0,115.309,144.7Zm-.51,2.753a5.582,5.582,0,0,1-5.714,5.415h-1.117l4.447-4.2a.478.478,0,0,0,0-.706.529.529,0,0,0-.738,0l-4.447,4.2v-1.069a5.582,5.582,0,0,1,5.714-5.416H114.8v1.775Z" transform="translate(-93.669 -140.527)" fill="#629c44" stroke="#629c44" stroke-miterlimit="10" stroke-width="0.5"/></g><path d="M106.752,148.145V158.17h-6.412a.721.721,0,0,0-.727.7.7.7,0,0,0,.727.7h34.844a.721.721,0,0,0,.727-.7.764.764,0,0,0-.754-.7H108.18V148.145" transform="translate(-94.626 -139.502)" fill="#629c44"/></g><circle cx="3" cy="3" r="3" transform="translate(7882.312 -1640.893)" fill="#629c44"/><circle cx="2" cy="2" r="2" transform="translate(7868.312 -1638.893)" fill="#629c44"/><circle cx="2" cy="2" r="2" transform="translate(7877.312 -1639.893)" fill="#629c44"/><circle cx="1.5" cy="1.5" r="1.5" transform="translate(7875.312 -1636.893)" fill="#629c44"/><g transform="translate(7882.312 -1661.971)"><path d="M21.495,10.847,17.949,7.363a.606.606,0,0,0-.677-.124.655.655,0,0,0-.378.6V9.363H12.723V5.008h1.46a.626.626,0,0,0,.574-.394.675.675,0,0,0-.119-.707L11.3.206a.608.608,0,0,0-.911,0l-3.337,3.7a.675.675,0,0,0-.119.707.626.626,0,0,0,.574.394h1.46V9.363H4.8V7.839a.655.655,0,0,0-.378-.6.606.606,0,0,0-.677.124L.2,10.847a.673.673,0,0,0,0,.951l3.546,3.484a.606.606,0,0,0,.677.124.655.655,0,0,0,.378-.6V13.282H8.969v4.355H7.509a.626.626,0,0,0-.574.394.675.675,0,0,0,.119.707l3.337,3.7a.608.608,0,0,0,.911,0l3.337-3.7a.675.675,0,0,0,.119-.707.625.625,0,0,0-.574-.394h-1.46V13.282h4.172v1.524a.655.655,0,0,0,.378.6.606.606,0,0,0,.677-.124L21.495,11.8a.673.673,0,0,0,0-.951Z" transform="translate(0 0)" fill="#629c44"/></g></g></svg>