<svg xmlns="http://www.w3.org/2000/svg" width="45" height="45" viewBox="0 0 45 45"><g fill="#9abede" stroke="#3071a9" stroke-width="1.5"><rect width="45" height="45" rx="4" stroke="none"/><rect x="0.75" y="0.75" width="43.5" height="43.5" rx="3.25" fill="none"/></g><g transform="translate(9.888 10.009)"><path d="M219.472,302.637a10.878,10.878,0,1,1,7.694-18.568h0a10.875,10.875,0,0,1-7.694,18.568Zm0-18.812a7.937,7.937,0,1,0,5.615,2.322A7.916,7.916,0,0,0,219.473,283.826Z" transform="translate(-208.598 -280.887)" fill="#fff"/><path d="M384.042,457.8a1.465,1.465,0,0,1-1.039-.431l-5.82-5.82a1.47,1.47,0,1,1,2.079-2.079l5.82,5.82a1.47,1.47,0,0,1-1.039,2.509Z" transform="translate(-360.692 -432.984)" fill="#fff"/></g></svg>