<svg xmlns="http://www.w3.org/2000/svg" width="25.674" height="25.674" viewBox="0 0 25.674 25.674">
  <g id="Group_464" data-name="Group 464" transform="translate(523.875 -113.569)">
    <path id="Path_329" data-name="Path 329" d="M-523.5,134c.078-.4.138-.813.239-1.211a6.8,6.8,0,0,1,1.763-3.143c.982-1,1.98-1.988,2.973-2.979a.732.732,0,0,1,1.134.006c.777.772,2.438,2.457,2.5,2.535.084-.078.143-.13.2-.186q4.6-4.6,9.207-9.2a.454.454,0,0,0,.149-.462,6.223,6.223,0,0,1,.374-3.762,4.843,4.843,0,0,1,.962-1.393.724.724,0,0,1,1.1-.017q2.043,2.034,4.077,4.077a.726.726,0,0,1-.034,1.114,5.309,5.309,0,0,1-3.978,1.442,9.467,9.467,0,0,1-1.207-.132.361.361,0,0,0-.362.108q-2.928,2.938-5.864,5.869l-3.625,3.624s1.784,1.664,2.551,2.433a.75.75,0,0,1,.005,1.2q-1.409,1.412-2.822,2.821a7.073,7.073,0,0,1-4.341,2.077.736.736,0,0,0-.136.041H-519.8a1.048,1.048,0,0,0-.161-.042,6.534,6.534,0,0,1-2.388-.693,1,1,0,0,1-.414-.415,6.529,6.529,0,0,1-.44-1.128c-.13-.465-.2-.947-.3-1.422Zm7.571-3.748-2.034-2.032c-.871.858-1.794,1.672-2.6,2.586a5.514,5.514,0,0,0-1.086,5.848.549.549,0,0,0,.374.368,5.587,5.587,0,0,0,6.065-1.287c.784-.74,1.529-1.521,2.292-2.284a.982.982,0,0,0,.073-.085l-2.063-2.085Zm12.54-14.455a.548.548,0,0,0-.052.062,4.551,4.551,0,0,0-.445,3.265.23.23,0,0,0,.158.132,4.852,4.852,0,0,0,2.4-.089c.315-.1.613-.251.928-.383Z" fill="#fff" stroke="#fff" stroke-width="0.75"/>
  </g>
</svg>
