<svg id="Product-green-big" xmlns="http://www.w3.org/2000/svg" width="54.818" height="54.806" viewBox="0 0 54.818 54.806">
  <g id="Path_343" data-name="Path 343" transform="translate(66.873 -10.597)" fill="none" stroke-miterlimit="10">
    <path d="M-66.864,54.7c.172-.889.3-1.787.525-2.664a14.946,14.946,0,0,1,3.877-6.911c2.159-2.2,4.353-4.373,6.538-6.552a1.61,1.61,0,0,1,2.267-.215,1.679,1.679,0,0,1,.226.228c1.708,1.7,5.83,5.635,5.975,5.809.184-.172,13.682-13.895,20.432-20.637a1,1,0,0,0,.328-1.016,14.4,14.4,0,0,1,.608-8.512,10.668,10.668,0,0,1,2.116-3.064,1.592,1.592,0,0,1,2.242-.2,1.517,1.517,0,0,1,.173.167q4.494,4.473,8.966,8.966a1.6,1.6,0,0,1,.13,2.259,1.61,1.61,0,0,1-.2.192,11.675,11.675,0,0,1-8.748,3.172,27.331,27.331,0,0,1-3.036-.5.8.8,0,0,0-.8.238c-4.292,4.308-20.557,20.688-20.557,20.688s3.989,4.059,5.677,5.751a1.651,1.651,0,0,1,.348,2.308,1.641,1.641,0,0,1-.337.339q-3.1,3.1-6.205,6.2a15.551,15.551,0,0,1-9.546,4.568,1.648,1.648,0,0,0-.3.091h-2.569a2.42,2.42,0,0,0-.354-.091,14.343,14.343,0,0,1-5.25-1.524,2.192,2.192,0,0,1-.91-.912,14.294,14.294,0,0,1-.968-2.48c-.285-1.024-.441-2.083-.653-3.127Z" stroke="none"/>
    <path d="M -56.48402786254883 63.40299987792969 C -56.41283798217773 63.38399124145508 -56.34095001220703 63.3670768737793 -56.2685546875 63.35231781005859 L -56.1685676574707 63.33192825317383 L -56.06702423095703 63.32182312011719 C -52.92005920410156 63.00869369506836 -49.96589660644531 61.5950813293457 -47.74871826171875 59.34138870239258 L -47.74230575561523 59.33486938476563 L -47.73584747314453 59.32842254638672 C -45.96976852416992 57.56574630737305 -44.08278656005859 55.68032455444336 -41.62830352783203 53.22587585449219 C -43.346923828125 51.50130081176758 -47.19316864013672 47.58784484863281 -47.23246002197266 47.54785919189453 L -47.55057525634766 47.22416305541992 L -47.63697814941406 47.30492782592773 L -48.56149291992188 46.19550704956055 L -48.61729431152344 46.13872909545898 L -48.6126823425293 46.13408279418945 L -48.95044708251953 45.72876358032227 C -49.15454483032227 45.52306365966797 -50.01822280883789 44.68974685668945 -50.8548698425293 43.88249588012695 C -52.13393783569336 42.64839553833008 -53.7092170715332 41.12847900390625 -54.68366622924805 40.16358947753906 C -55.05236434936523 40.53115463256836 -55.42124938964844 40.89853286743164 -55.79017639160156 41.26595306396484 C -57.51773071289063 42.98645782470703 -59.30410766601563 44.76554107666016 -61.03455352783203 46.52884674072266 L -61.03708267211914 46.53143692016602 L -61.03963470458984 46.53401184082031 C -62.67613220214844 48.18955230712891 -63.83735275268555 50.25955200195313 -64.39775085449219 52.52022171020508 L -64.39971923828125 52.52812957763672 L -64.40174102783203 52.5360107421875 C -64.53785705566406 53.06658935546875 -64.63728332519531 53.62670516967773 -64.74253082275391 54.21971893310547 C -64.78166198730469 54.44015884399414 -64.82183837890625 54.66650772094727 -64.86466217041016 54.89503860473633 L -64.87230682373047 57.07463836669922 C -64.82048034667969 57.33794021606445 -64.77188110351563 57.59922409057617 -64.72455596923828 57.85361099243164 C -64.59341430664063 58.55855941772461 -64.46951293945313 59.22459411621094 -64.29534149169922 59.85215377807617 C -64.08767700195313 60.57522583007813 -63.81300354003906 61.2809944152832 -63.47879028320313 61.95035552978516 C -63.46191787719727 61.97871398925781 -63.43829727172852 62.00201797485352 -63.4098014831543 62.01839447021484 C -62.00155258178711 62.73849105834961 -60.48789596557617 63.17645645141602 -58.91043472290039 63.32025909423828 L -58.82838821411133 63.32773971557617 L -58.74723815917969 63.34194183349609 C -58.65139389038086 63.35871505737305 -58.55490112304688 63.37910842895508 -58.45828247070313 63.40299987792969 L -56.48402786254883 63.40299987792969 M -20.68775367736816 23.74456405639648 C -18.2951488494873 23.74445152282715 -16.0152473449707 22.87101554870605 -14.23771381378174 21.27957916259766 C -16.96149826049805 18.5428581237793 -19.82002449035645 15.68436145782471 -22.74178695678711 12.77559471130371 C -23.36585998535156 13.4481029510498 -23.87592887878418 14.21037197113037 -24.26030540466309 15.04546165466309 C -25.11975288391113 17.04872894287109 -25.29638481140137 19.69056129455566 -24.74552726745605 22.30169105529785 C -24.67584991455078 22.59682083129883 -24.65290641784668 22.89717864990234 -24.6734676361084 23.19273948669434 C -24.6674976348877 23.19270133972168 -24.66158676147461 23.19268226623535 -24.65561294555664 23.19268226623535 C -24.44833183288574 23.19268226623535 -24.2415943145752 23.21577835083008 -24.03953170776367 23.26142883300781 C -23.78665542602539 23.30682182312012 -23.51851272583008 23.36051940917969 -23.23593139648438 23.41710662841797 C -22.56748390197754 23.55096435546875 -21.80983734130859 23.70269393920898 -21.32544898986816 23.72391700744629 L -21.30707168579102 23.72471809387207 L -21.2887077331543 23.72587013244629 C -21.08928298950195 23.73828315734863 -20.88709449768066 23.74457550048828 -20.68775367736816 23.74456405639648 M -56.16900253295898 65.40299987792969 L -58.73800277709961 65.40299987792969 C -58.85400009155273 65.36399841308594 -58.97200012207031 65.33300018310547 -59.09200286865234 65.31199645996094 C -60.92399978637695 65.14499664306641 -62.70600128173828 64.62799835205078 -64.34200286865234 63.78799819946289 C -64.73000335693359 63.58200073242188 -65.04700469970703 63.26399993896484 -65.25199890136719 62.87599945068359 C -65.6510009765625 62.08200073242188 -65.97499847412109 61.25099945068359 -66.22000122070313 60.39599990844727 C -66.5050048828125 59.37200164794922 -66.66100311279297 58.3129997253418 -66.87300109863281 57.26900100708008 L -66.86399841308594 54.70299911499023 C -66.69200134277344 53.81399917602539 -66.56400299072266 52.91600036621094 -66.33900451660156 52.03900146484375 C -65.69200134277344 49.42900085449219 -64.35300445556641 47.04100036621094 -62.46200180053711 45.12799835205078 C -60.30300140380859 42.92800140380859 -58.10900115966797 40.75500106811523 -55.92399978637695 38.57600021362305 C -55.60590362548828 38.19102096557617 -55.14584732055664 37.99172973632813 -54.68221664428711 37.99172973632813 C -54.32089996337891 37.99172973632813 -53.95746231079102 38.1126594543457 -53.65700149536133 38.36100006103516 C -53.57500076293945 38.42900085449219 -53.49900054931641 38.50600051879883 -53.43099975585938 38.5890007019043 C -51.72299957275391 40.28900146484375 -47.60100173950195 44.2239990234375 -47.45600128173828 44.39799880981445 C -47.27199935913086 44.22600173950195 -33.77400207519531 30.50300025939941 -27.02400016784668 23.76099967956543 C -26.72800064086914 23.51300048828125 -26.60100173950195 23.11800003051758 -26.69600105285645 22.74499893188477 C -27.28700065612793 19.9689998626709 -27.2140007019043 16.8390007019043 -26.0880012512207 14.23299980163574 C -25.56800079345703 13.0959997177124 -24.85200119018555 12.05900001525879 -23.97200202941895 11.16899967193604 C -23.65720367431641 10.79157829284668 -23.20446014404297 10.59671878814697 -22.7485179901123 10.59671878814697 C -22.38903045654297 10.59671878814697 -22.02758026123047 10.71779727935791 -21.73000144958496 10.96599960327148 C -21.66800117492676 11.01700019836426 -21.61000061035156 11.07299995422363 -21.5570011138916 11.13299942016602 C -18.56100082397461 14.11499977111816 -15.57200145721436 17.10300064086914 -12.59100151062012 20.0989990234375 C -11.93100070953369 20.6870002746582 -11.87300109863281 21.69899940490723 -12.4610013961792 22.35799980163574 C -12.52300071716309 22.42799949645996 -12.59200096130371 22.49200057983398 -12.66500091552734 22.54999923706055 C -14.83950424194336 24.60703659057617 -17.71347808837891 25.74442291259766 -20.68765449523926 25.74456024169922 C -20.92905807495117 25.74456977844238 -21.17058944702148 25.73708915710449 -21.41300201416016 25.72200012207031 C -22.30300140380859 25.6830005645752 -23.57200050354004 25.37400054931641 -24.44900131225586 25.21999931335449 C -24.51732444763184 25.20162391662598 -24.5867748260498 25.19268035888672 -24.65561866760254 25.19268035888672 C -24.87898254394531 25.19268035888672 -25.09612083435059 25.28677368164063 -25.24900054931641 25.45800018310547 C -29.54100036621094 29.76600074768066 -45.80599975585938 46.14599990844727 -45.80599975585938 46.14599990844727 C -45.80599975585938 46.14599990844727 -41.81700134277344 50.20499801635742 -40.12900161743164 51.89699935913086 C -39.39599990844727 52.43899917602539 -39.2400016784668 53.47200012207031 -39.78100204467773 54.20499801635742 C -39.87599945068359 54.33399963378906 -39.9900016784668 54.447998046875 -40.11800003051758 54.54399871826172 C -42.18500137329102 56.61100006103516 -44.25300216674805 58.67800140380859 -46.32300186157227 60.74399948120117 C -48.87300109863281 63.33599853515625 -52.25099945068359 64.95200347900391 -55.86899948120117 65.31199645996094 C -55.97200012207031 65.33300018310547 -56.07200241088867 65.36299896240234 -56.16900253295898 65.40299987792969 Z" stroke="none" fill="#629c44"/>
  </g>
</svg>
