<svg xmlns="http://www.w3.org/2000/svg" width="84.915" height="107.594" viewBox="0 0 84.915 107.594"><path d="M137.884,88.727,133.1,28.181a7.546,7.546,0,0,0-7.476-6.956h-9.447V20.8a20.7,20.7,0,1,0-41.4,0v.427H65.33a7.544,7.544,0,0,0-7.475,6.948L53.071,88.735a17.486,17.486,0,0,0,17.387,18.859H120.5a17.486,17.486,0,0,0,17.386-18.867ZM81.049,20.8a14.428,14.428,0,1,1,28.857,0v.427H81.049Zm47.639,76.9a11.027,11.027,0,0,1-8.191,3.595H70.458A11.2,11.2,0,0,1,59.325,89.225l4.784-60.563a1.232,1.232,0,0,1,1.221-1.136h9.447v7.762a3.137,3.137,0,1,0,6.273,0V27.527h28.857v7.762a3.137,3.137,0,1,0,6.273,0V27.527h9.447a1.235,1.235,0,0,1,1.222,1.144l4.783,60.546A11.134,11.134,0,0,1,128.689,97.7Z" transform="translate(-53.02)" fill="#4e4e4e"/><g transform="translate(24.461 53.797)"><path d="M218.946,250.992a3.75,3.75,0,0,0-5.3,0l-16.748,16.748-6.44-6.44a3.751,3.751,0,1,0-5.3,5.3l9.092,9.092a3.75,3.75,0,0,0,5.3,0l19.4-19.4A3.751,3.751,0,0,0,218.946,250.992Z" transform="translate(-184.052 -249.893)" fill="#4e4e4e"/></g></svg>