<svg xmlns="http://www.w3.org/2000/svg" width="17.915" height="22.594" viewBox="0 0 17.915 22.594"><path d="M70.924,18.632,69.915,5.918a1.589,1.589,0,0,0-1.577-1.461H66.345v-.09a4.367,4.367,0,1,0-8.735,0v.09H55.617A1.589,1.589,0,0,0,54.04,5.916L53.031,18.634a3.679,3.679,0,0,0,3.668,3.96H67.256a3.679,3.679,0,0,0,3.668-3.962ZM58.933,4.367a3.044,3.044,0,1,1,6.088,0v.09H58.933ZM68.984,20.516a2.331,2.331,0,0,1-1.728.755H56.7a2.355,2.355,0,0,1-2.349-2.534L55.359,6.019a.259.259,0,0,1,.258-.239H57.61V7.41a.662.662,0,0,0,1.323,0V5.78h6.088V7.41a.662.662,0,0,0,1.323,0V5.78h1.993a.26.26,0,0,1,.258.24L69.6,18.735A2.331,2.331,0,0,1,68.984,20.516Z" transform="translate(-53.02)" fill="#4e4e4e"/><g transform="translate(5.782 11.028)"><path d="M190.208,250.087a.662.662,0,0,0-.936,0l-2.955,2.955-1.136-1.136a.662.662,0,0,0-.936.936l1.6,1.6a.662.662,0,0,0,.936,0l3.423-3.423A.662.662,0,0,0,190.208,250.087Z" transform="translate(-184.052 -249.893)" fill="#4e4e4e"/></g></svg>