<svg xmlns="http://www.w3.org/2000/svg" width="28.204" height="19.759" viewBox="0 0 28.204 19.759"><g transform="translate(499.656 -316.55)"><g transform="translate(-490.361 316.55)"><path d="M-468.8,319.073a4.425,4.425,0,0,1-.073.689q-.938,3.55-1.9,7.094a1.11,1.11,0,0,1-.3.523.76.76,0,0,1-1.2-.268c-.341-.575-.671-1.157-1.006-1.736l-.13-.225-.253.146c-2.341,1.354-4.688,2.7-7.02,4.067a.858.858,0,0,1-1.328-.365c-.142-.292-.322-.566-.468-.818l-1.269,4.76,4.755,1.271-.485-.84a.824.824,0,0,1,.356-1.311q2.551-1.475,5.1-2.947a1.481,1.481,0,0,1,.389-.168.765.765,0,0,1,.861.439.783.783,0,0,1-.258.952c-.069.05-.145.09-.218.133l-4.344,2.51-.221.128c.04.077.072.145.109.21q.5.86.993,1.719a.829.829,0,0,1,.07.85.751.751,0,0,1-.794.415,1.882,1.882,0,0,1-.249-.055l-7.157-1.914a.813.813,0,0,1-.669-1.144q.959-3.589,1.925-7.176a1.142,1.142,0,0,1,.29-.528.76.76,0,0,1,1.206.252c.346.58.678,1.169,1.017,1.754l.125.217.261-.151,7.079-4.091a.791.791,0,0,1,1.219.33l.438.758.083.143,1.281-4.788-4.774-1.28a.964.964,0,0,0,.049.109c.173.3.354.6.52.907a.763.763,0,0,1-.223,1.006,1.414,1.414,0,0,1-.141.1q-2.625,1.518-5.25,3.033a1.156,1.156,0,0,1-.335.132.766.766,0,0,1-.845-.432.784.784,0,0,1,.247-.955,2.236,2.236,0,0,1,.218-.134l4.344-2.51.239-.139-.125-.215c-.331-.573-.66-1.147-.994-1.719a.8.8,0,0,1,.008-.957.794.794,0,0,1,.92-.258c2.419.65,4.84,1.293,7.258,1.947a2.963,2.963,0,0,1,.492.235Z" transform="translate(485.563 -316.55)" fill="#5287f5"/></g><line x1="9.967" y2="5.761" transform="translate(-498.631 320.373)" fill="none" stroke="#5287f5" stroke-linecap="round" stroke-miterlimit="10" stroke-width="1.5"/><line x1="6.808" y2="3.935" transform="translate(-495.823 323.411)" fill="none" stroke="#5287f5" stroke-linecap="round" stroke-miterlimit="10" stroke-width="1.5"/><line x1="6.808" y2="3.935" transform="translate(-479.284 329.598)" fill="none" stroke="#5287f5" stroke-linecap="round" stroke-miterlimit="10" stroke-width="1.5"/></g></svg>