<svg xmlns="http://www.w3.org/2000/svg" width="29.799" height="21.949" viewBox="0 0 29.799 21.949"><g transform="translate(-537.135 -727.788)"><g transform="translate(544.985 727.788)"><path d="M21.75,10.514,18.162,7.137A.633.633,0,0,0,17.1,7.6V9.075H12.874V4.854h1.477a.633.633,0,0,0,.461-1.067L11.436.2a.633.633,0,0,0-.922,0L7.137,3.787A.633.633,0,0,0,7.6,4.854H9.075V9.075H4.854V7.6a.633.633,0,0,0-1.067-.461L.2,10.514a.633.633,0,0,0,0,.922l3.588,3.377a.633.633,0,0,0,1.067-.461V12.874H9.075V17.1H7.6a.633.633,0,0,0-.461,1.067l3.377,3.588a.633.633,0,0,0,.922,0l3.377-3.588a.633.633,0,0,0-.461-1.067H12.874V12.874H17.1v1.477a.633.633,0,0,0,1.067.461l3.588-3.377a.633.633,0,0,0,0-.922Z" fill="#5287f5"/></g><path d="M553.125,729.25H544.5" transform="translate(-2.14 1)" fill="none" stroke="#5287f5" stroke-linecap="round" stroke-width="1.7"/><path d="M547.125,729.25H544.5" transform="translate(-2.14 5)" fill="none" stroke="#5287f5" stroke-linecap="round" stroke-width="1.7"/><path d="M549.5,729.25h-5" transform="translate(-6.515 10)" fill="none" stroke="#5287f5" stroke-linecap="round" stroke-width="1.7"/><path d="M551.125,729.25H544.5" transform="translate(-2.14 15)" fill="none" stroke="#5287f5" stroke-linecap="round" stroke-width="1.7"/><path d="M549.467,729.25H544.5" transform="translate(2.519 19)" fill="none" stroke="#5287f5" stroke-linecap="round" stroke-width="1.7"/></g></svg>