<svg xmlns="http://www.w3.org/2000/svg" width="15.58" height="20.647" viewBox="0 0 15.58 20.647"><path d="M15.474,4.316,11.771.173A.5.5,0,0,0,11.4,0H2.035A2.135,2.135,0,0,0,.053,2.257V18.39a2.135,2.135,0,0,0,1.982,2.257H13.652a2.135,2.135,0,0,0,1.982-2.257V4.748a.649.649,0,0,0-.159-.432ZM11.93,2.047l1.874,2.1-.39-.559a5.636,5.636,0,0,1-.663-1.327Zm1.722,17.391H2.035a.991.991,0,0,1-.919-1.047V2.257A.991.991,0,0,1,2.035,1.21h8.832V3.951a1.327,1.327,0,0,0,1.231,1.4h2.472V18.39a.991.991,0,0,1-.919,1.047Zm0,0" transform="translate(-0.053)" fill="#4e4e4e"/><path d="M18.506,25.422H11.019a.61.61,0,0,0,0,1.21h7.487a.61.61,0,0,0,0-1.21Zm0,0" transform="translate(-7.029 -15.824)" fill="#4e4e4e"/><path d="M11.019,33.04h6.1a.61.61,0,0,0,0-1.21h-6.1a.61.61,0,0,0,0,1.21Zm0,0" transform="translate(-7.029 -19.813)" fill="#4e4e4e"/><path d="M17.86,38.239H11.019a.61.61,0,0,0,0,1.21H17.86a.61.61,0,0,0,0-1.21Zm0,0" transform="translate(-7.029 -23.802)" fill="#4e4e4e"/></svg>