<svg xmlns="http://www.w3.org/2000/svg" width="45" height="45" viewBox="0 0 45 45"><g transform="translate(-1285 -219.999)"><g transform="translate(1285.154 220)" opacity="0.3"><g transform="translate(-0.154 0)" fill="#d4bcff" stroke="#8b51f5" stroke-width="1.5"><rect width="45" height="45" rx="4" stroke="none"/><rect x="0.75" y="0.75" width="43.5" height="43.5" rx="3.25" fill="none"/></g></g><g transform="translate(1316.661 225.588) rotate(70)"><path d="M-273.215,409.267a1.459,1.459,0,0,0-.117.388c-.01.9-.005,1.808-.005,2.712v.28c-.576.06-1.124.1-1.665.178a11.605,11.605,0,0,0-6.762,3.5,11.521,11.521,0,0,0-3.284,7.092,11.618,11.618,0,0,0,2.383,8.38,11.506,11.506,0,0,0,6.029,4.184,11.619,11.619,0,0,0,9.08-.929,11.782,11.782,0,0,0,4.517-4.282,11.33,11.33,0,0,0,1.573-4.2,1.612,1.612,0,0,0-1.017-1.859,1.584,1.584,0,0,0-1.962.67,4.657,4.657,0,0,0-.36,1.156,8.524,8.524,0,0,1-3.7,5.281,8.321,8.321,0,0,1-5.277,1.374,8.416,8.416,0,0,1-5.579-2.592,8.373,8.373,0,0,1-2.332-4.534,8.4,8.4,0,0,1,.786-5.32,8.633,8.633,0,0,1,4.048-3.956,8.722,8.722,0,0,1,3.528-.8v.279c0,.913,0,1.826.005,2.738,0,.111.046.289.117.315a.445.445,0,0,0,.353-.078q3.187-2.327,6.365-4.668c.28-.206.277-.308-.01-.52l-6.383-4.688a1.255,1.255,0,0,1-.112-.1Z" transform="translate(285.108 -409.267)" fill="#8b51f5"/></g></g></svg>