<svg xmlns="http://www.w3.org/2000/svg" width="27.552" height="25.712" viewBox="0 0 27.552 25.712"><g transform="translate(-776.749 -107.667)"><path d="M-13272.826,6011.129h-17.126a1.963,1.963,0,0,1-1.671-.794,2.263,2.263,0,0,1-.377-.947v-17.727l0-.01.006-.018a.6.6,0,0,0,.023-.086,1.9,1.9,0,0,1,.7-1.2,2.206,2.206,0,0,1,1.011-.427h8.449a7.8,7.8,0,0,0-.273.978h-5.087l0,.041,0,.02c0,.042-.008.08-.008.116q0,.916,0,1.831v.9c0,.912,0,1.839,0,2.753a.98.98,0,0,0,1.071,1.067h5.808a7.888,7.888,0,0,0,1.024.966l-.116,0h-2.584q-2.084,0-4.169,0a1.922,1.922,0,0,1-1.6-.767,2,2,0,0,1-.4-1.278v-5.644h-.034l-.475,0h-.146c-.189,0-.412,0-.634,0-.309,0-.562,0-.8.015a.816.816,0,0,0-.73.594,1.639,1.639,0,0,0-.073.527c0,5.633,0,11.346,0,16.979a1.684,1.684,0,0,0,.03.39.843.843,0,0,0,.71.717,3.31,3.31,0,0,0,.465.028c.116,0,.229,0,.354-.007h.032c.11,0,.225-.006.34-.006v-8.953c0-.5.152-.657.653-.657h14.1c.513,0,.661.15.661.67v8.974h.837a1,1,0,0,0,1.1-1.1q0-2.328,0-4.658v-4.658a7.745,7.745,0,0,0,.961-.443v1.306c0,2.8,0,5.687-.008,8.53a2.1,2.1,0,0,1-.193.877A1.872,1.872,0,0,1-13272.826,6011.129Zm-15.314-9.627v8.65h13.48v-8.65Z" transform="translate(14068.999 -5878)" fill="#5287f5" stroke="#5287f5" stroke-width="0.5"/><g transform="translate(785.766 103.461)"><path d="M8.46,16.64a.833.833,0,0,1-1.179,0L2.574,11.933a1.25,1.25,0,0,1,0-1.768l.589-.589a1.25,1.25,0,0,1,1.768,0L7.87,12.514l7.941-7.941a1.25,1.25,0,0,1,1.768,0l.589.589a1.25,1.25,0,0,1,0,1.768Z" transform="translate(0 0)" fill="#5287f5"/></g></g></svg>