<svg xmlns="http://www.w3.org/2000/svg" width="45" height="45" viewBox="0 0 45 45"><g transform="translate(-1285 -219.999)"><g transform="translate(1285.154 220)" opacity="0.3"><g transform="translate(-0.154 0)" fill="#90ee90" stroke="#069d06" stroke-width="1.5"><rect width="45" height="45" rx="4" stroke="none"/><rect x="0.75" y="0.75" width="43.5" height="43.5" rx="3.25" fill="none"/></g></g><g transform="translate(1103.729 -106.366)"><path d="M192.4,357.608h-1.7a.6.6,0,0,1-.593-.593V340.061a.6.6,0,0,1,.593-.593h17.635a.6.6,0,0,1,.593.593v16.953a.6.6,0,0,1-.593.593h-9.714" fill="none" stroke="#069d06" stroke-miterlimit="10" stroke-width="2"/><line x1="2.657" transform="translate(208.335 357.608)" fill="none" stroke="#069d06" stroke-miterlimit="10" stroke-width="2"/><path d="M285.277,366.66h4.65a1.018,1.018,0,0,1,.766.348l4.519,5.167a1.017,1.017,0,0,1,.252.67v6.066a.511.511,0,0,1-.511.511H293.56" transform="translate(-76.349 -21.814)" fill="none" stroke="#069d06" stroke-miterlimit="10" stroke-width="2"/><circle cx="3.112" cy="3.112" r="3.112" transform="translate(192.398 354.497)" fill="none" stroke="#069d06" stroke-miterlimit="10" stroke-width="2"/><circle cx="3.112" cy="3.112" r="3.112" transform="translate(210.991 354.497)" fill="none" stroke="#069d06" stroke-miterlimit="10" stroke-width="2"/></g></g></svg>