<svg xmlns="http://www.w3.org/2000/svg" width="46.337" height="57.057" viewBox="0 0 46.337 57.057">
  <g id="staff-directory-green" transform="translate(511 -162)">
    <path id="Path_255" data-name="Path 255" d="M-466.814,219.057c-7.456-.017-14.973-.019-21.341-.019h-15.8a6.911,6.911,0,0,1-6.873-5.521q-.062-.281-.122-.562l-.053-.244V166.856c.009-.031.019-.063.029-.094a1.789,1.789,0,0,0,.078-.317,5,5,0,0,1,1.8-3.247,6.006,6.006,0,0,1,2.733-1.2h33.294a1.866,1.866,0,0,1,1.2,2.049c-.031.747-.024,1.506-.016,2.239,0,.326.006.651.006.977v1.892l.2.009.232.012c.149.008.277.016.409.016.4,0,.8.005,1.206.009.436,0,.872.009,1.308.009.642,0,1.171-.01,1.665-.033q.1,0,.2,0a1.9,1.9,0,0,1,1.991,1.232v47.434c-.349.862-.971,1.215-2.137,1.215Zm-41.313-7.278c0,.047,0,.094,0,.141,0,.132,0,.269.005.407a4.186,4.186,0,0,0,3.955,3.875c6.641-.013,13.225-.015,18.22-.015h17.612c.135,0,.268-.008.4-.016l.169-.009.2-.01V172.012h-2.165l-.415,0-.411,0a5.432,5.432,0,0,1-2.679-.508.314.314,0,0,0-.151-.037.681.681,0,0,0-.212.045.733.733,0,0,1-.073.022c-.248.052-.5.118-.737.182a6.051,6.051,0,0,1-1.5.271c-4.948.02-9.526.029-13.995.029-3.819,0-7.572-.007-11.156-.022h-.1c-.5,0-1.01.015-1.5.029s-1,.029-1.5.029a12.28,12.28,0,0,1-3.676-.47l-.279-.087Zm2.469-46.686c-.076,0-.176,0-.278.007a2.055,2.055,0,0,0-1.922,1.745,2.038,2.038,0,0,0,1.358,2.218,3.528,3.528,0,0,0,1.067.13q10.542.006,21.085,0h7.856c1.417,0,1.516-.1,1.516-1.495v-2.608h-30.682Z" fill="#629c44"/>
    <path id="Path_256" data-name="Path 256" d="M-399.376,348.85c-2.847,0-5.461-.005-7.993-.016a3.062,3.062,0,0,1-3.028-1.506,5.478,5.478,0,0,1-.458-2.041,5.94,5.94,0,0,1,.16-1.5c.019-.1.038-.2.056-.3a10.855,10.855,0,0,1,3.051-5.689,8.62,8.62,0,0,1,1.409-1.085c.236-.158.48-.321.716-.493l.176-.129-.132-.174a8.531,8.531,0,0,1-1.632-6.41,8.257,8.257,0,0,1,3.111-5.558,8.715,8.715,0,0,1,5.483-1.91,8.753,8.753,0,0,1,5.662,2.011,8.662,8.662,0,0,1,2.972,5.491,8.935,8.935,0,0,1-1.678,6.461l-.15.206.229.112a9.587,9.587,0,0,1,4.612,5.236,13.7,13.7,0,0,1,.885,4.034,3.074,3.074,0,0,1-2.264,3.019,10.058,10.058,0,0,1-1.967.219C-393.6,348.845-396.612,348.85-399.376,348.85Zm-1.529-10.509a8.873,8.873,0,0,0-1.317.132c-.166.025-.333.05-.5.072a5.11,5.11,0,0,0-3.915,2.559,11.509,11.509,0,0,0-.789,1.493,7.1,7.1,0,0,0-.593,3.193l.012.2h19.177v-.215a8.231,8.231,0,0,0-2.06-5.531,3.768,3.768,0,0,0-2.019-1.386c-.189-.042-.383-.1-.571-.146a5.877,5.877,0,0,0-1.3-.251c-1.772-.073-3.656-.11-6.111-.121Zm2.441-13.508-.156,0a5.942,5.942,0,0,0-5.7,5.956,5.9,5.9,0,0,0,5.83,5.8l.131,0a5.907,5.907,0,0,0,5.806-5.955A5.944,5.944,0,0,0-398.463,324.834Z" transform="translate(-89.398 -142.879)" fill="#629c44"/>
  </g>
</svg>
