<svg xmlns="http://www.w3.org/2000/svg" width="27.106" height="25.446" viewBox="0 0 27.106 25.446">
  <g id="Supplier_Management-small-grey" data-name="Supplier Management-small-grey" transform="translate(0.625 0.625)">
    <path id="Path_399" data-name="Path 399" d="M-2196.311-43.929h1.97a1.046,1.046,0,0,1,1.046,1.046v13.24a1.046,1.046,0,0,0,1.046,1.046h17.2a1.047,1.047,0,0,0,.851-.437l3.5-4.89" transform="translate(2196.311 43.929)" fill="none" stroke="#4e4e4e" stroke-linecap="round" stroke-miterlimit="10" stroke-width="1.25"/>
    <path id="Path_400" data-name="Path 400" d="M-2164.556-2.853H-2181.2c-2.508,0-1.028-2.537-1.326-4.165" transform="translate(2185.51 21.304)" fill="none" stroke="#4e4e4e" stroke-linecap="round" stroke-miterlimit="10" stroke-width="1.25"/>
    <ellipse id="Ellipse_15" data-name="Ellipse 15" cx="2.927" cy="2.927" rx="2.927" ry="2.927" transform="translate(2.552 18.341)" fill="none" stroke="#4e4e4e" stroke-linecap="round" stroke-miterlimit="10" stroke-width="1.25"/>
    <ellipse id="Ellipse_16" data-name="Ellipse 16" cx="2.927" cy="2.927" rx="2.927" ry="2.927" transform="translate(18.955 18.341)" fill="none" stroke="#4e4e4e" stroke-linecap="round" stroke-miterlimit="10" stroke-width="1.25"/>
    <rect id="Rectangle_279" data-name="Rectangle 279" width="5.897" height="10.113" rx="1" transform="translate(13.777 5.219)" fill="none" stroke="#4e4e4e" stroke-linecap="round" stroke-miterlimit="10" stroke-width="1.25"/>
    <rect id="Rectangle_280" data-name="Rectangle 280" width="5.897" height="10.113" rx="1" transform="translate(5.777 5.219)" fill="none" stroke="#4e4e4e" stroke-linecap="round" stroke-miterlimit="10" stroke-width="1.25"/>
  </g>
</svg>
