<svg xmlns="http://www.w3.org/2000/svg" width="25.826" height="25.51" viewBox="0 0 25.826 25.51">
  <g id="Tools_Settings-small-grey" data-name="Tools &amp; Settings-small-grey" transform="translate(0.671 0.625)">
    <path id="Union_15" data-name="Union 15" d="M115.238,265.182a.517.517,0,0,1-.194-.128l-5.337-5.647a.538.538,0,0,1-.081-.112,4.75,4.75,0,0,1-.543-3.214.558.558,0,0,0-.119-.525L105,251.2a.489.489,0,0,0-.361-.162h-2.265a.494.494,0,0,1-.4-.211l-3.6-5.024a.555.555,0,0,1,.045-.7l2.113-2.236a.482.482,0,0,1,.653-.052l4.9,3.815a.542.542,0,0,1,.2.428v2.392a.548.548,0,0,0,.154.383l4.1,4.183a.482.482,0,0,0,.526.115,2.573,2.573,0,0,1,2.925.47l5.277,5.583a.486.486,0,0,1,.042.05,1.734,1.734,0,0,1,.16,1.98.589.589,0,0,1-.046.055l-2.383,2.522a1.688,1.688,0,0,1-1.184.506A1.769,1.769,0,0,1,115.238,265.182Zm-17.432-.7a3.123,3.123,0,0,1-.685-3.47.531.531,0,0,1,.1-.159l6.105-6.638a.483.483,0,0,1,.7-.017l1.848,1.824a.549.549,0,0,1,.154.466,6.3,6.3,0,0,0,.127,2.33.557.557,0,0,1-.123.51l-4.673,5.125a.534.534,0,0,1-.06.056,3.259,3.259,0,0,1-1.857.689A2.275,2.275,0,0,1,97.807,264.487Zm19.561-11.524a4.747,4.747,0,0,0-4.524-1.921.487.487,0,0,1-.415-.151l-2.9-3.064a.545.545,0,0,1-.147-.365c-.023-1.181.244-6.725,7.308-6.408a.481.481,0,0,1,.2.052c.209.106.588.4.047.971l-2.867,3.033a.551.551,0,0,0-.14.463l.383,2.433a.521.521,0,0,0,.387.432l2.281.536a.485.485,0,0,0,.473-.152l2.93-3.255a.467.467,0,0,1,.335-.164c.2,0,.454.124.552.75.156,1,.379,4.979-3,6.821-.053.029-.175.091-.3.148a.485.485,0,0,1-.2.045A.49.49,0,0,1,117.368,252.963Z" transform="translate(-96.868 -241.04)" fill="none" stroke="#4e4e4e" stroke-miterlimit="10" stroke-width="1.25"/>
  </g>
</svg>
