<svg xmlns="http://www.w3.org/2000/svg" width="45" height="45" viewBox="0 0 45 45"><g transform="translate(-1285 -219.999)"><g transform="translate(1285.154 220)" opacity="0.3"><g transform="translate(-0.154 0)" fill="#ff8d8d" stroke="#f30000" stroke-width="1.5"><rect width="45" height="45" rx="4" stroke="none"/><rect x="0.75" y="0.75" width="43.5" height="43.5" rx="3.25" fill="none"/></g></g><g transform="translate(1296.282 229.625)"><path d="M976.653,293.77h-8.834a4.768,4.768,0,0,1-4.762-4.763V276.374h2.283v12.634a2.482,2.482,0,0,0,2.479,2.479h8.834a2.482,2.482,0,0,0,2.479-2.479V276.374h2.283v12.634A4.768,4.768,0,0,1,976.653,293.77Z" transform="translate(-961.189 -268.508)" fill="#f30000"/><path d="M1002.06,213.157h-2.283v-2.3a1.1,1.1,0,0,0-1.1-1.1H993.2a1.1,1.1,0,0,0-1.1,1.1v2.3h-2.283v-2.3a3.391,3.391,0,0,1,3.387-3.387h5.478a3.391,3.391,0,0,1,3.387,3.387Z" transform="translate(-984.888 -207.472)" fill="#f30000"/><rect width="22.093" height="2.283" transform="translate(0 4.544)" fill="#f30000"/></g></g></svg>