<svg xmlns="http://www.w3.org/2000/svg" width="51.405" height="67.268" viewBox="0 0 51.405 67.268">
  <g id="Component_33_1" data-name="Component 33 – 1" transform="translate(1.09)">
    <g id="Group_317" data-name="Group 317">
      <path id="Path_202" data-name="Path 202" d="M-255.157,377.717v-.095c-5.746,0-11.493.016-17.24-.006-3.462-.013-5.947-1.722-6.854-4.67a5.853,5.853,0,0,1-.293-1.66c-.022-5.368-.175-3.2.023-8.564,0-9.45,7.628-13.864,13.97-15.866" transform="translate(279.621 -311.549)" fill="none" stroke="#629c44" stroke-linecap="round" stroke-miterlimit="10" stroke-width="2.2"/>
      <path id="Path_203" data-name="Path 203" d="M-235.33,377.857v-.1c5.747,0,11.493.016,17.24-.006,3.462-.014,5.947-1.722,6.854-4.67a5.834,5.834,0,0,0,.293-1.66c.022-5.368.176-3.2-.023-8.564,0-9.181-7.2-13.609-13.427-15.689" transform="translate(260.09 -311.688)" fill="none" stroke="#629c44" stroke-linecap="round" stroke-miterlimit="10" stroke-width="2.2"/>
      <g id="Path_204" data-name="Path 204" transform="translate(272.438 -274)" fill="none" stroke-linecap="round" stroke-miterlimit="10">
        <path d="M-246.928,274a16.359,16.359,0,0,1,16.385,16.411A16.424,16.424,0,0,1-247,306.778a16.424,16.424,0,0,1-16.336-16.393A16.359,16.359,0,0,1-246.928,274Z" stroke="none"/>
        <path d="M -246.9382781982422 276.2000122070313 C -250.7422637939453 276.2000122070313 -254.3113555908203 277.6729736328125 -256.988037109375 280.3476257324219 C -259.6641845703125 283.0216979980469 -261.1369018554688 286.5860595703125 -261.135009765625 290.38427734375 C -261.1333618164063 294.1564636230469 -259.6616821289063 297.7097778320313 -256.9910278320313 300.3897094726563 C -254.3195343017578 303.0704345703125 -250.7667846679688 304.557861328125 -246.9871368408203 304.5779418945313 L -246.9108276367188 304.5781555175781 C -243.1488952636719 304.5781555175781 -239.5989074707031 303.1007080078125 -236.9148559570313 300.4179992675781 C -234.2291870117188 297.7336730957031 -232.7474365234375 294.1787719726563 -232.7425842285156 290.4079895019531 C -232.7373657226563 286.6038513183594 -234.2069091796875 283.0341491699219 -236.8804931640625 280.3563842773438 C -239.5542907714844 277.6784362792969 -243.1229858398438 276.2023315429688 -246.9278259277344 276.2000122070313 L -246.9382781982422 276.2000122070313 M -246.9382781982422 274 C -246.9343872070313 274 -246.9317169189453 274 -246.9278259277344 274 C -237.8427734375 274.0055847167969 -230.5301818847656 281.329345703125 -230.5425720214844 290.4109802246094 C -230.55419921875 299.4228820800781 -237.9202880859375 306.7781677246094 -246.9108276367188 306.7781677246094 C -246.9405670166016 306.7781677246094 -246.9691925048828 306.778076171875 -246.9989624023438 306.7779235839844 C -256.0224609375 306.7299499511719 -263.3311157226563 299.3960571289063 -263.3349914550781 290.3852233886719 C -263.339599609375 281.3153381347656 -256.0175170898438 274 -246.9382781982422 274 Z" stroke="none" fill="#629c44"/>
      </g>
      <path id="Path_205" data-name="Path 205" d="M-253.627,346.606l10.943,12.865,9.728-12.007" transform="translate(268.159 -311.439)" fill="none" stroke="#629c44" stroke-linecap="round" stroke-miterlimit="10" stroke-width="2.2"/>
    </g>
  </g>
</svg>
