<svg xmlns="http://www.w3.org/2000/svg" width="63.699" height="60.201" viewBox="0 0 63.699 60.201">
  <g id="Tools_settings" data-name="Tools settings" transform="translate(1.212 1.101)">
    <path id="Union_15" data-name="Union 15" d="M98.225,297.347a7.132,7.132,0,0,1-1.688-8.2,1.237,1.237,0,0,1,.248-.373l16.036-16.618a1.227,1.227,0,0,1,1.732-.039l4.558,4.306a1.268,1.268,0,0,1,.38,1.1,14.249,14.249,0,0,0,.313,5.5,1.269,1.269,0,0,1-.3,1.206L107,297.282a1.4,1.4,0,0,1-.147.131,8.248,8.248,0,0,1-4.583,1.628A5.735,5.735,0,0,1,98.225,297.347Zm43.977.7a1.3,1.3,0,0,1-.478-.3L128.556,284.41a1.327,1.327,0,0,1-.2-.264c-.437-.767-2.291-4.309-1.339-7.587a1.284,1.284,0,0,0-.292-1.242l-9.791-10.283a1.23,1.23,0,0,0-.892-.384h-5.587a1.23,1.23,0,0,1-.988-.5l-8.874-11.865a1.262,1.262,0,0,1,.111-1.644l5.212-5.283a1.228,1.228,0,0,1,1.611-.123l12.1,9.01a1.262,1.262,0,0,1,.5,1.013v5.648a1.264,1.264,0,0,0,.38.9l10.112,9.876a1.227,1.227,0,0,0,1.3.271c1.432-.551,4.768-1.42,7.216,1.112l13.018,13.183a1.092,1.092,0,0,1,.1.117c.323.42,1.906,2.678.4,4.674-.036.044-.072.089-.114.13l-5.88,5.953a4.234,4.234,0,0,1-2.921,1.194A4.537,4.537,0,0,1,142.2,298.047Zm5.254-28.853a11.911,11.911,0,0,0-11.162-4.536,1.237,1.237,0,0,1-1.024-.358l-7.144-7.237a1.254,1.254,0,0,1-.365-.859c-.057-2.79.6-15.882,18.029-15.133a1.25,1.25,0,0,1,.486.123c.517.253,1.45.945.119,2.294-1.45,1.467-5.68,5.752-7.074,7.162a1.263,1.263,0,0,0-.344,1.094l.944,5.745a1.253,1.253,0,0,0,.954,1.021l5.629,1.266a1.233,1.233,0,0,0,1.166-.36l7.227-7.686a1.17,1.17,0,0,1,.827-.386c.486-.008,1.12.292,1.36,1.77.388,2.367.936,11.758-7.413,16.106-.132.07-.429.214-.742.35a1.235,1.235,0,0,1-.5.107A1.219,1.219,0,0,1,147.456,269.193Z" transform="translate(-95.91 -241.04)" fill="none" stroke="#629c44" stroke-miterlimit="10" stroke-width="2.2"/>
  </g>
</svg>
