<svg xmlns="http://www.w3.org/2000/svg" width="55" height="51.185" viewBox="0 0 55 51.185">
  <g id="DragDragtoplace-move" transform="translate(0 1.014)">
    <g id="Group_1675" data-name="Group 1675" transform="translate(-3670.394 -3682.889)">
      <path id="Path_21" data-name="Path 21" d="M9.39,10.795a1.318,1.318,0,0,1-.934-.387L.34,2.29A1.322,1.322,0,0,1,2.207.424L9.39,7.607,16.57.424A1.322,1.322,0,1,1,18.439,2.29l-8.115,8.118A1.318,1.318,0,0,1,9.39,10.795Z" transform="translate(3697.331 3701.75) rotate(-90)" fill="#b4b4b4" stroke="#b4b4b4" stroke-width="2"/>
      <path id="Path_21-2" data-name="Path 21" d="M7.846,8.945a1.1,1.1,0,0,1-.777-.322L.322,1.876A1.1,1.1,0,1,1,1.876.322l5.97,5.971L13.816.322a1.1,1.1,0,1,1,1.556,1.554L8.623,8.624A1.1,1.1,0,0,1,7.846,8.945Z" transform="translate(3687.394 3700.207) rotate(-90)" fill="#b4b4b4" stroke="#b4b4b4" stroke-width="2"/>
    </g>
    <text id="Drag_Drop" data-name="Drag &amp; Drop" transform="translate(0 36.171)" fill="#4e4e4e" font-size="10" font-family="Roboto-Bold, Roboto" font-weight="700"><tspan x="0" y="0">Drag &amp; Drop</tspan></text>
    <text id="to_Place" data-name="to Place" transform="translate(9 47.171)" fill="#4e4e4e" font-size="10" font-family="Roboto-Bold, Roboto" font-weight="700"><tspan x="0" y="0">to Place</tspan></text>
  </g>
</svg>
