<svg xmlns="http://www.w3.org/2000/svg" width="23.784" height="31.689" viewBox="0 0 23.784 31.689">
  <g id="Customer_management_small" data-name="Customer management small" transform="translate(0.746)">
    <g id="Group_317" data-name="Group 317">
      <path id="Path_202" data-name="Path 202" d="M-268.541,360.834v-.043c-2.6,0-5.205.007-7.807,0a3.012,3.012,0,0,1-3.1-2.115,2.653,2.653,0,0,1-.133-.752c-.01-2.431-.079-1.451.011-3.878,0-4.28,3.455-6.279,6.327-7.185" transform="translate(279.621 -329.895)" fill="none" stroke="#fff" stroke-linecap="round" stroke-miterlimit="10" stroke-width="1.5"/>
      <path id="Path_203" data-name="Path 203" d="M-235.33,361.07v-.043c2.6,0,5.205.007,7.808,0a3.012,3.012,0,0,0,3.1-2.115,2.641,2.641,0,0,0,.133-.752c.01-2.431.079-1.451-.01-3.878,0-4.158-3.261-6.163-6.081-7.105" transform="translate(246.543 -330.131)" fill="none" stroke="#fff" stroke-linecap="round" stroke-miterlimit="10" stroke-width="1.5"/>
      <g id="Path_204" data-name="Path 204" transform="translate(267.458 -274)" fill="none" stroke-linecap="round" stroke-miterlimit="10">
        <path d="M-255.9,274a7.409,7.409,0,0,1,7.421,7.432,7.438,7.438,0,0,1-7.453,7.412,7.438,7.438,0,0,1-7.4-7.424A7.409,7.409,0,0,1-255.9,274Z" stroke="none"/>
        <path d="M -255.9093017578125 275.5 C -257.49755859375 275.5 -258.9874877929688 276.11474609375 -260.1045532226563 277.2310180664063 C -261.2212524414063 278.3468322753906 -261.8357543945313 279.8344421386719 -261.8349609375 281.419921875 C -261.8335571289063 284.66943359375 -259.1840209960938 287.3272094726563 -255.9289093017578 287.344482421875 L -255.8968505859375 287.3445739746094 C -254.32763671875 287.3445739746094 -252.8463745117188 286.7278137207031 -251.7259216308594 285.6079406738281 C -250.6046142578125 284.4872131347656 -249.9859924316406 283.0035705566406 -249.9839477539063 281.43017578125 C -249.9817810058594 279.8420104980469 -250.5950317382813 278.3519897460938 -251.7107238769531 277.2345581054688 C -252.8265686035156 276.1170043945313 -254.3162536621094 275.5009765625 -255.9045104980469 275.5 L -255.9093017578125 275.5 M -255.9093017578125 274 C -255.9075469970703 274 -255.9062652587891 274 -255.9045104980469 274 C -251.7901000976563 274.0025329589844 -248.4783630371094 277.3193359375 -248.4839477539063 281.4322204589844 C -248.4892272949219 285.5135192871094 -251.8252258300781 288.8445739746094 -255.8968505859375 288.8445739746094 C -255.9103088378906 288.8445739746094 -255.9232177734375 288.8445129394531 -255.9367065429688 288.8444519042969 C -260.0232849121094 288.82275390625 -263.3331909179688 285.5013732910156 -263.3349609375 281.4205627441406 C -263.3370666503906 277.3129577636719 -260.0210571289063 274 -255.9093017578125 274 Z" stroke="none" fill="#fff"/>
      </g>
      <path id="Path_205" data-name="Path 205" d="M-253.627,346.606l4.956,5.826,4.406-5.438" transform="translate(260.208 -329.707)" fill="none" stroke="#fff" stroke-linecap="round" stroke-miterlimit="10" stroke-width="1.5"/>
    </g>
  </g>
</svg>
