<svg xmlns="http://www.w3.org/2000/svg" width="32.732" height="31.25" viewBox="0 0 32.732 31.25">
  <g id="toolsand_settings_small" data-name="toolsand settings small" transform="translate(0.683 0.625)">
    <path id="Union_16" data-name="Union 16" d="M97.093,270.165a3.722,3.722,0,0,1-.863-4.239.64.64,0,0,1,.127-.193l8.2-8.6a.622.622,0,0,1,.885-.02l2.33,2.227a.66.66,0,0,1,.194.57,7.458,7.458,0,0,0,.16,2.846.662.662,0,0,1-.155.624l-6.389,6.747a.718.718,0,0,1-.075.068,4.187,4.187,0,0,1-2.342.842A2.913,2.913,0,0,1,97.093,270.165Zm22.475.362a.664.664,0,0,1-.244-.157l-6.73-6.9a.686.686,0,0,1-.1-.136,5.654,5.654,0,0,1-.684-3.924.67.67,0,0,0-.149-.643l-5-5.319a.625.625,0,0,0-.456-.2h-2.856a.626.626,0,0,1-.5-.257L98.3,246.858a.659.659,0,0,1,.057-.85l2.664-2.732a.622.622,0,0,1,.823-.063l6.184,4.66a.656.656,0,0,1,.258.524v2.921a.658.658,0,0,0,.194.467l5.168,5.108a.622.622,0,0,0,.663.14,3.326,3.326,0,0,1,3.688.575l6.653,6.819a.557.557,0,0,1,.052.061,2.064,2.064,0,0,1,.2,2.418c-.019.023-.037.046-.058.068l-3,3.079a2.153,2.153,0,0,1-1.493.617A2.294,2.294,0,0,1,119.569,270.526Zm2.685-14.924a6.059,6.059,0,0,0-5.7-2.346.627.627,0,0,1-.523-.185l-3.651-3.744a.652.652,0,0,1-.186-.444c-.029-1.443.308-8.215,9.214-7.827a.632.632,0,0,1,.248.063c.264.131.741.489.061,1.187l-3.615,3.7a.659.659,0,0,0-.176.566l.482,2.971a.645.645,0,0,0,.488.528l2.877.655a.626.626,0,0,0,.6-.186l3.693-3.976a.6.6,0,0,1,.423-.2c.248,0,.572.151.7.915.2,1.224.478,6.082-3.788,8.331-.067.036-.219.111-.379.181a.622.622,0,0,1-.753-.193Z" transform="translate(-95.91 -241.04)" fill="none" stroke="#fff" stroke-miterlimit="10" stroke-width="1.25"/>
  </g>
</svg>
