<svg id="Drag__Drop_remove_red" data-name="Drag _Drop_remove_red" xmlns="http://www.w3.org/2000/svg" width="57" height="65.577" viewBox="0 0 57 65.577">
  <text id="Drag_Drop_" data-name="Drag &amp; Drop " transform="translate(0 42.577)" fill="#4e4e4e" font-size="10" font-family="Roboto-Bold, Roboto" font-weight="700"><tspan x="0" y="0">Drag &amp; Drop </tspan></text>
  <text id="Here" transform="translate(18 52.577)" fill="#4e4e4e" font-size="10" font-family="Roboto-Bold, Roboto" font-weight="700"><tspan x="0" y="0">Here</tspan></text>
  <text id="to_Remove" data-name="to Remove" transform="translate(5 62.577)" fill="#4e4e4e" font-size="10" font-family="Roboto-Bold, Roboto" font-weight="700"><tspan x="0" y="0">to Remove</tspan></text>
  <g id="Group_1673" data-name="Group 1673" transform="translate(-3665.932 -3908.423)">
    <rect id="Rectangle_29" data-name="Rectangle 29" width="24.318" height="2.513" transform="translate(3681.932 3913.424)" fill="#f30000"/>
    <path id="Path_50" data-name="Path 50" d="M978.022,295.523H968.3a5.248,5.248,0,0,1-5.242-5.242V276.374c.129,0,20.265.042,20.208,0v13.9A5.248,5.248,0,0,1,978.022,295.523Z" transform="translate(2720.931 3640.707)" fill="#f30000"/>
    <path id="Path_51" data-name="Path 51" d="M1003.294,213.73h-2.513V211.2a1.216,1.216,0,0,0-1.215-1.215h-6.024a1.216,1.216,0,0,0-1.215,1.215v2.53h-2.513V211.2a3.732,3.732,0,0,1,3.728-3.728h6.029a3.732,3.732,0,0,1,3.728,3.728Z" transform="translate(2697.538 3700.951)" fill="#f30000"/>
  </g>
</svg>
